<svg width="679" height="667" viewBox="0 0 679 667" fill="none" xmlns="http://www.w3.org/2000/svg">
<path id="blob" fill-rule="evenodd" clip-rule="evenodd" d="M310.825 46.6856C401.957 28.3524 512.891 -29.5458 583.875 18.8638C656.966 68.7099 577.4 166.351 595.66 240.936C610.34 300.898 680.835 346.223 678.963 407.262C676.715 480.575 654.537 560.155 584.384 608.665C512.162 658.605 405.157 677.019 310.825 661.823C223.267 647.718 167.632 584.416 108.335 531.979C61.4202 490.492 19.8471 445.596 5.00838 391.388C-8.79007 340.979 8.14063 290.597 28.8674 241.669C49.4585 193.061 74.5943 145.342 123.59 111.46C176.032 75.1944 243.09 60.312 310.825 46.6856Z" fill="#F5F6FA"/>
</svg>
