<svg width="140" height="92" viewBox="0 0 140 92" fill="none" xmlns="http://www.w3.org/2000/svg">
<g id="citi-logo">
<path id="Vector" fill-rule="evenodd" clip-rule="evenodd" d="M66.9819 34.0967H55.5948V89.9907H66.9819V34.0967Z" fill="#F5F6FA"/>
<path id="Vector_2" fill-rule="evenodd" clip-rule="evenodd" d="M77.4232 34.1892V44.6697H87.01V76.2011C87.01 80.5532 88.2005 84.0475 90.4897 86.6824C92.7789 89.4087 95.8324 90.7573 99.6794 90.8502C103.496 90.9408 106.884 90.0837 109.754 88.3066L109.937 88.2145V88.0302L112.655 77.3969L111.984 77.8254C108.93 79.6954 106.122 80.6146 103.558 80.6146C100.016 80.6146 98.2149 78.5004 98.2149 74.3326V44.6697H109.847V34.1892H98.2149V16.7224L87.0107 22.7594V34.1892H77.4232Z" fill="#F5F6FA"/>
<path id="Vector_3" fill-rule="evenodd" clip-rule="evenodd" d="M132.529 34.0967H121.049V89.9907H132.529V34.0967Z" fill="#F5F6FA"/>
<path id="Vector_4" fill-rule="evenodd" clip-rule="evenodd" d="M49.0616 42.8915L48.8167 42.7072C43.5658 36.3031 37.002 33.1775 29.1252 33.1775C20.8827 33.1775 14.1047 35.721 8.67017 40.7466C2.9005 46.0479 0 53.1877 0 62.1353C0 71.083 2.9005 78.1628 8.67017 83.5256C14.0129 88.5504 20.882 91.0325 29.1252 91.0325C37.002 91.0325 43.6263 87.8761 48.8167 81.5634L49.0616 81.3806L42.6194 73.565L42.3746 73.8108C38.1925 77.9785 33.7044 80.1235 28.8812 80.1235C23.8437 80.1235 19.6915 78.4071 16.3947 75.0065C13.0672 71.6658 11.4796 67.3445 11.4796 62.1353C11.4796 56.9262 13.0672 52.5741 16.3947 49.1735C19.6915 45.8636 23.8437 44.1479 28.8812 44.1479C33.7044 44.1479 38.1925 46.2929 42.3746 50.4599L42.6194 50.7056L49.0616 42.8915Z" fill="#F5F6FA"/>
<path id="Vector_5" fill-rule="evenodd" clip-rule="evenodd" d="M61.2122 24.9043C65.6995 20.308 70.7071 16.8145 76.4156 14.3317C81.9106 11.9417 87.7728 10.7767 93.8171 10.7767C99.8316 10.7767 105.693 11.9417 111.31 14.3317C116.897 16.8138 121.904 20.308 126.392 24.9043L126.575 25.0571H139.642L139.153 24.2915C133.964 16.9673 127.248 11.1761 119.187 6.94686C111.128 2.74837 102.732 0.695557 93.8179 0.695557C84.9954 0.695557 76.4775 2.74837 68.4172 6.94686C60.3575 11.1761 53.6414 16.9673 48.4816 24.2915L47.9628 25.0571H61.1211L61.2122 24.9043Z" fill="#CBDAF7"/>
<path id="Vector_6" fill-rule="evenodd" clip-rule="evenodd" d="M66.9819 34.0967H55.5948V89.9907H66.9819V34.0967Z" fill="#F5F6FA"/>
<path id="Vector_7" fill-rule="evenodd" clip-rule="evenodd" d="M77.4232 34.1892V44.6697H87.01V76.2011C87.01 80.5532 88.2005 84.0475 90.4897 86.6824C92.7789 89.4087 95.8324 90.7573 99.6794 90.8502C103.496 90.9408 106.884 90.0837 109.754 88.3066L109.937 88.2145V88.0302L112.655 77.3969L111.984 77.8254C108.93 79.6954 106.122 80.6146 103.558 80.6146C100.016 80.6146 98.2149 78.5004 98.2149 74.3326V44.6697H109.847V34.1892H98.2149V16.7224L87.0107 22.7594V34.1892H77.4232Z" fill="#F5F6FA"/>
<path id="Vector_8" fill-rule="evenodd" clip-rule="evenodd" d="M132.529 34.0967H121.049V89.9907H132.529V34.0967Z" fill="#F5F6FA"/>
<path id="Vector_9" fill-rule="evenodd" clip-rule="evenodd" d="M49.0616 42.8915L48.8167 42.7072C43.5658 36.3031 37.002 33.1775 29.1252 33.1775C20.8827 33.1775 14.1047 35.721 8.67017 40.7466C2.9005 46.0479 0 53.1877 0 62.1353C0 71.083 2.9005 78.1628 8.67017 83.5256C14.0129 88.5504 20.882 91.0325 29.1252 91.0325C37.002 91.0325 43.6263 87.8761 48.8167 81.5634L49.0616 81.3806L42.6194 73.565L42.3746 73.8108C38.1925 77.9785 33.7044 80.1235 28.8812 80.1235C23.8437 80.1235 19.6915 78.4071 16.3947 75.0065C13.0672 71.6658 11.4796 67.3445 11.4796 62.1353C11.4796 56.9262 13.0672 52.5741 16.3947 49.1735C19.6915 45.8636 23.8437 44.1479 28.8812 44.1479C33.7044 44.1479 38.1925 46.2929 42.3746 50.4599L42.6194 50.7056L49.0616 42.8915Z" fill="#F5F6FA"/>
<path id="Vector_10" fill-rule="evenodd" clip-rule="evenodd" d="M61.2122 24.9043C65.6995 20.308 70.7071 16.8145 76.4156 14.3317C81.9106 11.9417 87.7728 10.7767 93.8171 10.7767C99.8316 10.7767 105.693 11.9417 111.31 14.3317C116.897 16.8138 121.904 20.308 126.392 24.9043L126.575 25.0571H139.642L139.153 24.2915C133.964 16.9673 127.248 11.1761 119.187 6.94686C111.128 2.74837 102.732 0.695557 93.8179 0.695557C84.9954 0.695557 76.4775 2.74837 68.4172 6.94686C60.3575 11.1761 53.6414 16.9673 48.4816 24.2915L47.9628 25.0571H61.1211L61.2122 24.9043Z" fill="#CBDAF7"/>
</g>
</svg>
