<svg width="326" height="89" viewBox="0 0 326 89" fill="none" xmlns="http://www.w3.org/2000/svg">
<path d="M213.868 47.4346H198V63.1709H189.947V26.2144H198V41.2354H213.868V26.2144H221.921V63.1709H213.868V47.4346Z" fill="#F5F6FA"/>
<path d="M241.105 63.8862C233.289 63.8862 226.658 60.7866 226.421 51.9647H234.474C234.474 56.018 236.842 58.1639 241.342 58.1639C244.658 58.1639 248.211 56.4949 248.211 52.9184C248.211 50.0572 245.605 49.1035 241.579 47.9114L238.974 47.1961C233.289 45.5271 227.368 43.1428 227.368 36.7051C227.368 28.36 234.947 25.7373 242.053 25.7373C249.158 25.7373 255.316 28.36 255.316 36.4667H247.263C247.026 33.1287 245.132 31.2212 241.342 31.2212C238.5 31.2212 235.421 32.8902 235.421 35.9898C235.421 38.6126 237.789 39.5663 243 41.2353L246.079 42.189C252.474 44.0965 256.263 46.4808 256.263 52.4416C256.263 60.7866 248.211 63.8862 241.105 63.8862Z" fill="#F5F6FA"/>
<path d="M260.763 26.2144H273.553C277.579 26.2144 279.237 26.2144 280.658 26.6912C285.158 27.6449 288.474 30.7445 288.474 35.5131C288.474 40.2817 285.395 42.666 281.132 43.8581C286.105 44.8118 289.658 47.4346 289.658 52.9184C289.658 61.2635 281.368 63.1709 274.974 63.1709H260.526V26.2144H260.763ZM273.553 41.7123C277.105 41.7123 280.658 40.997 280.658 36.7052C280.658 32.8904 277.342 31.9367 274.026 31.9367H268.342V41.7123H273.553ZM274.5 57.687C278.29 57.687 281.842 56.7333 281.842 52.2031C281.842 47.9114 278.763 46.7193 274.974 46.7193H268.579V57.4486H274.5V57.687Z" fill="#F5F6FA"/>
<path d="M310.737 63.886C298.895 63.886 293.447 56.2562 293.447 45.05C293.447 33.8438 299.368 25.4988 310.974 25.4988C318.316 25.4988 325.421 28.8368 325.658 37.1818H317.368C316.895 33.6054 314.526 31.4595 310.974 31.4595C303.868 31.4595 301.737 39.3277 301.737 45.05C301.737 51.0108 303.868 57.6868 310.737 57.6868C314.289 57.6868 316.895 55.7794 317.605 51.9645H325.895C324.947 60.7864 318.316 63.886 310.737 63.886Z" fill="#F5F6FA"/>
<path d="M131.447 0.702148H43.8158V88.9214H131.447V0.702148Z" fill="#FCFCFC"/>
<path d="M131.684 88.9214L175.5 44.8118L131.684 0.702148V88.9214Z" fill="#CBDAF7"/>
<path d="M43.8158 88.9214L0 44.8118L43.8158 0.702148V88.9214Z" fill="#CBDAF7"/>
<path d="M131.684 0.702148L87.6316 44.8118L43.8158 0.702148H131.684Z" fill="#CBDAF7"/>
<path d="M43.8158 88.9216L87.6316 44.8118L131.684 88.9216H43.8158Z" fill="#CBDAF7"/>
</svg>
