<svg width="257" height="239" viewBox="0 0 257 239" fill="none" xmlns="http://www.w3.org/2000/svg">
<g id="learn">
<path id="big-circle" d="M131.559 236.465C130.31 236.465 129.048 236.445 127.809 236.407L127.837 235.509C129.616 235.564 131.431 235.579 133.218 235.555L133.231 236.454C132.674 236.461 132.117 236.465 131.559 236.465ZM138.649 236.257L138.597 235.359C140.378 235.254 142.182 235.107 143.959 234.921L144.053 235.815C142.263 236.002 140.445 236.151 138.649 236.257V236.257ZM122.395 236.117C120.599 235.979 118.783 235.799 116.999 235.581L117.109 234.688C118.88 234.905 120.681 235.084 122.464 235.22L122.395 236.117ZM149.431 235.128L149.296 234.239C151.066 233.971 152.85 233.66 154.596 233.313L154.771 234.195C153.012 234.544 151.215 234.858 149.431 235.128V235.128ZM111.635 234.799C109.86 234.499 108.069 234.154 106.311 233.773L106.502 232.894C108.246 233.272 110.024 233.615 111.785 233.912L111.635 234.799ZM160.064 233.018L159.848 232.145C161.585 231.716 163.333 231.242 165.041 230.736L165.297 231.599C163.575 232.108 161.815 232.586 160.064 233.018V233.018ZM101.04 232.503C99.2992 232.04 97.5474 231.532 95.8333 230.991L96.1046 230.134C97.8058 230.671 99.5441 231.175 101.271 231.633L101.04 232.503ZM170.458 229.94L170.163 229.091C171.849 228.505 173.545 227.873 175.204 227.21L175.538 228.045C173.866 228.713 172.158 229.35 170.458 229.94L170.458 229.94ZM90.6886 229.235C88.998 228.615 87.2968 227.946 85.6327 227.246L85.9823 226.417C87.6336 227.111 89.3216 227.776 90.9995 228.392L90.6886 229.235ZM180.513 225.923L180.14 225.105C181.76 224.37 183.387 223.586 184.978 222.774L185.388 223.575C183.785 224.393 182.145 225.183 180.513 225.923V225.923ZM80.6756 225.027C79.0505 224.254 77.4193 223.431 75.8278 222.582L76.2522 221.789C77.8318 222.632 79.4503 223.448 81.0631 224.215L80.6756 225.027ZM190.149 221.006L189.703 220.225C191.256 219.34 192.806 218.411 194.31 217.461L194.791 218.221C193.276 219.178 191.714 220.115 190.149 221.006V221.006ZM71.0989 219.919C69.5532 219.001 68.0053 218.033 66.4985 217.042L66.9941 216.291C68.4892 217.274 70.0253 218.235 71.5594 219.146L71.0989 219.919ZM199.301 215.226L198.785 214.489C200.248 213.469 201.707 212.401 203.122 211.315L203.671 212.028C202.245 213.122 200.774 214.198 199.301 215.226ZM62.0359 213.959C60.5823 212.905 59.1302 211.801 57.7197 210.677L58.2817 209.974C59.6814 211.09 61.1225 212.186 62.5649 213.232L62.0359 213.959ZM207.891 208.634L207.311 207.947C208.674 206.799 210.03 205.602 211.343 204.391L211.954 205.051C210.631 206.272 209.265 207.477 207.891 208.634V208.634ZM53.5588 207.202C52.205 206.018 50.86 204.787 49.5614 203.543L50.185 202.894C51.4739 204.129 52.8086 205.351 54.152 206.526L53.5588 207.202ZM215.85 201.285L215.208 200.654C216.465 199.383 217.708 198.068 218.901 196.745L219.571 197.347C218.368 198.68 217.116 200.005 215.85 201.285V201.285ZM45.736 199.707C44.4939 198.403 43.2673 197.055 42.09 195.701L42.7703 195.112C43.9385 196.456 45.1557 197.793 46.3886 199.087L45.736 199.707ZM223.109 193.242L222.413 192.671C223.548 191.293 224.665 189.87 225.735 188.442L226.456 188.98C225.379 190.419 224.252 191.853 223.109 193.242ZM38.6312 191.535C37.5157 190.128 36.4174 188.676 35.3667 187.218L36.0975 186.692C37.1404 188.139 38.2303 189.581 39.3374 190.978L38.6312 191.535ZM229.606 184.569L228.861 184.064C229.865 182.587 230.849 181.068 231.784 179.547L232.552 180.017C231.609 181.55 230.618 183.081 229.606 184.569ZM32.3038 182.757C31.3225 181.255 30.362 179.71 29.4489 178.163L30.2246 177.706C31.1309 179.241 32.0841 180.775 33.058 182.265L32.3038 182.757ZM235.287 175.335L234.499 174.9C235.363 173.338 236.203 171.734 236.996 170.132L237.803 170.531C237.005 172.144 236.158 173.761 235.287 175.335V175.335ZM26.808 173.444C25.968 171.859 25.1536 170.233 24.3874 168.612L25.2018 168.228C25.9623 169.837 26.7704 171.451 27.6039 173.024L26.808 173.444ZM240.096 165.615L239.271 165.254C239.989 163.618 240.678 161.942 241.32 160.274L242.16 160.596C241.514 162.277 240.819 163.966 240.096 165.615V165.615ZM22.1919 163.675C21.5014 162.021 20.8403 160.328 20.2268 158.644L21.0733 158.337C21.682 160.008 22.3381 161.687 23.023 163.329L22.1919 163.675ZM243.991 155.486L243.136 155.203C243.698 153.512 244.228 151.784 244.712 150.067L245.579 150.31C245.091 152.041 244.557 153.782 243.991 155.486L243.991 155.486ZM18.492 153.515C17.9562 151.802 17.4526 150.052 16.9955 148.312L17.8666 148.084C18.3203 149.81 18.82 151.547 19.3517 153.248L18.492 153.515ZM246.926 145.066L246.049 144.862C246.452 143.13 246.82 141.36 247.145 139.603L248.03 139.766C247.704 141.537 247.332 143.319 246.926 145.066L246.926 145.066ZM15.7413 143.046C15.3658 141.29 15.0258 139.501 14.7312 137.728L15.6195 137.58C15.9121 139.34 16.2494 141.115 16.6221 142.858L15.7413 143.046ZM248.889 134.422L247.996 134.3C248.238 132.539 248.443 130.743 248.604 128.963L249.501 129.043C249.338 130.838 249.132 132.647 248.889 134.422L248.889 134.422ZM13.9665 132.369C13.7541 130.589 13.5797 128.776 13.448 126.981L14.3464 126.915C14.4768 128.697 14.6501 130.496 14.8609 132.263L13.9665 132.369ZM249.868 123.643L248.968 123.603C249.048 121.822 249.089 120.015 249.089 118.233H249.99C249.99 120.028 249.949 121.849 249.868 123.643L249.868 123.643ZM13.1751 121.575C13.1444 120.472 13.1288 119.348 13.1285 118.233C13.1285 117.541 13.1345 116.85 13.1464 116.161L14.047 116.177C14.0351 116.861 14.0291 117.546 14.0291 118.233C14.0294 119.339 14.045 120.456 14.0753 121.55L13.1751 121.575ZM249.082 116.978C249.064 115.196 249.004 113.389 248.905 111.608L249.804 111.558C249.904 113.352 249.964 115.173 249.983 116.969L249.082 116.978ZM14.2607 110.809L13.3619 110.753C13.4742 108.956 13.6295 107.142 13.8227 105.36L14.7181 105.457C14.5261 107.225 14.3724 109.026 14.2607 110.809V110.809ZM248.484 106.253C248.304 104.48 248.08 102.687 247.819 100.922L248.71 100.791C248.973 102.569 249.199 104.376 249.38 106.162L248.484 106.253ZM15.4192 100.131L14.5292 99.9934C14.8051 98.2147 15.1257 96.422 15.4821 94.6644L16.3647 94.8426C16.0112 96.5869 15.693 98.366 15.4192 100.131V100.131ZM246.91 95.6283C246.567 93.8744 246.179 92.1089 245.758 90.3809L246.633 90.1684C247.057 91.9096 247.448 93.6887 247.794 95.4557L246.91 95.6283ZM17.5525 89.6036L16.6789 89.385C17.1163 87.6437 17.6007 85.8878 18.1187 84.166L18.981 84.4246C18.4672 86.1332 17.9865 87.8757 17.5525 89.6036ZM244.365 85.192C243.863 83.48 243.314 81.758 242.734 80.073L243.585 79.7806C244.17 81.4785 244.723 83.2142 245.229 84.9391L244.365 85.192ZM20.6528 79.3028L19.8032 79.0047C20.4017 77.305 21.0479 75.5972 21.7238 73.9287L22.5589 74.2659C21.888 75.9214 21.2467 77.6163 20.6528 79.3028H20.6528ZM240.868 75.0344C240.211 73.3798 239.507 71.7192 238.776 70.0986L239.598 69.7293C240.334 71.3625 241.043 73.0358 241.705 74.703L240.868 75.0344ZM24.695 69.3239L23.8766 68.9485C24.6288 67.3132 25.4293 65.6733 26.2561 64.0744L27.0564 64.4866C26.2359 66.0734 25.4414 67.7008 24.695 69.3239ZM236.46 65.2619C235.654 63.6746 234.8 62.0841 233.922 60.535L234.705 60.092C235.591 61.6532 236.451 63.2558 237.263 64.8554L236.46 65.2619ZM29.638 59.7641L28.8574 59.3154C29.7558 57.758 30.7033 56.1991 31.6736 54.6822L32.4326 55.166C31.4698 56.6714 30.5294 58.2185 29.638 59.7641H29.638ZM231.169 55.9271C230.217 54.4147 229.221 52.9079 228.207 51.4487L228.947 50.9363C229.968 52.4068 230.973 53.9249 231.931 55.449L231.169 55.9271ZM35.4348 50.7017L34.6987 50.1836C35.7369 48.7136 36.8224 47.2484 37.9258 45.8286L38.6373 46.3795C37.5425 47.7888 36.4649 49.2428 35.4348 50.7017ZM225.043 47.1087C223.957 45.6896 222.827 44.2788 221.682 42.9157L222.373 42.3382C223.526 43.7119 224.665 45.1332 225.759 46.563L225.043 47.1087ZM42.0333 42.2091L41.3477 41.6261C42.5128 40.2599 43.7272 38.9 44.957 37.5843L45.6153 38.1976C44.395 39.5034 43.1899 40.8532 42.0333 42.2091ZM218.135 38.8787C216.925 37.5641 215.67 36.2611 214.405 35.0063L215.04 34.3685C216.314 35.633 217.579 36.9457 218.798 38.2702L218.135 38.8787ZM49.3754 34.3544L48.7457 33.7117C50.0335 32.4539 51.3661 31.2104 52.7063 30.0158L53.3061 30.6867C51.9761 31.872 50.6535 33.1061 49.3754 34.3544H49.3754ZM210.503 31.3065C209.177 30.1061 207.808 28.922 206.434 27.7874L207.009 27.0946C208.393 28.2378 209.772 29.4308 211.108 30.6406L210.503 31.3065ZM57.3991 27.2013L56.8305 26.5041C58.2234 25.3717 59.663 24.2548 61.1093 23.1845L61.6458 23.9067C60.2102 24.9691 58.7815 26.0774 57.3991 27.2013ZM202.209 24.4559C200.779 23.3805 199.307 22.3254 197.835 21.3198L198.343 20.5778C199.827 21.5909 201.31 22.654 202.751 23.7377L202.209 24.4559ZM66.037 20.8099L65.5343 20.064C67.0251 19.0626 68.5598 18.082 70.0961 17.1489L70.564 17.9172C69.0396 18.843 67.5165 19.8164 66.037 20.8099ZM193.32 18.3863C191.798 17.4459 190.235 16.5293 188.675 15.6613L189.113 14.8759C190.686 15.7504 192.26 16.6743 193.794 17.6215L193.32 18.3863ZM75.2177 15.2348L74.7854 14.4459C76.3626 13.5843 77.9798 12.7484 79.5919 11.961L79.9877 12.7688C78.3879 13.5501 76.783 14.3796 75.2177 15.2348L75.2177 15.2348ZM183.908 13.1517C182.306 12.3546 180.664 11.5846 179.029 10.8631L179.393 10.0408C181.041 10.7678 182.695 11.5438 184.31 12.3469L183.908 13.1517ZM84.8641 10.5244L84.5061 9.69945C86.1544 8.98627 87.8403 8.30228 89.5171 7.66636L89.8368 8.50707C88.1728 9.13794 86.4997 9.81666 84.8641 10.5244L84.8641 10.5244ZM174.048 8.80056C172.381 8.15499 170.674 7.53905 168.975 6.97009L169.262 6.11752C170.973 6.6911 172.693 7.31165 174.373 7.96249L174.048 8.80056ZM94.9098 6.71611L94.6292 5.86178C96.3407 5.3016 98.087 4.77412 99.8192 4.29449L100.06 5.16067C98.3409 5.63677 96.6081 6.16006 94.9098 6.7161L94.9098 6.71611ZM163.835 5.3793C162.118 4.89046 160.366 4.43519 158.628 4.02625L158.835 3.15129C160.586 3.56331 162.351 4.02208 164.082 4.51444L163.835 5.3793ZM105.277 3.84384L105.076 2.96734C106.831 2.56717 108.618 2.20257 110.388 1.88385L110.548 2.76847C108.791 3.08499 107.018 3.44673 105.277 3.84382V3.84384ZM153.364 2.91466C151.61 2.58606 149.824 2.29368 148.054 2.04562L148.179 1.1553C149.962 1.40532 151.763 1.6999 153.53 2.03092L153.364 2.91466ZM115.864 1.93631L115.745 1.0451C117.528 0.807594 119.341 0.607844 121.134 0.452002L121.212 1.3476C119.433 1.50255 117.634 1.70055 115.864 1.9363L115.864 1.93631ZM142.71 1.42047C140.936 1.25364 139.13 1.125 137.343 1.03874L137.387 0.14052C139.188 0.227647 141.007 0.357184 142.794 0.525311L142.71 1.42047ZM126.582 1.00274L126.545 0.104521C128.2 0.0355904 129.887 0.00047015 131.559 3.05176e-05L131.967 0.000670851L131.964 0.899784L131.559 0.899119C129.9 0.899559 128.225 0.934458 126.582 1.00273V1.00274Z" fill="#E6E6E6"/>
<path id="Vector" d="M131.842 235.851V186.687C131.843 185.998 132.118 185.337 132.605 184.85C133.093 184.363 133.755 184.089 134.444 184.089H140.353C141.043 184.089 141.705 184.363 142.192 184.85C142.68 185.337 142.955 185.998 142.956 186.687V235.851C142.955 236.54 142.68 237.2 142.192 237.687C141.705 238.174 141.043 238.448 140.353 238.449H134.444C133.755 238.448 133.093 238.174 132.605 237.687C132.118 237.2 131.843 236.54 131.842 235.851V235.851Z" fill="#2F2E41"/>
<path id="Vector_2" d="M120.156 235.851V186.687C120.156 185.998 120.431 185.337 120.919 184.85C121.406 184.363 122.068 184.089 122.758 184.089H128.667C129.357 184.089 130.018 184.363 130.506 184.85C130.994 185.337 131.268 185.998 131.269 186.687V235.851C131.268 236.54 130.994 237.2 130.506 237.687C130.018 238.174 129.357 238.448 128.667 238.449H122.758C122.068 238.448 121.406 238.174 120.919 237.687C120.431 237.2 120.156 236.54 120.156 235.851V235.851Z" fill="#2F2E41"/>
<path id="Vector_3" d="M143.517 170.455H119.594C118.267 170.455 117.192 171.529 117.192 172.853V199.833C117.192 201.157 118.267 202.231 119.594 202.231H143.517C144.844 202.231 145.919 201.157 145.919 199.833V172.853C145.919 171.529 144.844 170.455 143.517 170.455Z" fill="#2F2E41"/>
<path id="Vector_4" d="M91.336 93.2122C91.336 93.2122 79.2624 98.8116 69.0454 102.525C62.7052 88.2367 53.5713 88.7714 53.5713 88.7714L48.0337 92.578L49.0323 98.2875L48.7599 107.622L47.3074 112.516L49.3917 112.892L50.5692 113.105L50.7467 112.945C50.4529 114.107 50.334 115.307 50.394 116.504L102.774 108.347C102.774 108.347 100.959 99.9189 91.336 93.2122Z" fill="#E6E6E6"/>
<path id="Vector_5" d="M75.8685 166.703L79.3804 171.447C80.1689 172.512 81.6729 172.737 82.7398 171.95L122.344 142.729C123.411 141.942 123.637 140.44 122.848 139.375L119.336 134.631C118.548 133.566 117.044 133.341 115.977 134.128L76.3726 163.349C75.3057 164.136 75.08 165.638 75.8685 166.703Z" fill="#AE6E79"/>
<path id="Vector_6" d="M143.353 133.02L138.134 135.785C136.962 136.406 136.516 137.857 137.138 139.027L160.223 182.455C160.845 183.625 162.299 184.07 163.471 183.45L168.69 180.684C169.862 180.063 170.308 178.612 169.686 177.442L146.601 134.014C145.979 132.844 144.525 132.399 143.353 133.02Z" fill="#AE6E79"/>
<path id="Vector_7" d="M157.985 152.294L149.461 157.935C148.158 158.625 146.598 158.236 145.976 157.067L136.562 139.357C135.94 138.187 136.492 136.679 137.795 135.989L143.597 132.915C144.899 132.225 146.459 132.614 147.081 133.784L159.218 148.926C159.839 150.096 159.288 151.604 157.985 152.294Z" fill="#CCCCCC"/>
<path id="Vector_8" d="M99.8963 147.106L105.437 154.451C105.873 154.915 106.475 155.187 107.112 155.207C107.749 155.227 108.367 154.994 108.832 154.559L123.475 140.838C123.939 140.402 124.212 139.801 124.232 139.165C124.252 138.529 124.018 137.912 123.582 137.448L119.538 133.147C119.102 132.683 118.5 132.411 117.863 132.391C117.226 132.371 116.608 132.604 116.143 133.04L100.004 143.716C99.5393 144.152 99.267 144.753 99.2469 145.389C99.2267 146.025 99.4603 146.642 99.8963 147.106V147.106Z" fill="#CCCCCC"/>
<path id="Vector_9" d="M144.979 132.313H118.132C116.805 132.313 115.73 133.387 115.73 134.711V191.654C115.73 192.978 116.805 194.052 118.132 194.052H144.979C146.306 194.052 147.381 192.978 147.381 191.654V134.711C147.381 133.387 146.306 132.313 144.979 132.313Z" fill="#CCCCCC"/>
<path id="Vector_10" d="M131.399 128.597C143.232 128.597 152.824 119.02 152.824 107.207C152.824 95.394 143.232 85.8174 131.399 85.8174C119.566 85.8174 109.973 95.394 109.973 107.207C109.973 119.02 119.566 128.597 131.399 128.597Z" fill="#AE6E79"/>
<path id="Vector_11" d="M133.896 114.349C132.572 114.312 130.925 114.266 129.657 113.341C129.279 113.054 128.968 112.688 128.747 112.269C128.526 111.849 128.399 111.387 128.376 110.913C128.353 110.577 128.408 110.24 128.537 109.929C128.666 109.617 128.866 109.34 129.12 109.118C129.783 108.559 130.751 108.427 131.794 108.734L130.713 100.85L131.507 100.741L132.777 110.01L132.114 109.707C131.347 109.355 130.292 109.176 129.637 109.728C129.476 109.873 129.351 110.052 129.271 110.253C129.191 110.454 129.159 110.67 129.176 110.885C129.195 111.238 129.29 111.582 129.455 111.894C129.619 112.206 129.849 112.48 130.129 112.695C131.115 113.415 132.429 113.508 133.919 113.55L133.896 114.349Z" fill="#2F2E41"/>
<path id="Vector_12" d="M126.79 101.53H122.478V102.329H126.79V101.53Z" fill="#2F2E41"/>
<path id="Vector_13" d="M140.402 101.53H136.09V102.329H140.402V101.53Z" fill="#2F2E41"/>
<path id="Vector_14" d="M117.245 90.492C113.772 90.0967 111.083 86.7751 110.787 83.4048C110.436 79.3953 112.775 75.5872 115.983 73.3372C119.339 70.9843 123.52 70.0017 127.565 69.7854C135.456 69.3934 143.212 71.9453 149.323 76.9449C152.354 79.4582 155.185 82.6596 156.257 86.5266C157.189 89.8849 156.431 93.6895 153.725 96.0416C153.056 96.618 152.275 97.0496 151.43 97.3093C150.585 97.5689 149.695 97.6509 148.817 97.5502C146.718 97.3326 144.781 96.2306 143.104 95.0135C139.843 92.6462 137.165 89.3482 133.192 88.1111C130.278 87.204 126.498 88.0024 124.717 90.6327C124.313 91.2349 124.051 91.9207 123.951 92.6385C123.915 92.7916 123.937 92.953 124.015 93.0899C124.093 93.2268 124.22 93.3291 124.371 93.376C124.524 93.4173 124.688 93.3965 124.826 93.3181C124.965 93.2397 125.066 93.1101 125.11 92.9573C125.577 89.6443 129.657 88.4081 132.521 89.1646C136.696 90.2678 139.498 93.9871 142.924 96.3501C144.724 97.5924 146.773 98.5858 148.982 98.764C150.886 98.9132 152.775 98.3336 154.267 97.143C157.194 94.8361 158.313 90.8684 157.666 87.2962C156.916 83.1595 154.127 79.6141 151.067 76.8692C144.864 71.3634 136.81 68.3932 128.511 68.5505C124.278 68.6475 119.861 69.5199 116.214 71.7535C112.677 73.92 109.943 77.5446 109.586 81.7579C109.271 85.4663 111.264 89.3452 114.686 90.9699C115.492 91.3513 116.357 91.5951 117.245 91.691C118.011 91.7783 118.005 90.5786 117.245 90.492H117.245Z" fill="#2F2E41"/>
<path id="Vector_15" d="M50.5301 112.38L53.072 111.565C53.3443 111.044 52.8459 111.378 53.0838 110.871C59.5147 97.1745 53.5713 88.7714 53.5713 88.7714L48.9735 91.9319C48.9622 91.9059 48.9529 91.879 48.9414 91.8529C48.9415 91.8529 48.1244 90.0403 46.8535 91.3997C46.8535 91.3997 50.8479 101.097 46.3996 113.151L51.5741 115.507L53.5713 113.151L53.6167 112.924L50.0424 112.6L50.5301 112.38Z" fill="#CCCCCC"/>
<path id="Vector_16" d="M123.018 163.268C102.593 158.737 83.5742 168.117 83.5742 168.117L83.5225 168.071L75.9486 161.32L46.3542 113.105L53.5713 113.151C73.6337 101.188 101.866 102.819 101.866 102.819C114.031 116.595 123.018 163.268 123.018 163.268Z" fill="#3F3D56"/>
<path id="Vector_17" opacity="0.1" d="M83.5225 168.071L75.9486 161.32L46.3542 113.105L53.5713 113.151C53.5713 113.151 82.336 151.078 83.5225 168.071Z" fill="black"/>
<path id="Vector_18" d="M86.8464 130.451C93.0297 128.558 97.065 123.842 95.8595 119.918C94.6539 115.994 88.664 114.348 82.4807 116.242C76.2974 118.135 72.2621 122.851 73.4677 126.775C74.6733 130.699 80.6631 132.345 86.8464 130.451Z" fill="#2948FF"/>
<g id="left-flower">
<path id="Vector_19" d="M23.6244 89.728C21.9935 95.7467 16.4073 99.4742 16.4073 99.4742C16.4073 99.4742 13.4653 93.4436 15.0962 87.4249C16.7271 81.4062 22.3133 77.6787 22.3133 77.6787C22.3133 77.6787 25.2553 83.7094 23.6244 89.728Z" fill="#CCCCCC"/>
<path id="Vector_20" d="M8.78782 89.728C10.4187 95.7467 16.0049 99.4742 16.0049 99.4742C16.0049 99.4742 18.9469 93.4436 17.316 87.4249C15.6851 81.4062 10.0989 77.6787 10.0989 77.6787C10.0989 77.6787 7.15693 83.7094 8.78782 89.728Z" fill="#CCCCCC"/>
<path id="Vector_21" d="M11.1843 88.4346C15.6595 92.7837 16.2061 99.4693 16.2061 99.4693C16.2061 99.4693 9.497 99.1036 5.0218 94.7545C0.546608 90.4053 0 83.7197 0 83.7197C0 83.7197 6.7091 84.0854 11.1843 88.4346Z" fill="#3F3D56"/>
<path id="Vector_22" d="M21.2279 88.4346C16.7527 92.7837 16.2061 99.4693 16.2061 99.4693C16.2061 99.4693 22.9152 99.1036 27.3904 94.7545C31.8656 90.4053 32.4122 83.7197 32.4122 83.7197C32.4122 83.7197 25.7031 84.0854 21.2279 88.4346Z" fill="#3F3D56"/>
</g>
<g id="right-flower">
<path id="Vector_23" d="M248.212 157.671C246.581 163.69 240.995 167.417 240.995 167.417C240.995 167.417 238.053 161.387 239.684 155.368C241.315 149.349 246.901 145.622 246.901 145.622C246.901 145.622 249.843 151.653 248.212 157.671Z" fill="#CCCCCC"/>
<path id="Vector_24" d="M233.376 157.671C235.007 163.69 240.593 167.417 240.593 167.417C240.593 167.417 243.535 161.387 241.904 155.368C240.273 149.349 234.687 145.622 234.687 145.622C234.687 145.622 231.745 151.653 233.376 157.671Z" fill="#CCCCCC"/>
<path id="Vector_25" d="M235.772 156.378C240.247 160.727 240.794 167.412 240.794 167.412C240.794 167.412 234.085 167.047 229.61 162.698C225.134 158.348 224.588 151.663 224.588 151.663C224.588 151.663 231.297 152.029 235.772 156.378Z" fill="#3F3D56"/>
<path id="Vector_26" d="M245.816 156.378C241.34 160.727 240.794 167.412 240.794 167.412C240.794 167.412 247.503 167.047 251.978 162.698C256.453 158.348 257 151.663 257 151.663C257 151.663 250.291 152.029 245.816 156.378Z" fill="#3F3D56"/>
</g>
<path id="Vector_27" d="M178.534 238.201H85.6567V239H178.534V238.201Z" fill="#3F3D56"/>
</g>
</svg>
