<svg width="269" height="178" viewBox="0 0 269 178" fill="none" xmlns="http://www.w3.org/2000/svg">
<g id="mobile" clip-path="url(#clip0)">
<path id="Vector" d="M196.665 178C189.228 176.834 182.076 175.843 175.212 175.026L177.855 169.733C176.937 169.427 172.961 172.489 172.961 172.489L176.326 157.18C171.738 157.792 169.597 173.407 169.597 173.407L164.397 168.202L166.957 174.095C145.95 171.886 127.824 171.196 112.586 171.354L114.849 166.824C113.931 166.518 109.955 169.58 109.955 169.58L113.32 154.271C108.732 154.883 106.591 170.499 106.591 170.499L101.391 165.293L104.102 171.535C93.6645 171.839 83.2494 172.678 72.8979 174.051C75.1556 167.01 83.0398 160.241 83.0398 160.241C76.9776 162.129 73.8237 165.205 72.1913 168.057C71.8611 153.591 74.0841 139.181 78.7578 125.49C78.7578 125.49 66.5236 153.046 68.3587 171.417L68.5916 174.68C57.948 176.343 52.6072 178 52.6072 178H196.665Z" fill="#3F3D56"/>
<path id="Vector_2" d="M224.704 140.075C223.978 140.075 223.268 139.859 222.665 139.456C222.061 139.052 221.591 138.478 221.313 137.807C221.035 137.135 220.962 136.397 221.104 135.684C221.246 134.971 221.595 134.316 222.108 133.803C222.622 133.289 223.276 132.939 223.988 132.797C224.7 132.655 225.438 132.728 226.108 133.006C226.779 133.284 227.352 133.755 227.755 134.359C228.159 134.964 228.374 135.674 228.374 136.401C228.373 137.375 227.986 138.309 227.298 138.997C226.61 139.686 225.677 140.074 224.704 140.075V140.075ZM224.704 133.339C224.099 133.339 223.507 133.518 223.004 133.855C222.501 134.191 222.109 134.669 221.878 135.229C221.646 135.788 221.586 136.404 221.704 136.998C221.822 137.592 222.113 138.137 222.541 138.566C222.969 138.994 223.514 139.285 224.107 139.404C224.7 139.522 225.315 139.461 225.874 139.229C226.433 138.998 226.911 138.605 227.247 138.102C227.583 137.598 227.762 137.006 227.762 136.401C227.761 135.589 227.439 134.811 226.865 134.237C226.292 133.663 225.515 133.34 224.704 133.339V133.339Z" fill="#3F3D56"/>
<path id="Vector_3" d="M254.013 177.518H247.975V171.474H254.013V177.518ZM248.44 177.053H253.549V171.938H248.44V177.053Z" fill="#3F3D56"/>
<path id="Vector_4" d="M49.5926 177.849L45.4742 173.429L49.8896 169.306L54.008 173.726L49.5926 177.849ZM46.1307 173.451L49.6155 177.192L53.3516 173.703L49.8668 169.963L46.1307 173.451Z" fill="#3F3D56"/>
<path id="Vector_5" d="M269 177.177H6.6286V177.789H269V177.177Z" fill="#3F3D56"/>
<path id="Vector_6" d="M169.283 40.9551V61.0653C169.283 61.2511 169.209 61.4291 169.078 61.5605C168.947 61.6919 168.769 61.7659 168.583 61.7664H168.085V166.527C168.084 169.426 166.934 172.206 164.886 174.256C162.839 176.306 160.061 177.458 157.165 177.458H91.7766C90.3429 177.458 88.9232 177.175 87.5987 176.625C86.2742 176.076 85.0707 175.271 84.057 174.256C83.0434 173.241 82.2394 172.036 81.6909 170.71C81.1425 169.384 80.8603 167.962 80.8606 166.527V65.4406H80.4997C80.3687 65.4408 80.2431 65.389 80.1502 65.2966C80.0573 65.2042 80.0048 65.0788 80.0042 64.9477V53.5025C80.0042 53.4374 80.017 53.3729 80.0419 53.3127C80.0668 53.2525 80.1033 53.1978 80.1493 53.1518C80.1953 53.1057 80.2499 53.0692 80.3101 53.0442C80.3702 53.0193 80.4346 53.0065 80.4997 53.0065H80.8606V48.6954H80.4966C80.3592 48.6949 80.2275 48.6398 80.1306 48.5422C80.0337 48.4446 79.9795 48.3125 79.9797 48.1749V36.886C79.9801 36.7488 80.0347 36.6174 80.1315 36.5205C80.2284 36.4235 80.3596 36.3689 80.4966 36.3685H80.8606V30.4837H80.4905C80.4302 30.4837 80.3705 30.4719 80.3148 30.4489C80.2591 30.4258 80.2085 30.392 80.1659 30.3493C80.1233 30.3066 80.0895 30.256 80.0665 30.2002C80.0435 30.1445 80.0316 30.0847 80.0317 30.0244V23.864C80.0314 23.7418 80.0796 23.6245 80.1656 23.5378C80.2516 23.4511 80.3685 23.4022 80.4905 23.4016H80.8606V10.9277C80.8607 8.02953 82.0108 5.25009 84.0579 3.20078C86.1051 1.15146 88.8815 0.000120818 91.7766 1.52589e-05H157.165C160.061 2.15675e-06 162.838 1.15121 164.885 3.20046C166.933 5.24971 168.084 8.02921 168.085 10.9277V40.254H168.583C168.769 40.2545 168.947 40.3285 169.078 40.4599C169.209 40.5913 169.283 40.7693 169.283 40.9551V40.9551Z" fill="#3F3D56"/>
<path id="Vector_7" d="M127.621 5.60522H116.996C116.567 5.60522 116.219 5.95367 116.219 6.38351V7.30287C116.219 7.7327 116.567 8.08115 116.996 8.08115H127.621C128.051 8.08115 128.399 7.7327 128.399 7.30287V6.38351C128.399 5.95367 128.051 5.60522 127.621 5.60522Z" fill="#E6E8EC"/>
<path id="Vector_8" d="M131.643 8.24754C132.418 8.24754 133.046 7.61879 133.046 6.84318C133.046 6.06758 132.418 5.43883 131.643 5.43883C130.869 5.43883 130.24 6.06758 130.24 6.84318C130.24 7.61879 130.869 8.24754 131.643 8.24754Z" fill="#E6E8EC"/>
<path id="Vector_9" d="M162.856 13.0895V167.434C162.857 168.437 162.64 169.429 162.219 170.34C161.799 171.251 161.185 172.059 160.421 172.709C159.168 173.779 157.575 174.366 155.928 174.366H93.3349C92.2212 174.367 91.1236 174.099 90.1357 173.585C89.9036 173.466 89.6789 173.333 89.4628 173.187C88.522 172.551 87.7515 171.695 87.2187 170.691C86.686 169.688 86.4074 168.57 86.4073 167.434V13.0895C86.4072 12.1788 86.5864 11.2769 86.9345 10.4355C87.2827 9.59411 87.793 8.82958 88.4363 8.18559C89.0795 7.5416 89.8433 7.03077 90.6838 6.68226C91.5243 6.33376 92.4252 6.15441 93.3349 6.15445H102.703V7.35775C102.703 8.87222 103.304 10.3247 104.374 11.3955C105.444 12.4664 106.895 13.0681 108.407 13.0681H140.241C141.754 13.0681 143.205 12.4664 144.274 11.3955C145.344 10.3247 145.945 8.87222 145.945 7.35775V6.15445H155.928C156.838 6.15415 157.739 6.33333 158.58 6.68174C159.42 7.03016 160.184 7.54098 160.828 8.18502C161.471 8.82906 161.981 9.59369 162.329 10.4352C162.677 11.2768 162.856 12.1787 162.856 13.0895Z" fill="#2948FF"/>
<path id="big-blue-circle" opacity="0.3" d="M162.856 145.339V167.434C162.857 168.437 162.64 169.429 162.219 170.34C161.799 171.251 161.185 172.059 160.421 172.709C159.168 173.778 157.575 174.366 155.928 174.366H93.3349C92.2212 174.367 91.1236 174.099 90.1357 173.585C89.9036 173.466 89.6789 173.333 89.4628 173.187C88.522 172.551 87.7515 171.695 87.2187 170.691C86.686 169.688 86.4074 168.57 86.4073 167.434V145.349C96.9031 135.904 110.517 130.678 124.63 130.676C138.743 130.675 152.358 135.897 162.856 145.339Z" fill="white"/>
<path id="medium-blue-circle" opacity="0.3" d="M159.134 173.579C158.145 174.098 157.045 174.369 155.928 174.366H93.3349C92.2212 174.367 91.1236 174.099 90.1356 173.585C92.9693 166.762 97.7579 160.933 103.897 156.832C110.037 152.731 117.252 150.542 124.633 150.541C132.013 150.541 139.229 152.728 145.369 156.828C151.509 160.928 156.299 166.757 159.134 173.579V173.579Z" fill="white"/>
<path id="Vector_10" opacity="0.3" d="M145.511 173.949C144.913 174.264 144.247 174.427 143.571 174.425H105.694C105.02 174.426 104.356 174.264 103.758 173.953C105.473 169.824 108.371 166.297 112.086 163.815C115.801 161.334 120.167 160.009 124.633 160.009C129.1 160.008 133.466 161.332 137.181 163.813C140.897 166.294 143.795 169.821 145.511 173.949V173.949Z" fill="white"/>
<path id="Vector_11" d="M140.554 65.9061C134.276 65.9061 127.385 64.7092 122.006 60.6703C114.516 55.0472 105.288 55.3473 98.8666 56.5895C94.6009 57.4215 90.4605 58.8021 86.5484 60.6969L86.2656 60.1539C90.2254 58.2345 94.4165 56.8353 98.7346 55.9913C105.283 54.7226 114.699 54.4194 122.373 60.1806C136.748 70.9734 162.488 61.2799 162.746 61.181L162.965 61.7527C158.138 63.4751 153.146 64.6917 148.068 65.3831C145.578 65.7232 143.068 65.8979 140.554 65.9061Z" fill="white"/>
<path id="Vector_12" opacity="0.3" d="M86.4039 60.4255C86.4039 60.4255 107.508 55.3085 122.189 62.3146C136.87 69.3207 162.868 62.2626 162.868 62.2626" fill="white"/>
<path id="Vector_13" opacity="0.3" d="M106.328 68.3743C103.778 68.3628 101.236 68.1087 98.7344 67.6152C94.4163 66.7712 90.2253 65.3721 86.2654 63.4526L86.5483 62.9096C90.4604 64.8045 94.6007 66.185 98.8665 67.0171C105.288 68.2591 114.516 68.5593 122.005 62.9362C129.672 57.18 140.411 57.1962 148.068 58.2234C153.146 58.9148 158.138 60.1314 162.965 61.8538L162.746 62.4255C162.488 62.3264 136.748 52.6327 122.373 63.426C117.341 67.2041 111.558 68.3743 106.328 68.3743Z" fill="white"/>
<path id="Vector_14" opacity="0.3" d="M106.432 65.9086C95.8388 65.9086 86.4318 62.1042 86.2907 62.0461L86.5237 61.4797C86.7331 61.5662 107.655 70.0221 122.034 61.4995C136.661 52.8284 162.684 60.5684 162.945 60.6476L162.767 61.2337C162.509 61.1553 136.741 53.493 122.345 62.0263C117.432 64.9385 111.781 65.9086 106.432 65.9086Z" fill="white"/>
<path id="Vector_15" opacity="0.3" d="M86.4073 61.2921C86.4073 61.2921 107.508 68.2982 122.189 61.2921C136.87 54.286 162.856 60.6301 162.856 60.6301" fill="white"/>
<path id="black-leaf" d="M12.734 167.487C16.5353 174.545 24.603 177.574 24.603 177.574C24.603 177.574 26.5076 169.162 22.7063 162.104C18.905 155.047 10.8373 152.018 10.8373 152.018C10.8373 152.018 8.93271 160.43 12.734 167.487Z" fill="#3F3D56"/>
<path id="blue-leaf" d="M15.3468 165.166C22.2097 169.299 24.8528 177.509 24.8528 177.509C24.8528 177.509 16.369 179.018 9.50604 174.884C2.64313 170.751 0 162.541 0 162.541C0 162.541 8.48386 161.032 15.3468 165.166Z" fill="#2948FF"/>
<path id="Vector_16" opacity="0.3" d="M86.4073 60.4255C86.4073 60.4255 107.508 49.4028 122.189 60.4255C136.87 71.4481 162.856 61.467 162.856 61.467" fill="white"/>
<path id="Vector_17" d="M124.713 172.588C126.571 172.588 128.077 171.08 128.077 169.22C128.077 167.36 126.571 165.852 124.713 165.852C122.855 165.852 121.348 167.36 121.348 169.22C121.348 171.08 122.855 172.588 124.713 172.588Z" fill="white"/>
</g>
<defs>
<clipPath id="clip0">
<rect width="269" height="178" fill="white"/>
</clipPath>
</defs>
</svg>
