<svg aria-hidden="true" style="position: absolute; width: 0; height: 0; overflow: hidden;" version="1.1" xmlns="http://www.w3.org/2000/svg" xmlns:xlink="http://www.w3.org/1999/xlink">
<defs>
<symbol id="icon-facebook" viewBox="0 0 32 32">
<path d="M19 6h5v-6h-5c-3.86 0-7 3.14-7 7v3h-4v6h4v16h6v-16h5l1-6h-6v-3c0-0.542 0.458-1 1-1z"></path>
</symbol>
<symbol id="icon-twitter" viewBox="0 0 32 32">
<path d="M32 7.075c-1.175 0.525-2.444 0.875-3.769 1.031 1.356-0.813 2.394-2.1 2.887-3.631-1.269 0.75-2.675 1.3-4.169 1.594-1.2-1.275-2.906-2.069-4.794-2.069-3.625 0-6.563 2.938-6.563 6.563 0 0.512 0.056 1.012 0.169 1.494-5.456-0.275-10.294-2.888-13.531-6.862-0.563 0.969-0.887 2.1-0.887 3.3 0 2.275 1.156 4.287 2.919 5.463-1.075-0.031-2.087-0.331-2.975-0.819 0 0.025 0 0.056 0 0.081 0 3.181 2.263 5.838 5.269 6.437-0.55 0.15-1.131 0.231-1.731 0.231-0.425 0-0.831-0.044-1.237-0.119 0.838 2.606 3.263 4.506 6.131 4.563-2.25 1.762-5.075 2.813-8.156 2.813-0.531 0-1.050-0.031-1.569-0.094 2.913 1.869 6.362 2.95 10.069 2.95 12.075 0 18.681-10.006 18.681-18.681 0-0.287-0.006-0.569-0.019-0.85 1.281-0.919 2.394-2.075 3.275-3.394z"></path>
</symbol>
<symbol id="icon-github" viewBox="0 0 32 32">
<path d="M16 0.395c-8.836 0-16 7.163-16 16 0 7.069 4.585 13.067 10.942 15.182 0.8 0.148 1.094-0.347 1.094-0.77 0-0.381-0.015-1.642-0.022-2.979-4.452 0.968-5.391-1.888-5.391-1.888-0.728-1.849-1.776-2.341-1.776-2.341-1.452-0.993 0.11-0.973 0.11-0.973 1.606 0.113 2.452 1.649 2.452 1.649 1.427 2.446 3.743 1.739 4.656 1.33 0.143-1.034 0.558-1.74 1.016-2.14-3.554-0.404-7.29-1.777-7.29-7.907 0-1.747 0.625-3.174 1.649-4.295-0.166-0.403-0.714-2.030 0.155-4.234 0 0 1.344-0.43 4.401 1.64 1.276-0.355 2.645-0.532 4.005-0.539 1.359 0.006 2.729 0.184 4.008 0.539 3.054-2.070 4.395-1.64 4.395-1.64 0.871 2.204 0.323 3.831 0.157 4.234 1.026 1.12 1.647 2.548 1.647 4.295 0 6.145-3.743 7.498-7.306 7.895 0.574 0.497 1.085 1.47 1.085 2.963 0 2.141-0.019 3.864-0.019 4.391 0 0.426 0.288 0.925 1.099 0.768 6.354-2.118 10.933-8.113 10.933-15.18 0-8.837-7.164-16-16-16z"></path>
</symbol>
<symbol id="icon-github-alt" viewBox="0 0 30 32">
<path d="M11.429 21.714c0 1.304-0.679 3.429-2.286 3.429s-2.286-2.125-2.286-3.429 0.679-3.429 2.286-3.429 2.286 2.125 2.286 3.429zM22.857 21.714c0 1.304-0.679 3.429-2.286 3.429s-2.286-2.125-2.286-3.429 0.679-3.429 2.286-3.429 2.286 2.125 2.286 3.429zM25.714 21.714c0-2.732-1.661-5.143-4.571-5.143-1.179 0-2.304 0.214-3.482 0.375-0.929 0.143-1.857 0.196-2.804 0.196s-1.875-0.054-2.804-0.196c-1.161-0.161-2.304-0.375-3.482-0.375-2.911 0-4.571 2.411-4.571 5.143 0 5.464 5 6.304 9.357 6.304h3c4.357 0 9.357-0.839 9.357-6.304zM29.714 18.571c0 1.982-0.196 4.089-1.089 5.911-2.357 4.768-8.839 5.232-13.482 5.232-4.714 0-11.589-0.411-14.036-5.232-0.911-1.804-1.107-3.929-1.107-5.911 0-2.607 0.714-5.071 2.429-7.071-0.321-0.982-0.482-2.018-0.482-3.036 0-1.339 0.304-2.679 0.911-3.893 2.821 0 4.625 1.232 6.768 2.911 1.804-0.429 3.661-0.625 5.518-0.625 1.679 0 3.375 0.179 5 0.571 2.125-1.661 3.929-2.857 6.714-2.857 0.607 1.214 0.911 2.554 0.911 3.893 0 1.018-0.161 2.036-0.482 3 1.714 2.018 2.429 4.5 2.429 7.107z"></path>
</symbol>
<symbol id="icon-linkedin2" viewBox="0 0 32 32">
<title>Linkedin</title>
<path d="M12 12h5.535v2.837h0.079c0.77-1.381 2.655-2.837 5.464-2.837 5.842 0 6.922 3.637 6.922 8.367v9.633h-5.769v-8.54c0-2.037-0.042-4.657-3.001-4.657-3.005 0-3.463 2.218-3.463 4.509v8.688h-5.767v-18z"></path>
<path d="M2 12h6v18h-6v-18z"></path>
<path d="M8 7c0 1.657-1.343 3-3 3s-3-1.343-3-3c0-1.657 1.343-3 3-3s3 1.343 3 3z"></path>
</symbol>
<symbol id="icon-download3" viewBox="0 0 32 32">
<path d="M23 14l-8 8-8-8h5v-12h6v12zM15 22h-15v8h30v-8h-15zM28 26h-4v-2h4v2z"></path>
</symbol>
</defs>
</svg>
