<svg width="235" height="127" viewBox="0 0 235 127" fill="none" xmlns="http://www.w3.org/2000/svg">
<g id="web-developer" clip-path="url(#clip0)">
<path id="Vector" opacity="0.1" d="M235 81.5165C235.003 84.9666 234.529 88.4005 233.593 91.7206C232.688 94.9214 231.356 97.9855 229.634 100.83C229.634 111.137 222.687 120.045 212.603 124.283C208.389 126.036 203.869 126.932 199.306 126.917H44.6109C36.3428 126.917 28.6807 124.682 22.3969 120.876C20.5985 119.792 18.8925 118.561 17.2963 117.196C10.312 111.185 5.98179 102.877 5.98179 93.7018C2.062 87.6568 -0.0164479 80.6001 -2.54999e-05 73.3923C-2.54999e-05 58.3001 8.91313 45.3228 21.682 39.5933C23.3776 38.8328 25.1296 38.2055 26.9223 37.717C27.5563 37.5442 28.1972 37.3892 28.845 37.2521C30.5718 36.8838 32.3232 36.6431 34.0852 36.532C34.722 36.4922 35.3623 36.4696 36.0059 36.4641H36.3592C37.07 36.4641 37.7746 36.4888 38.4751 36.53L38.7051 36.1391C38.9872 35.6673 39.2762 35.2003 39.572 34.7381C40.1061 33.896 40.6662 33.0662 41.2523 32.2488C41.8658 31.3861 42.5061 30.5371 43.173 29.7018L43.3435 29.4961C43.7215 29.0243 44.1077 28.558 44.5021 28.0972C45.7346 26.6584 47.0356 25.2629 48.405 23.9106C63.2178 9.36975 86.4241 0.00912476 112.512 0.00912476C132.812 0.00912476 151.367 5.67693 165.58 15.0417C170.965 11.99 177.047 10.3888 183.234 10.3943C203.312 10.3943 219.593 26.9286 219.593 47.3245C219.59 48.615 219.522 49.9045 219.388 51.1881C224.228 54.6192 228.173 59.1658 230.89 64.4442C233.607 69.7225 235.017 75.578 235 81.5165Z" fill="#2948FF"/>
<path id="Vector_2" opacity="0.2" d="M48.4092 23.9015V28.0881H44.5062C45.7292 26.6507 47.0301 25.2552 48.4092 23.9015Z" fill="#2948FF"/>
<path id="Vector_3" opacity="0.2" d="M55.5722 22.8399H50.3319V28.088H55.5722V22.8399Z" fill="#2948FF"/>
<path id="Vector_4" opacity="0.2" d="M62.7331 22.8399H57.4929V28.088H62.7331V22.8399Z" fill="#2948FF"/>
<path id="Vector_5" opacity="0.2" d="M69.8961 22.8399H64.6558V28.088H69.8961V22.8399Z" fill="#2948FF"/>
<path id="Vector_6" opacity="0.2" d="M77.057 22.8399H71.8168V28.088H77.057V22.8399Z" fill="#2948FF"/>
<path id="Vector_7" opacity="0.2" d="M84.22 22.8399H78.9797V28.088H84.22V22.8399Z" fill="#2948FF"/>
<path id="Vector_8" d="M91.3829 22.8399H86.1427V28.088H91.3829V22.8399Z" fill="#2948FF"/>
<path id="Vector_9" opacity="0.2" d="M98.5439 22.8399H93.3036V28.088H98.5439V22.8399Z" fill="#2948FF"/>
<path id="Vector_10" opacity="0.2" d="M105.707 22.8399H100.467V28.088H105.707V22.8399Z" fill="#2948FF"/>
<path id="Vector_11" opacity="0.2" d="M112.868 22.8399H107.628V28.088H112.868V22.8399Z" fill="#2948FF"/>
<path id="Vector_12" d="M120.031 22.8399H114.791V28.088H120.031V22.8399Z" fill="#2948FF"/>
<path id="Vector_13" opacity="0.2" d="M127.194 22.8399H121.953V28.088H127.194V22.8399Z" fill="#2948FF"/>
<path id="Vector_14" opacity="0.2" d="M134.355 22.8399H129.114V28.088H134.355V22.8399Z" fill="#2948FF"/>
<path id="Vector_15" opacity="0.2" d="M141.518 22.8399H136.277V28.088H141.518V22.8399Z" fill="#2948FF"/>
<path id="Vector_16" opacity="0.2" d="M148.681 22.8399H143.44V28.088H148.681V22.8399Z" fill="#2948FF"/>
<path id="Vector_17" opacity="0.2" d="M155.842 22.8399H150.601V28.088H155.842V22.8399Z" fill="#2948FF"/>
<path id="Vector_18" opacity="0.2" d="M163.005 22.8399H157.764V28.088H163.005V22.8399Z" fill="#2948FF"/>
<path id="Vector_19" d="M170.165 22.8399H164.925V28.088H170.165V22.8399Z" fill="#2948FF"/>
<path id="Vector_20" d="M177.328 22.8399H172.088V28.088H177.328V22.8399Z" fill="#2948FF"/>
<path id="Vector_21" opacity="0.2" d="M184.491 22.8399H179.251V28.088H184.491V22.8399Z" fill="#2948FF"/>
<path id="Vector_22" opacity="0.2" d="M191.652 22.8399H186.412V28.088H191.652V22.8399Z" fill="#2948FF"/>
<path id="Vector_23" d="M198.815 22.8399H193.575V28.088H198.815V22.8399Z" fill="#2948FF"/>
<path id="Vector_24" d="M205.976 22.8399H200.736V28.088H205.976V22.8399Z" fill="#2948FF"/>
<path id="Vector_25" d="M41.2483 32.2458V34.7351H39.5679C40.102 33.8875 40.6621 33.0578 41.2483 32.2458Z" fill="#2948FF"/>
<path id="Vector_26" opacity="0.2" d="M48.4092 29.487H43.1689V34.7351H48.4092V29.487Z" fill="#2948FF"/>
<path id="Vector_27" d="M55.5722 29.487H50.3319V34.7351H55.5722V29.487Z" fill="#2948FF"/>
<path id="Vector_28" opacity="0.2" d="M62.7331 29.487H57.4929V34.7351H62.7331V29.487Z" fill="#2948FF"/>
<path id="Vector_29" opacity="0.7" d="M69.8961 29.487H64.6558V34.7351H69.8961V29.487Z" fill="#2948FF"/>
<path id="Vector_30" opacity="0.2" d="M77.057 29.487H71.8168V34.7351H77.057V29.487Z" fill="#2948FF"/>
<path id="Vector_31" opacity="0.4" d="M84.22 29.487H78.9797V34.7351H84.22V29.487Z" fill="#2948FF"/>
<path id="Vector_32" d="M91.3829 29.487H86.1427V34.7351H91.3829V29.487Z" fill="#2948FF"/>
<path id="Vector_33" opacity="0.4" d="M98.5439 29.487H93.3036V34.7351H98.5439V29.487Z" fill="#2948FF"/>
<path id="Vector_34" opacity="0.2" d="M105.707 29.487H100.467V34.7351H105.707V29.487Z" fill="#2948FF"/>
<path id="Vector_35" opacity="0.4" d="M112.868 29.487H107.628V34.7351H112.868V29.487Z" fill="#2948FF"/>
<path id="Vector_36" d="M120.031 29.487H114.791V34.7351H120.031V29.487Z" fill="#2948FF"/>
<path id="Vector_37" opacity="0.4" d="M127.194 29.487H121.953V34.7351H127.194V29.487Z" fill="#2948FF"/>
<path id="Vector_38" opacity="0.4" d="M134.355 29.487H129.114V34.7351H134.355V29.487Z" fill="#2948FF"/>
<path id="Vector_39" opacity="0.2" d="M141.518 29.487H136.277V34.7351H141.518V29.487Z" fill="#2948FF"/>
<path id="Vector_40" opacity="0.4" d="M148.681 29.487H143.44V34.7351H148.681V29.487Z" fill="#2948FF"/>
<path id="Vector_41" opacity="0.4" d="M155.842 29.487H150.601V34.7351H155.842V29.487Z" fill="#2948FF"/>
<path id="Vector_42" opacity="0.2" d="M163.005 29.487H157.764V34.7351H163.005V29.487Z" fill="#2948FF"/>
<path id="Vector_43" opacity="0.2" d="M170.165 29.487H164.925V34.7351H170.165V29.487Z" fill="#2948FF"/>
<path id="Vector_44" opacity="0.4" d="M177.328 29.487H172.088V34.7351H177.328V29.487Z" fill="#2948FF"/>
<path id="Vector_45" opacity="0.2" d="M184.491 29.487H179.251V34.7351H184.491V29.487Z" fill="#2948FF"/>
<path id="Vector_46" d="M191.652 29.487H186.412V34.7351H191.652V29.487Z" fill="#2948FF"/>
<path id="Vector_47" d="M198.815 29.487H193.575V34.7351H198.815V29.487Z" fill="#2948FF"/>
<path id="Vector_48" d="M205.976 29.487H200.736V34.7351H205.976V29.487Z" fill="#2948FF"/>
<path id="Vector_49" opacity="0.2" d="M26.9223 37.7161V41.3843H21.6821V39.5924C23.3776 38.8319 25.1297 38.2046 26.9223 37.7161Z" fill="#2948FF"/>
<path id="Vector_50" opacity="0.2" d="M34.0853 36.5311V41.3843H28.845V37.2512L34.0853 36.5311Z" fill="#2948FF"/>
<path id="Vector_51" d="M41.2462 36.1361H36.0059V41.3842H41.2462V36.1361Z" fill="#2948FF"/>
<path id="Vector_52" opacity="0.7" d="M48.4092 36.1361H43.1689V41.3842H48.4092V36.1361Z" fill="#2948FF"/>
<path id="Vector_53" d="M55.5722 36.1361H50.3319V41.3842H55.5722V36.1361Z" fill="#2948FF"/>
<path id="Vector_54" opacity="0.7" d="M62.7331 36.1361H57.4929V41.3842H62.7331V36.1361Z" fill="#2948FF"/>
<path id="Vector_55" opacity="0.7" d="M69.8961 36.1361H64.6558V41.3842H69.8961V36.1361Z" fill="#2948FF"/>
<path id="Vector_56" opacity="0.2" d="M77.057 36.1361H71.8168V41.3842H77.057V36.1361Z" fill="#2948FF"/>
<path id="Vector_57" opacity="0.4" d="M84.22 36.1361H78.9797V41.3842H84.22V36.1361Z" fill="#2948FF"/>
<path id="Vector_58" opacity="0.4" d="M91.3829 36.1361H86.1427V41.3842H91.3829V36.1361Z" fill="#2948FF"/>
<path id="Vector_59" d="M98.5439 36.1361H93.3036V41.3842H98.5439V36.1361Z" fill="#2948FF"/>
<path id="Vector_60" opacity="0.2" d="M105.707 36.1361H100.467V41.3842H105.707V36.1361Z" fill="#2948FF"/>
<path id="Vector_61" opacity="0.4" d="M112.868 36.1361H107.628V41.3842H112.868V36.1361Z" fill="#2948FF"/>
<path id="Vector_62" d="M120.031 36.1361H114.791V41.3842H120.031V36.1361Z" fill="#2948FF"/>
<path id="Vector_63" opacity="0.2" d="M127.194 36.1361H121.953V41.3842H127.194V36.1361Z" fill="#2948FF"/>
<path id="Vector_64" opacity="0.4" d="M134.355 36.1361H129.114V41.3842H134.355V36.1361Z" fill="#2948FF"/>
<path id="Vector_65" opacity="0.2" d="M141.518 36.1361H136.277V41.3842H141.518V36.1361Z" fill="#2948FF"/>
<path id="Vector_66" d="M148.681 36.1361H143.44V41.3842H148.681V36.1361Z" fill="#2948FF"/>
<path id="Vector_67" opacity="0.2" d="M155.842 36.1361H150.601V41.3842H155.842V36.1361Z" fill="#2948FF"/>
<path id="Vector_68" opacity="0.7" d="M163.005 36.1361H157.764V41.3842H163.005V36.1361Z" fill="#2948FF"/>
<path id="Vector_69" opacity="0.7" d="M170.165 36.1361H164.925V41.3842H170.165V36.1361Z" fill="#2948FF"/>
<path id="Vector_70" opacity="0.4" d="M177.328 36.1361H172.088V41.3842H177.328V36.1361Z" fill="#2948FF"/>
<path id="Vector_71" opacity="0.2" d="M184.491 36.1361H179.251V41.3842H184.491V36.1361Z" fill="#2948FF"/>
<path id="Vector_72" d="M191.652 36.1361H186.412V41.3842H191.652V36.1361Z" fill="#2948FF"/>
<path id="Vector_73" d="M198.815 36.1361H193.575V41.3842H198.815V36.1361Z" fill="#2948FF"/>
<path id="Vector_74" d="M205.976 36.1361H200.736V41.3842H205.976V36.1361Z" fill="#2948FF"/>
<path id="Vector_75" opacity="0.2" d="M26.9223 42.7832H21.6821V48.0313H26.9223V42.7832Z" fill="#2948FF"/>
<path id="Vector_76" opacity="0.2" d="M34.0853 42.7832H28.845V48.0313H34.0853V42.7832Z" fill="#2948FF"/>
<path id="Vector_77" opacity="0.2" d="M41.2462 42.7832H36.0059V48.0313H41.2462V42.7832Z" fill="#2948FF"/>
<path id="Vector_78" opacity="0.2" d="M48.4092 42.7832H43.1689V48.0313H48.4092V42.7832Z" fill="#2948FF"/>
<path id="Vector_79" d="M55.5722 42.7832H50.3319V48.0313H55.5722V42.7832Z" fill="#2948FF"/>
<path id="Vector_80" opacity="0.7" d="M62.7331 42.7832H57.4929V48.0313H62.7331V42.7832Z" fill="#2948FF"/>
<path id="Vector_81" opacity="0.7" d="M69.8961 42.7832H64.6558V48.0313H69.8961V42.7832Z" fill="#2948FF"/>
<path id="Vector_82" opacity="0.2" d="M77.057 42.7832H71.8168V48.0313H77.057V42.7832Z" fill="#2948FF"/>
<path id="Vector_83" opacity="0.2" d="M84.22 42.7832H78.9797V48.0313H84.22V42.7832Z" fill="#2948FF"/>
<path id="Vector_84" opacity="0.4" d="M91.3829 42.7832H86.1427V48.0313H91.3829V42.7832Z" fill="#2948FF"/>
<path id="Vector_85" opacity="0.4" d="M98.5439 42.7832H93.3036V48.0313H98.5439V42.7832Z" fill="#2948FF"/>
<path id="Vector_86" d="M105.707 42.7832H100.467V48.0313H105.707V42.7832Z" fill="#2948FF"/>
<path id="Vector_87" opacity="0.2" d="M112.868 42.7832H107.628V48.0313H112.868V42.7832Z" fill="#2948FF"/>
<path id="Vector_88" opacity="0.4" d="M120.031 42.7832H114.791V48.0313H120.031V42.7832Z" fill="#2948FF"/>
<path id="Vector_89" opacity="0.4" d="M127.194 42.7832H121.953V48.0313H127.194V42.7832Z" fill="#2948FF"/>
<path id="Vector_90" opacity="0.4" d="M134.355 42.7832H129.114V48.0313H134.355V42.7832Z" fill="#2948FF"/>
<path id="Vector_91" opacity="0.4" d="M141.518 42.7832H136.277V48.0313H141.518V42.7832Z" fill="#2948FF"/>
<path id="Vector_92" opacity="0.2" d="M148.681 42.7832H143.44V48.0313H148.681V42.7832Z" fill="#2948FF"/>
<path id="Vector_93" opacity="0.2" d="M155.842 42.7832H150.601V48.0313H155.842V42.7832Z" fill="#2948FF"/>
<path id="Vector_94" opacity="0.2" d="M163.005 42.7832H157.764V48.0313H163.005V42.7832Z" fill="#2948FF"/>
<path id="Vector_95" opacity="0.2" d="M170.165 42.7832H164.925V48.0313H170.165V42.7832Z" fill="#2948FF"/>
<path id="Vector_96" opacity="0.7" d="M177.328 42.7832H172.088V48.0313H177.328V42.7832Z" fill="#2948FF"/>
<path id="Vector_97" opacity="0.7" d="M184.491 42.7832H179.251V48.0313H184.491V42.7832Z" fill="#2948FF"/>
<path id="Vector_98" opacity="0.4" d="M191.652 42.7832H186.412V48.0313H191.652V42.7832Z" fill="#2948FF"/>
<path id="Vector_99" opacity="0.2" d="M198.815 42.7832H193.575V48.0313H198.815V42.7832Z" fill="#2948FF"/>
<path id="Vector_100" d="M205.976 42.7832H200.736V48.0313H205.976V42.7832Z" fill="#2948FF"/>
<path id="Vector_101" opacity="0.2" d="M26.9223 49.4323H21.6821V54.6804H26.9223V49.4323Z" fill="#2948FF"/>
<path id="Vector_102" opacity="0.2" d="M34.0853 49.4323H28.845V54.6804H34.0853V49.4323Z" fill="#2948FF"/>
<path id="Vector_103" opacity="0.4" d="M41.2462 49.4323H36.0059V54.6804H41.2462V49.4323Z" fill="#2948FF"/>
<path id="Vector_104" opacity="0.2" d="M48.4092 49.4323H43.1689V54.6804H48.4092V49.4323Z" fill="#2948FF"/>
<path id="Vector_105" opacity="0.2" d="M55.5722 49.4323H50.3319V54.6804H55.5722V49.4323Z" fill="#2948FF"/>
<path id="Vector_106" opacity="0.7" d="M62.7331 49.4323H57.4929V54.6804H62.7331V49.4323Z" fill="#2948FF"/>
<path id="Vector_107" opacity="0.7" d="M69.8961 49.4323H64.6558V54.6804H69.8961V49.4323Z" fill="#2948FF"/>
<path id="Vector_108" opacity="0.2" d="M77.057 49.4323H71.8168V54.6804H77.057V49.4323Z" fill="#2948FF"/>
<path id="Vector_109" opacity="0.2" d="M84.22 49.4323H78.9797V54.6804H84.22V49.4323Z" fill="#2948FF"/>
<path id="Vector_110" opacity="0.4" d="M91.3829 49.4323H86.1427V54.6804H91.3829V49.4323Z" fill="#2948FF"/>
<path id="Vector_111" d="M98.5439 49.4323H93.3036V54.6804H98.5439V49.4323Z" fill="#2948FF"/>
<path id="Vector_112" opacity="0.2" d="M105.707 49.4323H100.467V54.6804H105.707V49.4323Z" fill="#2948FF"/>
<path id="Vector_113" d="M112.868 49.4323H107.628V54.6804H112.868V49.4323Z" fill="#2948FF"/>
<path id="Vector_114" d="M120.031 49.4323H114.791V54.6804H120.031V49.4323Z" fill="#2948FF"/>
<path id="Vector_115" d="M127.194 49.4323H121.953V54.6804H127.194V49.4323Z" fill="#2948FF"/>
<path id="Vector_116" opacity="0.2" d="M134.355 49.4323H129.114V54.6804H134.355V49.4323Z" fill="#2948FF"/>
<path id="Vector_117" d="M141.518 49.4323H136.277V54.6804H141.518V49.4323Z" fill="#2948FF"/>
<path id="Vector_118" opacity="0.2" d="M148.681 49.4323H143.44V54.6804H148.681V49.4323Z" fill="#2948FF"/>
<path id="Vector_119" opacity="0.2" d="M155.842 49.4323H150.601V54.6804H155.842V49.4323Z" fill="#2948FF"/>
<path id="Vector_120" opacity="0.2" d="M163.005 49.4323H157.764V54.6804H163.005V49.4323Z" fill="#2948FF"/>
<path id="Vector_121" opacity="0.2" d="M170.165 49.4323H164.925V54.6804H170.165V49.4323Z" fill="#2948FF"/>
<path id="Vector_122" opacity="0.2" d="M177.328 49.4323H172.088V54.6804H177.328V49.4323Z" fill="#2948FF"/>
<path id="Vector_123" opacity="0.7" d="M184.491 49.4323H179.251V54.6804H184.491V49.4323Z" fill="#2948FF"/>
<path id="Vector_124" opacity="0.2" d="M191.652 49.4323H186.412V54.6804H191.652V49.4323Z" fill="#2948FF"/>
<path id="Vector_125" opacity="0.2" d="M198.815 49.4323H193.575V54.6804H198.815V49.4323Z" fill="#2948FF"/>
<path id="Vector_126" d="M205.976 49.4323H200.736V54.6804H205.976V49.4323Z" fill="#2948FF"/>
<path id="Vector_127" opacity="0.2" d="M26.9223 56.0794H21.6821V61.3275H26.9223V56.0794Z" fill="#2948FF"/>
<path id="Vector_128" opacity="0.2" d="M34.0853 56.0794H28.845V61.3275H34.0853V56.0794Z" fill="#2948FF"/>
<path id="Vector_129" opacity="0.2" d="M41.2462 56.0794H36.0059V61.3275H41.2462V56.0794Z" fill="#2948FF"/>
<path id="Vector_130" opacity="0.4" d="M48.4092 56.0794H43.1689V61.3275H48.4092V56.0794Z" fill="#2948FF"/>
<path id="Vector_131" opacity="0.2" d="M55.5722 56.0794H50.3319V61.3275H55.5722V56.0794Z" fill="#2948FF"/>
<path id="Vector_132" opacity="0.2" d="M62.7331 56.0794H57.4929V61.3275H62.7331V56.0794Z" fill="#2948FF"/>
<path id="Vector_133" opacity="0.7" d="M69.8961 56.0794H64.6558V61.3275H69.8961V56.0794Z" fill="#2948FF"/>
<path id="Vector_134" opacity="0.2" d="M77.057 56.0794H71.8168V61.3275H77.057V56.0794Z" fill="#2948FF"/>
<path id="Vector_135" opacity="0.2" d="M84.22 56.0794H78.9797V61.3275H84.22V56.0794Z" fill="#2948FF"/>
<path id="Vector_136" opacity="0.2" d="M91.3829 56.0794H86.1427V61.3275H91.3829V56.0794Z" fill="#2948FF"/>
<path id="Vector_137" d="M98.5439 56.0794H93.3036V61.3275H98.5439V56.0794Z" fill="#2948FF"/>
<path id="Vector_138" opacity="0.2" d="M105.707 56.0794H100.467V61.3275H105.707V56.0794Z" fill="#2948FF"/>
<path id="Vector_139" d="M112.868 56.0794H107.628V61.3275H112.868V56.0794Z" fill="#2948FF"/>
<path id="Vector_140" d="M120.031 56.0794H114.791V61.3275H120.031V56.0794Z" fill="#2948FF"/>
<path id="Vector_141" opacity="0.2" d="M127.194 56.0794H121.953V61.3275H127.194V56.0794Z" fill="#2948FF"/>
<path id="Vector_142" opacity="0.2" d="M134.355 56.0794H129.114V61.3275H134.355V56.0794Z" fill="#2948FF"/>
<path id="Vector_143" opacity="0.2" d="M141.518 56.0794H136.277V61.3275H141.518V56.0794Z" fill="#2948FF"/>
<path id="Vector_144" opacity="0.2" d="M148.681 56.0794H143.44V61.3275H148.681V56.0794Z" fill="#2948FF"/>
<path id="Vector_145" opacity="0.2" d="M155.842 56.0794H150.601V61.3275H155.842V56.0794Z" fill="#2948FF"/>
<path id="Vector_146" opacity="0.2" d="M163.005 56.0794H157.764V61.3275H163.005V56.0794Z" fill="#2948FF"/>
<path id="Vector_147" opacity="0.2" d="M170.165 56.0794H164.925V61.3275H170.165V56.0794Z" fill="#2948FF"/>
<path id="Vector_148" opacity="0.2" d="M177.328 56.0794H172.088V61.3275H177.328V56.0794Z" fill="#2948FF"/>
<path id="Vector_149" opacity="0.2" d="M184.491 56.0794H179.251V61.3275H184.491V56.0794Z" fill="#2948FF"/>
<path id="Vector_150" opacity="0.2" d="M191.652 56.0794H186.412V61.3275H191.652V56.0794Z" fill="#2948FF"/>
<path id="Vector_151" opacity="0.4" d="M198.815 56.0794H193.575V61.3275H198.815V56.0794Z" fill="#2948FF"/>
<path id="Vector_152" d="M205.976 56.0794H200.736V61.3275H205.976V56.0794Z" fill="#2948FF"/>
<path id="Vector_153" opacity="0.7" d="M26.9223 62.7285H21.6821V67.9766H26.9223V62.7285Z" fill="#2948FF"/>
<path id="Vector_154" opacity="0.7" d="M34.0853 62.7285H28.845V67.9766H34.0853V62.7285Z" fill="#2948FF"/>
<path id="Vector_155" opacity="0.7" d="M41.2462 62.7285H36.0059V67.9766H41.2462V62.7285Z" fill="#2948FF"/>
<path id="Vector_156" opacity="0.7" d="M48.4092 62.7285H43.1689V67.9766H48.4092V62.7285Z" fill="#2948FF"/>
<path id="Vector_157" opacity="0.7" d="M55.5722 62.7285H50.3319V67.9766H55.5722V62.7285Z" fill="#2948FF"/>
<path id="Vector_158" opacity="0.2" d="M62.7331 62.7285H57.4929V67.9766H62.7331V62.7285Z" fill="#2948FF"/>
<path id="Vector_159" opacity="0.2" d="M69.8961 62.7285H64.6558V67.9766H69.8961V62.7285Z" fill="#2948FF"/>
<path id="Vector_160" opacity="0.2" d="M77.057 62.7285H71.8168V67.9766H77.057V62.7285Z" fill="#2948FF"/>
<path id="Vector_161" opacity="0.2" d="M84.22 62.7285H78.9797V67.9766H84.22V62.7285Z" fill="#2948FF"/>
<path id="Vector_162" opacity="0.2" d="M91.3829 62.7285H86.1427V67.9766H91.3829V62.7285Z" fill="#2948FF"/>
<path id="Vector_163" opacity="0.2" d="M98.5439 62.7285H93.3036V67.9766H98.5439V62.7285Z" fill="#2948FF"/>
<path id="Vector_164" d="M105.707 62.7285H100.467V67.9766H105.707V62.7285Z" fill="#2948FF"/>
<path id="Vector_165" opacity="0.2" d="M112.868 62.7285H107.628V67.9766H112.868V62.7285Z" fill="#2948FF"/>
<path id="Vector_166" opacity="0.2" d="M120.031 62.7285H114.791V67.9766H120.031V62.7285Z" fill="#2948FF"/>
<path id="Vector_167" opacity="0.2" d="M127.194 62.7285H121.953V67.9766H127.194V62.7285Z" fill="#2948FF"/>
<path id="Vector_168" d="M134.355 62.7285H129.114V67.9766H134.355V62.7285Z" fill="#2948FF"/>
<path id="Vector_169" opacity="0.2" d="M141.518 62.7285H136.277V67.9766H141.518V62.7285Z" fill="#2948FF"/>
<path id="Vector_170" opacity="0.2" d="M148.681 62.7285H143.44V67.9766H148.681V62.7285Z" fill="#2948FF"/>
<path id="Vector_171" opacity="0.2" d="M155.842 62.7285H150.601V67.9766H155.842V62.7285Z" fill="#2948FF"/>
<path id="Vector_172" opacity="0.2" d="M163.005 62.7285H157.764V67.9766H163.005V62.7285Z" fill="#2948FF"/>
<path id="Vector_173" opacity="0.2" d="M170.165 62.7285H164.925V67.9766H170.165V62.7285Z" fill="#2948FF"/>
<path id="Vector_174" opacity="0.2" d="M177.328 62.7285H172.088V67.9766H177.328V62.7285Z" fill="#2948FF"/>
<path id="Vector_175" opacity="0.2" d="M184.491 62.7285H179.251V67.9766H184.491V62.7285Z" fill="#2948FF"/>
<path id="Vector_176" opacity="0.2" d="M191.652 62.7285H186.412V67.9766H191.652V62.7285Z" fill="#2948FF"/>
<path id="Vector_177" opacity="0.2" d="M198.815 62.7285H193.575V67.9766H198.815V62.7285Z" fill="#2948FF"/>
<path id="Vector_178" d="M205.976 62.7285H200.736V67.9766H205.976V62.7285Z" fill="#2948FF"/>
<path id="Vector_179" d="M150.885 82.0361C154.841 82.0361 158.048 78.8243 158.048 74.8623C158.048 70.9004 154.841 67.6886 150.885 67.6886C146.929 67.6886 143.722 70.9004 143.722 74.8623C143.722 78.8243 146.929 82.0361 150.885 82.0361Z" fill="#767D9F"/>
<path id="Vector_180" d="M150.513 65.7362C151.228 68.8605 151.834 72.0082 152.333 75.1791C152.483 76.1214 152.616 77.115 152.275 78.0058C151.99 78.7485 151.408 79.3287 150.952 79.9788C150.496 80.6289 150.151 81.4621 150.429 82.2068C150.706 82.9515 151.515 83.3589 152.288 83.5687C154.498 84.1653 156.854 83.7313 159.054 83.0853C160.05 82.8284 161.005 82.4323 161.891 81.9085C162.824 81.316 163.588 80.4931 164.29 79.6455C167.497 75.7511 169.596 71.0769 171.572 66.4316C170.303 66.5473 169.024 66.3588 167.841 65.8816C166.658 65.4044 165.606 64.6522 164.771 63.6872C163.962 62.7347 163.368 61.4077 163.824 60.2433C162.487 60.9777 160.899 61.0271 159.459 61.5291C158.566 61.8707 157.706 62.2942 156.891 62.7943C155.908 63.3635 154.93 63.9436 153.958 64.5348C152.846 65.2054 151.805 65.8021 150.513 65.7362Z" fill="#AE6E79"/>
<path id="Vector_181" d="M165.494 71.1222C164.239 73.5683 162.606 75.9198 160.274 77.3764C157.943 78.8329 154.804 79.2279 152.469 77.7878C151.318 77.0842 150.447 76.0144 149.443 75.1134C148.438 74.2123 147.183 73.4408 145.834 73.5581C144.346 73.6877 143.182 74.85 142.185 75.963C140.673 77.6541 139.213 79.4172 138.143 81.4189C136.088 85.266 135.602 89.7632 135.692 94.1247C135.782 98.4861 136.413 102.825 136.427 107.186C136.448 112.552 135.54 117.874 134.622 123.159C143.064 122.118 151.517 124.393 159.979 125.255C165.394 125.813 170.849 125.801 176.293 125.786C177.25 125.786 178.269 125.762 179.066 125.231C179.553 124.875 179.947 124.406 180.215 123.865C180.966 122.476 181.268 120.892 181.478 119.326C182.01 115.372 182.026 111.369 182.041 107.378C182.078 97.7085 182.113 88.0043 180.886 78.4112C180.584 76.0515 180.198 73.6794 179.294 71.472C178.39 69.2645 176.916 67.234 174.853 66.051C173.528 65.2898 170.457 63.965 168.896 64.7323C167.144 65.5881 166.334 69.4846 165.494 71.1222Z" fill="#767D9F"/>
<path id="Vector_182" d="M166.119 98.4264C165.8 92.4603 164.504 86.0931 167.263 80.7976C167.941 79.4974 165.509 77.8742 166.26 76.6152C167.178 75.0801 167.874 73.4226 168.327 71.6921C168.483 71.0975 168.608 70.468 168.46 69.8714C168.187 68.7831 167.113 68.1351 166.201 67.4726C165.194 66.7402 164.677 64.5081 164.352 63.3005C164.028 62.0928 166.934 63.5473 168.103 63.1174C169.726 62.5228 171.788 62.8972 173.407 63.5C174.311 63.8333 175.293 63.8621 176.256 63.8868C178.128 63.9362 180.005 63.9835 181.862 63.7531C182.696 63.6481 183.532 63.4897 184.37 63.537C186.509 63.6584 188.368 65.1232 189.633 66.8554C190.898 68.5877 191.704 70.6059 192.741 72.4821C193.606 74.0456 194.637 75.5227 195.375 77.1501C196.028 78.5902 196.441 80.1372 196.849 81.6761L197.903 85.624C198.088 86.1888 198.175 86.7807 198.162 87.3747C198.109 88.0063 197.829 88.5947 197.546 89.1563C196.474 91.238 195.189 93.2023 193.711 95.0175C191.494 97.7393 188.803 100.194 187.486 103.452C186.973 104.722 186.687 106.071 186.426 107.417C185.375 112.798 184.627 118.234 184.187 123.7C181.787 122.588 179.271 121.745 176.685 121.188C175.397 120.912 174.094 120.706 172.782 120.571C171.634 120.452 170.153 120.678 169.06 120.365C167.232 119.845 167.031 116.749 166.753 115.127C166.31 112.546 166.221 109.918 166.205 107.31C166.184 104.343 166.277 101.383 166.119 98.4264Z" fill="#4C4981"/>
<path id="Vector_183" d="M125.969 87.2698C126.834 92.2073 127.787 97.1592 129.667 101.798C129.62 101.844 129.572 101.885 129.525 101.926C129.359 102.068 129.186 102.202 129.006 102.337C128.584 102.634 128.122 102.885 127.773 103.271C127.641 103.419 127.536 103.59 127.465 103.775C127.4 103.92 127.367 104.077 127.367 104.235C127.367 104.394 127.4 104.55 127.465 104.695C126.485 105.129 125.347 104.995 124.248 104.954C123.301 104.919 122.383 104.954 121.623 105.475C120.567 106.203 120.248 107.602 120.078 108.873C120.015 109.337 119.961 109.801 119.916 110.266C119.872 110.698 119.836 111.132 119.809 111.566C119.716 113.005 119.703 114.447 119.77 115.887C119.781 116.15 119.795 116.413 119.813 116.677C116.456 116.596 113.398 114.844 110.503 113.14C109.842 112.751 109.16 112.342 108.731 111.7C108.335 111.07 108.168 110.322 108.256 109.583C108.256 109.478 108.275 109.377 108.289 109.27C108.381 108.66 108.539 108.061 108.759 107.485C109.665 105.029 111 102.755 112.701 100.768C113.437 99.9077 114.265 99.0663 114.608 97.9862C114.758 97.5151 114.813 97.0152 114.965 96.5461C115.647 94.5135 118.108 93.5528 118.95 91.5798C119.156 91.1087 119.25 90.5923 119.505 90.1397C119.734 89.7636 120.03 89.4324 120.378 89.1625C120.528 89.037 120.684 88.9157 120.838 88.7943C122.281 87.6614 123.672 86.4647 125.01 85.2043C125.259 84.9698 125.506 84.7325 125.75 84.4925C125.717 85.4236 125.791 86.3554 125.969 87.2698Z" fill="#4C4981"/>
<path id="Vector_184" d="M146.67 72.6672C146.374 72.9799 146.053 73.2741 145.739 73.5663L145.655 73.6424L145.322 73.951C144.718 74.4731 144.195 75.0826 143.771 75.7593L143.736 75.8169C142.689 77.6952 143.077 80.0076 143.368 82.141C143.73 84.7996 143.893 87.4815 143.855 90.1644C143.802 93.8675 143.366 97.5459 143.358 101.245C143.358 102.084 143.377 102.922 143.414 103.761C143.473 105.125 143.576 106.487 143.699 107.849C143.833 109.342 143.993 110.834 144.143 112.325C144.262 113.48 144.375 114.632 144.47 115.784C144.517 116.38 144.562 116.975 144.599 117.571C144.642 118.271 144.677 118.972 144.698 119.672C144.712 120.116 144.72 120.559 144.72 121.003C144.72 121.256 144.72 121.507 144.72 121.758C144.72 122.239 144.707 122.719 144.681 123.198C144.654 123.814 144.612 124.431 144.556 125.05C144.492 125.722 144.379 126.457 143.907 126.93C143.878 126.959 143.847 126.986 143.816 127.012L143.151 126.93C138.563 126.38 133.931 126.297 129.326 126.683C129.427 125.988 129.519 125.294 129.61 124.597C129.651 124.268 129.692 123.937 129.731 123.605C129.776 123.227 129.819 122.848 129.86 122.47C129.907 122.058 129.951 121.647 129.992 121.235C130.098 120.175 130.192 119.114 130.273 118.053C130.392 116.504 130.483 114.953 130.544 113.399C130.574 112.657 130.598 111.915 130.614 111.171C130.637 110.25 130.648 109.327 130.647 108.404C130.647 107.507 130.639 106.609 130.624 105.709C130.624 105.413 130.612 105.117 130.587 104.823C130.57 104.558 130.533 104.294 130.478 104.035C130.326 103.436 130.12 102.852 129.862 102.29C129.817 102.183 129.774 102.084 129.731 101.971C129.706 101.916 129.683 101.858 129.661 101.802C130.844 100.747 131.686 99.3337 132.496 97.943C133.808 95.7026 135.152 93.3635 135.372 90.7754C135.591 88.1874 134.307 85.2804 131.838 84.4904C131.167 84.2847 130.456 84.2271 129.764 84.1057C129.11 83.9905 127.748 83.7292 126.992 83.2602C126.582 83.6826 126.171 84.0975 125.76 84.5048C125.785 83.8833 125.937 83.2735 126.206 82.7129L126.497 82.7273C126.474 82.6614 126.462 82.5916 126.465 82.5216C126.465 82.3015 126.617 82.0526 126.941 81.7769C127.909 80.954 129.431 80.7709 130.041 79.6579C130.296 79.195 130.339 78.6436 130.544 78.1581C131.134 76.7736 132.826 76.2634 133.845 75.1566C134.864 74.0497 135.119 72.4821 135.943 71.2477C136.558 70.3463 137.411 69.634 138.408 69.1904C138.49 69.1514 138.574 69.1123 138.658 69.0773C140.363 68.347 142.389 68.1803 144.155 68.1844C144.841 68.1844 146.62 68.205 147.491 68.5527C147.633 68.6032 147.762 68.6824 147.871 68.7852C148.8 69.7973 147.356 71.9349 146.67 72.6672Z" fill="#4C4981"/>
<path id="Vector_185" d="M126.276 82.5689C127.862 82.0905 129.528 81.9327 131.177 82.1047C132.825 82.2767 134.423 82.775 135.877 83.5708C137.356 84.3937 138.683 85.5417 139.496 87.0229C140.719 89.2448 140.665 91.9233 140.579 94.46C140.536 95.7293 140.48 97.0439 139.922 98.1837C139.275 99.5024 138.054 100.408 136.809 101.148C136.03 101.646 135.175 102.017 134.279 102.245C132.898 102.545 131.464 102.29 130.074 102.039C128.562 101.759 126.939 101.422 125.889 100.294C125.273 99.6402 124.936 98.7906 124.603 97.9594C124.125 96.7593 123.646 95.5606 123.165 94.3633C122.334 92.2834 122.052 90.5532 123.151 88.5268C123.65 87.6031 124.26 86.739 124.753 85.8091C125 85.3359 125.883 82.6903 126.276 82.5689Z" fill="#4C4981"/>
<path id="Vector_186" d="M212.609 118.133V124.284C208.395 126.037 203.875 126.933 199.312 126.918H143.913C143.884 126.946 143.853 126.973 143.822 127L143.157 126.918H44.611C36.3428 126.918 28.6807 124.683 22.3969 120.878V111.486L69.7913 106.008H69.8283L97.4285 108.349L104.571 108.966L108.281 109.281L115.959 109.933L119.91 110.268L125.661 110.758L126.471 110.826L130.616 111.177L136.24 111.64L144.149 112.311L157.333 113.432L166.608 114.22L181.837 115.514L184.734 115.759L185.046 115.786L185.317 115.808L189.142 116.133L193.341 116.491L193.828 116.533L212.609 118.133Z" fill="#504F60"/>
<path id="Vector_187" d="M156.941 117.907L97.5455 107.754L95.2428 119.417L122.469 122.682L130.852 123.733L153.913 119.184L156.941 117.907Z" fill="#9C9CA1"/>
<path id="Vector_188" d="M126.195 123.149L155.952 117.547C156.101 117.518 156.255 117.523 156.402 117.561C156.548 117.599 156.685 117.669 156.802 117.766C156.918 117.863 157.012 117.984 157.076 118.122C157.14 118.259 157.173 118.409 157.173 118.561C157.173 118.802 157.09 119.035 156.936 119.221C156.783 119.406 156.569 119.531 156.333 119.575L127.272 125.025L126.195 123.149Z" fill="#9C9CA1"/>
<path id="Vector_189" d="M139.104 105.532C140.03 105.446 140.969 105.3 141.803 104.888C142.83 104.376 143.629 103.494 144.58 102.843C146.672 101.403 149.469 101.21 151.867 102.037C154.264 102.864 156.265 104.635 157.666 106.75C158.596 108.159 159.295 109.957 158.637 111.513C158.412 111.988 158.127 112.433 157.791 112.838L156.078 115.08C155.752 115.552 155.361 115.973 154.915 116.333C154.274 116.8 153.477 116.991 152.692 117.107C150.607 117.411 148.485 117.238 146.384 117.378C142.775 117.619 139.25 118.783 135.632 118.744C133.554 118.722 131.501 118.302 129.47 117.882L120.479 116.031C118.913 115.71 117.145 115.241 116.407 113.819C116.076 113.179 116.015 112.439 115.976 111.719C115.869 109.735 115.976 107.53 117.348 106.1C118.638 104.759 120.678 104.335 122.218 103.343C124.104 102.127 124.727 102.52 126.715 103.434C130.594 105.193 134.863 105.916 139.104 105.532Z" fill="#AE6E79"/>
<path id="Vector_190" opacity="0.05" d="M139.104 105.532C140.03 105.446 140.969 105.3 141.803 104.888C142.83 104.376 143.629 103.494 144.58 102.843C146.672 101.403 149.469 101.21 151.867 102.037C154.264 102.864 156.265 104.635 157.666 106.75C158.596 108.159 159.295 109.957 158.637 111.513C158.412 111.988 158.127 112.433 157.791 112.838L156.078 115.08C155.752 115.552 155.361 115.973 154.915 116.333C154.274 116.8 153.477 116.991 152.692 117.107C150.607 117.411 148.485 117.238 146.384 117.378C142.775 117.619 139.25 118.783 135.632 118.744C133.554 118.722 131.501 118.302 129.47 117.882L120.479 116.031C118.913 115.71 117.145 115.241 116.407 113.819C116.076 113.179 116.015 112.439 115.976 111.719C115.869 109.735 115.976 107.53 117.348 106.1C118.638 104.759 120.678 104.335 122.218 103.343C124.104 102.127 124.727 102.52 126.715 103.434C130.594 105.193 134.863 105.916 139.104 105.532Z" fill="black"/>
<path id="Vector_191" d="M175.211 102.712C172.688 103.689 170.151 104.67 167.509 105.253C163.081 106.23 158.446 106.075 154.052 107.193C151.731 107.785 149.424 108.74 147.039 108.546C145.973 108.46 144.944 108.135 143.907 107.888C138.079 106.448 131.454 106.915 126.721 110.618C125.103 111.883 123.778 113.461 122.576 115.144C122.319 115.507 122.145 115.923 122.067 116.362C121.989 116.8 122.009 117.251 122.125 117.681C122.241 118.111 122.45 118.51 122.738 118.85C123.026 119.189 123.385 119.461 123.79 119.645C125.631 120.493 127.602 121.02 129.62 121.203C132.317 121.441 135.026 121.059 137.709 120.676C141.69 120.11 145.673 119.542 149.644 118.907C151.07 118.678 152.495 118.442 153.929 118.261C164.247 116.954 174.752 118.543 185.097 117.452C186.143 117.341 187.207 117.197 188.158 116.751C190.566 115.619 191.757 112.636 191.26 110.015C190.763 107.394 188.844 105.215 186.535 103.878C184.6 102.753 182.513 102.298 180.358 101.821C178.358 101.354 177.137 101.971 175.211 102.712Z" fill="#AE6E79"/>
<path id="Vector_192" opacity="0.1" d="M197.34 87.0435C198.478 88.5371 198.721 90.5409 198.598 92.411C198.474 94.281 198.031 96.1305 197.965 98.0088C197.875 100.585 198.495 103.152 198.39 105.719C198.316 107.515 197.891 109.277 197.388 111.001C196.794 113.035 195.935 115.222 194.06 116.199C191.57 117.497 186.348 116.767 183.729 117.783C183.968 116.296 186.252 114.142 186.49 112.655C186.655 111.626 186.821 110.569 186.644 109.538C186.418 108.223 185.648 107.057 184.734 106.086C183.279 104.541 181.381 103.378 179.296 103C177.211 102.621 172.107 102.932 170.439 104.251C170.233 102.889 174.054 101.576 175.398 101.282C176.067 101.132 176.835 101.216 177.372 100.79C178.399 99.9838 177.653 98.3771 177.702 97.0872C177.741 96.0585 178.341 95.1163 178.462 94.0876C178.668 92.4418 177.596 90.7651 178.017 89.1502C178.173 88.5536 178.52 88.0289 178.76 87.4611C179.492 85.7227 179.171 83.7395 178.781 81.8921C178.538 80.7318 178.302 79.4234 178.947 78.4338C179.545 77.5101 181.242 80.7997 182.328 80.6474C185.917 80.1434 189.165 77.4792 192.063 79.6599C193.54 80.7709 193.733 81.9229 194.323 83.5091C194.896 85.0191 196.381 85.7927 197.34 87.0435Z" fill="black"/>
<path id="Vector_193" d="M197.957 87.0435C199.095 88.5371 199.337 90.5409 199.214 92.411C199.091 94.281 198.647 96.1305 198.581 98.0088C198.491 100.585 199.111 103.152 199.006 105.719C198.932 107.515 198.507 109.277 198.004 111.001C197.41 113.035 196.552 115.222 194.676 116.199C192.186 117.497 186.965 116.767 184.346 117.783C184.584 116.296 186.868 114.142 187.106 112.655C187.271 111.626 187.437 110.569 187.261 109.538C187.035 108.223 186.264 107.057 185.35 106.086C183.896 104.541 181.998 103.378 179.913 103C177.828 102.621 172.723 102.932 171.055 104.251C170.85 102.889 174.67 101.576 176.014 101.282C176.683 101.132 177.452 101.216 177.988 100.79C179.015 99.9838 178.269 98.3771 178.319 97.0871C178.358 96.0585 178.957 95.1163 179.079 94.0876C179.284 92.4418 178.212 90.7651 178.633 89.1502C178.789 88.5535 179.136 88.0289 179.377 87.4611C180.108 85.7227 179.787 83.7395 179.397 81.8921C179.155 80.7318 178.918 79.4233 179.563 78.4338C180.161 77.5101 181.33 77.1603 182.417 77.006C186.055 76.5132 189.742 77.4657 192.688 79.6599C194.165 80.7709 194.358 81.9229 194.947 83.5091C195.512 85.0191 196.997 85.7927 197.957 87.0435Z" fill="#4C4981"/>
<path id="Vector_194" d="M62.0367 77.2961L73.2054 118.635C73.3424 119.142 73.6303 119.594 74.0307 119.933C74.4311 120.271 74.9249 120.48 75.4465 120.53L125.717 125.367C126.126 125.406 126.54 125.347 126.922 125.193C127.304 125.04 127.644 124.797 127.913 124.486C128.182 124.174 128.373 123.802 128.469 123.401C128.565 123 128.564 122.582 128.465 122.182L116.235 72.3175C116.089 71.7248 115.738 71.203 115.245 70.8448C114.751 70.4865 114.147 70.3151 113.539 70.361L64.323 74.0477C63.9451 74.0771 63.5784 74.1896 63.2489 74.3773C62.9195 74.565 62.6354 74.8232 62.4171 75.1334C62.1987 75.4437 62.0514 75.7984 61.9857 76.1722C61.9199 76.5461 61.9373 76.9298 62.0367 77.2961Z" fill="#9C9CA1"/>
<path id="Vector_195" d="M161.688 85.3627C164.74 85.3627 167.214 82.8528 167.214 79.7566C167.214 76.6605 164.74 74.1505 161.688 74.1505C158.636 74.1505 156.162 76.6605 156.162 79.7566C156.162 82.8528 158.636 85.3627 161.688 85.3627Z" fill="white"/>
<path id="Vector_196" d="M166.226 69.5299C166.226 69.5299 167.39 72.9985 163.954 74.4571L163.514 75.2265L165.667 77.3537C165.667 77.3537 168.321 72.5047 168.033 70.7828C168.033 70.7828 167.622 69.0341 166.226 69.5299Z" fill="white"/>
<path id="Vector_197" d="M162.323 85.3627C165.265 85.3627 167.651 82.9734 167.651 80.0261C167.651 77.0788 165.265 74.6895 162.323 74.6895C159.38 74.6895 156.994 77.0788 156.994 80.0261C156.994 82.9734 159.38 85.3627 162.323 85.3627Z" fill="#2948FF"/>
<path id="Vector_198" d="M168.06 71.5707L167.214 70.1717L165.981 69.9969C166.244 65.3906 165.051 64.0184 165.051 64.0184L164.773 63.9917L163.565 63.8744L161.293 61.5127V60.842C164.486 61.2226 166.25 62.7409 167.203 64.5204C168.888 67.6433 168.06 71.5707 168.06 71.5707Z" fill="#2948FF"/>
<path id="Vector_199" opacity="0.1" d="M164.783 63.1441V63.9917L163.576 63.8744L161.304 61.5127C161.304 61.5127 164.818 62.3006 164.783 63.1441Z" fill="black" stroke="#4C4981" stroke-miterlimit="10"/>
<path id="Vector_200" opacity="0.1" d="M168.06 71.5707L167.214 70.1718V64.5286C168.888 67.6434 168.06 71.5707 168.06 71.5707Z" fill="black" stroke="#4C4981" stroke-miterlimit="10"/>
<path id="Vector_201" d="M152.476 82.2198C153.894 81.4001 153.833 78.636 152.34 76.0462C150.847 73.4564 148.487 72.0214 147.069 72.8412C145.652 73.661 145.713 76.425 147.206 79.0148C148.699 81.6047 151.058 83.0396 152.476 82.2198Z" fill="white"/>
<path id="Vector_202" d="M150.573 77.078C152.066 79.6682 153.898 81.3983 152.481 82.2212C151.063 83.0442 146.935 82.6327 145.441 80.0405C143.948 77.4484 145.304 73.8687 146.721 73.0458C148.138 72.2229 149.077 74.4818 150.573 77.078Z" fill="#2948FF"/>
<path id="Vector_203" opacity="0.1" d="M163.869 58.4185C163.869 66.695 158.214 74.671 149.95 74.671C145.981 74.671 142.175 73.092 139.368 70.2814C136.562 67.4707 134.985 63.6586 134.985 59.6838C134.985 55.7089 136.562 51.8968 139.368 49.0861C142.175 46.2755 145.981 44.6965 149.95 44.6965C158.214 44.7047 163.869 50.14 163.869 58.4185Z" fill="black"/>
<path id="Vector_204" d="M149.95 74.2678C158.215 74.2678 164.915 67.5577 164.915 59.2805C164.915 51.0032 158.215 44.2932 149.95 44.2932C141.685 44.2932 134.985 51.0032 134.985 59.2805C134.985 67.5577 141.685 74.2678 149.95 74.2678Z" fill="#AE6E79"/>
<path id="Vector_205" d="M148.635 52.6395C150.416 53.2958 151.47 55.1391 153.068 56.1657C155.328 57.6058 158.27 57.2334 160.85 56.5216C162.288 56.1286 163.791 55.6493 165.207 56.0854C165.415 56.1778 165.644 56.2105 165.87 56.1801C166.178 56.0916 166.33 55.7501 166.431 55.4456C168.181 50.2201 167.394 44.3013 164.753 39.4667C164.071 38.22 163.253 37.0144 162.127 36.1483C161.24 35.4674 160.196 35.0209 159.145 34.6403C157.223 33.949 155.235 33.4575 153.212 33.1735C152.855 33.1085 152.49 33.0967 152.13 33.1385C151.635 33.2188 151.191 33.4862 150.749 33.7248C148.858 34.7403 146.76 35.3109 144.615 35.3933C141.739 35.5023 138.453 34.8234 136.236 36.6709C133.566 38.8866 134.231 43.2089 132.5 46.2167C131.353 48.206 129.143 49.6503 128.78 51.9153C128.685 52.6076 128.729 53.3119 128.909 53.987C129.755 57.472 133.124 60.1712 136.715 60.235C137.266 60.2771 137.819 60.1638 138.309 59.9079C138.63 59.6883 138.914 59.418 139.149 59.1076C141.501 56.3179 144.192 51.0019 148.635 52.6395Z" fill="#444053"/>
<path id="Vector_206" opacity="0.1" d="M166.431 53.9295C166.33 54.234 166.178 54.5755 165.87 54.664C165.644 54.6944 165.415 54.6617 165.207 54.5693C163.791 54.1332 162.279 54.6125 160.852 55.0055C158.27 55.7173 155.322 56.0979 153.07 54.6496C151.47 53.6209 150.418 51.7694 148.635 51.1234C144.192 49.4776 141.501 54.8018 139.143 57.5915C138.908 57.9019 138.624 58.1722 138.303 58.3918C137.812 58.6477 137.26 58.761 136.709 58.7189C133.13 58.6551 129.759 55.9559 128.903 52.4709C128.856 52.2652 128.815 52.0595 128.784 51.8537C128.784 51.8722 128.784 51.8887 128.773 51.9072C128.679 52.5995 128.723 53.3038 128.903 53.9789C129.749 57.4639 133.12 60.1631 136.709 60.2269C137.26 60.269 137.812 60.1557 138.303 59.8997C138.624 59.6801 138.908 59.4099 139.143 59.0995C141.501 56.3098 144.192 50.9938 148.635 52.6314C150.418 53.2877 151.47 55.131 153.07 56.1576C155.33 57.5977 158.27 57.2253 160.852 56.5135C162.29 56.1205 163.791 55.6412 165.207 56.0773C165.415 56.1696 165.644 56.2024 165.87 56.172C166.178 56.0835 166.33 55.742 166.431 55.4375C167.137 53.2994 167.449 51.0506 167.351 48.8007C167.291 50.5456 166.981 52.2727 166.431 53.9295Z" fill="black"/>
</g>
<defs>
<clipPath id="clip0">
<rect width="235" height="127" fill="white"/>
</clipPath>
</defs>
</svg>
