<svg width="649" height="277" viewBox="0 0 649 277" fill="none" xmlns="http://www.w3.org/2000/svg">
<g id="web-designer">
<path id="Vector" d="M142.451 154.532C142.457 153.682 142.287 152.839 141.952 152.058C141.616 151.276 141.123 150.571 140.502 149.988C139.881 149.405 139.146 148.956 138.343 148.668C137.54 148.38 136.686 148.261 135.835 148.317C134.984 148.373 134.153 148.603 133.395 148.994C132.637 149.384 131.968 149.926 131.429 150.585C130.891 151.245 130.495 152.008 130.265 152.827C130.036 153.646 129.979 154.503 130.097 155.345L112.263 178.616C111.502 180.133 111.207 181.839 111.415 183.522C111.622 185.205 112.324 186.789 113.431 188.077L114.83 189.703L121.249 188.423L128.524 182.027L127.668 174.778L136.655 160.707L136.643 160.697C138.216 160.597 139.692 159.904 140.771 158.759C141.85 157.614 142.451 156.102 142.451 154.532Z" fill="#AE6E79"/>
<g id="left-leg">
<path id="Vector_2" d="M19.124 268.301L16.2128 257.528L56.5298 241.213L60.8262 257.114L19.124 268.301Z" fill="#AE6E79"/>
<path id="Vector_3" d="M9.38605 273.861L1.52588e-05 239.123L0.440949 239.005C4.03961 238.04 7.87572 238.538 11.1055 240.391C14.3353 242.244 16.6942 245.299 17.6634 248.885L17.6637 248.886L23.3963 270.102L9.38605 273.861Z" fill="#2F2E41"/>
</g>
<path id="Vector_4" d="M74.6588 266.58L65.6038 260.018L86.6949 222.092L100.06 231.777L74.6588 266.58Z" fill="#AE6E79"/>
<path id="Vector_5" d="M70.5851 277L41.3868 255.842L41.6554 255.474C43.8474 252.47 47.1469 250.458 50.828 249.878C54.5091 249.299 58.2705 250.2 61.2847 252.384L61.2855 252.385L79.1187 265.308L70.5851 277Z" fill="#2F2E41"/>
<path id="Vector_6" d="M151.632 213.582L128.845 191.524C126.857 189.599 124.237 188.454 121.469 188.3C118.701 188.146 115.97 188.993 113.778 190.686L70.753 238.313L74.6045 244.283L115.686 216.566L143.502 252.811L170.033 239.593L151.632 213.582Z" fill="#2F2E41"/>
<path id="Vector_7" d="M141.79 218.272L125.101 216.993L113.014 214.073C112.331 213.012 111.34 212.184 110.172 211.7C109.004 211.216 107.715 211.099 106.478 211.364C105.242 211.63 104.116 212.266 103.252 213.187C102.388 214.108 101.827 215.27 101.644 216.517C101.461 217.764 101.665 219.037 102.228 220.166C102.792 221.295 103.687 222.225 104.796 222.833C105.905 223.44 107.173 223.695 108.431 223.565C109.689 223.434 110.877 222.923 111.836 222.101L111.835 222.11L119.11 225.095L150.349 235.755L154.2 232.77L141.79 218.272Z" fill="#AE6E79"/>
<path id="Vector_8" d="M182.016 264.325L172.601 270.294H161.475L109.695 251.106L33.951 264.751L31.8114 248.547L101.137 218.272L161.903 238.313L182.016 264.325Z" fill="#2F2E41"/>
<path id="Vector_9" d="M161.903 160.707C171.12 160.707 178.592 153.261 178.592 144.077C178.592 134.892 171.12 127.447 161.903 127.447C152.686 127.447 145.214 134.892 145.214 144.077C145.214 153.261 152.686 160.707 161.903 160.707Z" fill="#AE6E79"/>
<path id="Vector_10" d="M205.086 210.473C205.085 220.51 203.498 230.483 200.383 240.028L199.133 243.857L193.142 271.147L186.723 272.853L182.016 266.883L172.601 260.06L165.754 248.974L159.883 239.226L158.052 236.181L151.633 204.201L127.24 190.556L119.11 189.276L120.821 184.586L128.096 174.778L135.371 173.926L137.511 172.22L139.222 173.073L148.658 176.695L179.251 163.815L183.727 164.545L199.133 177.337C203.071 187.944 205.087 199.164 205.086 210.473Z" fill="#CCCCCC"/>
<path id="Vector_11" opacity="0.1" d="M200.417 206.759L184.155 217.419L159.883 239.226L158.052 236.181L152.916 210.597H154.2L167.466 186.292L200.417 206.759Z" fill="black"/>
<path id="Vector_12" d="M167.466 183.733L154.2 208.038L146.497 216.567L139.651 218.272L158.052 238.313L184.155 214.861L200.416 204.2L167.466 183.733Z" fill="#CCCCCC"/>
<path id="Vector_13" d="M148.922 131.712L147.114 132.405C146.839 132.22 146.604 131.983 146.421 131.707C146.239 131.431 146.113 131.122 146.05 130.798C145.987 130.473 145.989 130.14 146.056 129.816C146.123 129.493 146.253 129.186 146.439 128.912C146.448 128.898 146.458 128.883 146.468 128.869L143.127 128.713C145.272 125.867 147.999 123.506 151.128 121.788C154.257 120.07 157.717 119.034 161.278 118.748C164.839 118.462 168.42 118.933 171.785 120.129C175.15 121.326 178.221 123.22 180.796 125.688C180.948 125.166 182.607 126.182 183.284 127.212C183.512 126.362 185.067 130.469 185.617 133.372C185.871 132.406 186.85 133.966 185.993 135.463C186.536 135.384 186.781 136.77 186.361 137.542C186.955 137.263 186.855 138.917 186.21 140.023C187.059 139.948 186.138 157.36 173.406 156.091C172.52 152.033 172.77 152.285 171.726 147.067C171.24 146.553 170.708 146.085 170.177 145.618L167.304 143.091C163.964 140.153 160.925 136.527 156.475 135.429C153.417 134.674 151.483 134.504 153.15 131.07C151.644 131.696 150.238 132.627 148.719 133.209C148.739 132.729 148.951 132.192 148.922 131.712Z" fill="#2F2E41"/>
<path id="Vector_14" d="M170.248 148.981C171.902 148.981 173.243 147.644 173.243 145.996C173.243 144.347 171.902 143.011 170.248 143.011C168.593 143.011 167.252 144.347 167.252 145.996C167.252 147.644 168.593 148.981 170.248 148.981Z" fill="#AE6E79"/>
<path id="Vector_15" d="M30.5551 75.4995L29.6409 89.1772L43.3674 90.088L44.2816 76.4104L30.5551 75.4995Z" fill="#E6E6E6"/>
<path id="Vector_16" d="M21.6988 82.7622L38.3667 83.8683L37.2566 100.477L20.5888 99.3708L21.6988 82.7622ZM37.5937 84.5423L22.3752 83.5324L21.3617 98.6967L36.5802 99.7066L37.5937 84.5423Z" fill="#CCCCCC"/>
<path id="Vector_17" d="M108.126 34.9413L94.6759 37.821L97.5658 51.223L111.016 48.3433L108.126 34.9413Z" fill="#E6E6E6"/>
<path id="Vector_18" d="M98.6855 28.4499L102.195 44.7237L85.8627 48.2205L82.3535 31.9466L98.6855 28.4499ZM101.332 44.1682L98.128 29.3095L83.2161 32.5022L86.4203 47.3609L101.332 44.1682Z" fill="#CCCCCC"/>
<path id="Vector_19" d="M93.9931 99.3026L83.9528 108.674L93.3573 118.678L103.398 109.307L93.9931 99.3026Z" fill="#E6E6E6"/>
<path id="Vector_20" d="M104.12 97.9008L91.9278 109.28L80.5081 97.1314L92.6999 85.7523L104.12 97.9008ZM91.9614 108.257L103.093 97.8673L92.6663 86.7753L81.5347 97.1649L91.9614 108.257Z" fill="#CCCCCC"/>
<path id="Vector_21" d="M613.219 0H206.19C204.719 -1.66602e-06 203.262 0.288743 201.903 0.849748C200.543 1.41075 199.308 2.23303 198.268 3.26963C197.228 4.30624 196.403 5.53686 195.84 6.89125C195.277 8.24564 194.987 9.69726 194.987 11.1632V237.145C194.987 238.611 195.277 240.062 195.84 241.417C196.403 242.771 197.228 244.002 198.268 245.038C199.308 246.075 200.543 246.897 201.903 247.458C203.262 248.019 204.719 248.308 206.19 248.308H613.219C616.19 248.308 619.04 247.132 621.141 245.038C623.242 242.945 624.422 240.105 624.422 237.145V11.1632C624.422 8.20257 623.242 5.36316 621.141 3.26964C619.04 1.17613 616.19 1.68235e-06 613.219 0Z" fill="#3F3D56"/>
<path id="Vector_22" d="M609.402 19.7285H210.007V244.226H609.402V19.7285Z" fill="white"/>
<path id="Vector_23" d="M409.363 13.6059C411.625 13.6059 413.459 11.7785 413.459 9.52418C413.459 7.26988 411.625 5.44241 409.363 5.44241C407.101 5.44241 405.267 7.26988 405.267 9.52418C405.267 11.7785 407.101 13.6059 409.363 13.6059Z" fill="white"/>
<path id="Vector_24" d="M495.182 244.227H210.007V19.7289L495.182 244.227Z" fill="#F2F2F2"/>
<path id="blue-circle" d="M272.5 227.427C293.703 227.427 310.891 210.3 310.891 189.173C310.891 168.045 293.703 150.918 272.5 150.918C251.297 150.918 234.109 168.045 234.109 189.173C234.109 210.3 251.297 227.427 272.5 227.427Z" fill="#2948FF"/>
<path id="black-circle" d="M281.047 217.924C271.602 217.924 262.369 215.134 254.515 209.905C246.662 204.676 240.541 197.245 236.927 188.55C233.312 179.855 232.367 170.287 234.209 161.056C236.052 151.826 240.6 143.347 247.279 136.692C253.957 130.037 262.467 125.505 271.73 123.669C280.994 121.833 290.595 122.776 299.321 126.377C308.048 129.979 315.506 136.078 320.753 143.903C326.001 151.728 328.801 160.928 328.801 170.34C328.801 176.589 327.566 182.776 325.166 188.55C322.766 194.323 319.249 199.569 314.814 203.987C310.38 208.406 305.115 211.911 299.321 214.302C293.528 216.694 287.318 217.924 281.047 217.924ZM281.047 123.377C271.725 123.377 262.613 126.131 254.862 131.292C247.112 136.452 241.071 143.787 237.504 152.368C233.936 160.949 233.003 170.392 234.822 179.502C236.64 188.612 241.129 196.979 247.72 203.547C254.311 210.115 262.709 214.588 271.852 216.4C280.994 218.212 290.471 217.282 299.083 213.728C307.695 210.173 315.055 204.154 320.234 196.431C325.413 188.708 328.177 179.628 328.177 170.34C328.177 164.173 326.958 158.066 324.589 152.368C322.221 146.67 318.749 141.493 314.373 137.132C309.996 132.771 304.801 129.312 299.083 126.952C293.364 124.592 287.236 123.377 281.046 123.377L281.047 123.377Z" fill="#3F3D56"/>
<path id="Vector_25" d="M516.943 136.362H479.635V144.13H516.943V136.362Z" fill="#3F3D56"/>
<path id="Vector_26" d="M552.24 94.2784H444.338V97.6076H552.24V94.2784Z" fill="#3F3D56"/>
<path id="Vector_27" d="M552.24 107.358H444.338V110.687H552.24V107.358Z" fill="#3F3D56"/>
<path id="Vector_28" d="M552.24 120.437H444.338V123.767H552.24V120.437Z" fill="#3F3D56"/>
<path id="Vector_29" d="M581.145 33.1638H565.553V48.6997H581.145V33.1638Z" fill="#2948FF"/>
<path id="Vector_30" d="M588.383 55.9128H569.451V37.0478H588.383V55.9128ZM570.274 55.0926H587.56V37.868H570.274L570.274 55.0926Z" fill="#CCCCCC"/>
<path id="Vector_31" d="M635.636 240.144H596.658V237.346C596.658 237.273 596.643 237.201 596.615 237.134C596.587 237.066 596.546 237.005 596.495 236.954C596.443 236.902 596.381 236.861 596.314 236.833C596.246 236.806 596.174 236.791 596.101 236.791H582.737C582.664 236.791 582.591 236.806 582.524 236.833C582.456 236.861 582.395 236.902 582.343 236.954C582.291 237.005 582.25 237.066 582.222 237.134C582.194 237.201 582.18 237.273 582.18 237.346V240.144H573.827V237.346C573.827 237.273 573.813 237.201 573.785 237.134C573.757 237.066 573.716 237.005 573.664 236.954C573.613 236.902 573.551 236.861 573.484 236.833C573.416 236.806 573.344 236.791 573.271 236.791H559.907C559.834 236.791 559.761 236.806 559.694 236.833C559.626 236.861 559.565 236.902 559.513 236.954C559.461 237.005 559.42 237.066 559.392 237.134C559.364 237.201 559.35 237.273 559.35 237.346V240.144H550.997V237.346C550.997 237.273 550.983 237.201 550.955 237.134C550.927 237.066 550.886 237.005 550.834 236.954C550.783 236.902 550.721 236.861 550.654 236.833C550.586 236.806 550.514 236.791 550.44 236.791H537.076C537.003 236.791 536.931 236.806 536.863 236.833C536.796 236.861 536.734 236.902 536.683 236.954C536.631 237.005 536.59 237.066 536.562 237.134C536.534 237.201 536.52 237.273 536.52 237.346V240.144H528.167V237.346C528.167 237.273 528.153 237.201 528.125 237.134C528.097 237.066 528.056 237.005 528.004 236.954C527.952 236.902 527.891 236.861 527.823 236.833C527.756 236.806 527.683 236.791 527.61 236.791H514.246C514.173 236.791 514.101 236.806 514.033 236.833C513.966 236.861 513.904 236.902 513.853 236.954C513.801 237.005 513.76 237.066 513.732 237.134C513.704 237.201 513.689 237.273 513.689 237.346V240.144H505.337V237.346C505.337 237.273 505.323 237.201 505.295 237.134C505.267 237.066 505.226 237.005 505.174 236.954C505.122 236.902 505.061 236.861 504.993 236.833C504.926 236.806 504.853 236.791 504.78 236.791H491.416C491.343 236.791 491.271 236.806 491.203 236.833C491.135 236.861 491.074 236.902 491.022 236.954C490.971 237.005 490.93 237.066 490.902 237.134C490.874 237.201 490.859 237.273 490.859 237.346V240.144H482.507V237.346C482.507 237.273 482.492 237.201 482.464 237.134C482.436 237.066 482.395 237.005 482.344 236.954C482.292 236.902 482.231 236.861 482.163 236.833C482.095 236.806 482.023 236.791 481.95 236.791H468.586C468.513 236.791 468.44 236.806 468.373 236.833C468.305 236.861 468.244 236.902 468.192 236.954C468.14 237.005 468.099 237.066 468.071 237.134C468.043 237.201 468.029 237.273 468.029 237.346V240.144H459.677V237.346C459.677 237.273 459.662 237.201 459.634 237.134C459.606 237.066 459.565 237.005 459.513 236.954C459.462 236.902 459.4 236.861 459.333 236.833C459.265 236.806 459.193 236.791 459.12 236.791H354.435C354.362 236.791 354.289 236.806 354.222 236.833C354.154 236.861 354.093 236.902 354.041 236.954C353.99 237.005 353.949 237.066 353.921 237.134C353.893 237.201 353.878 237.273 353.878 237.346V240.144H345.526V237.346C345.526 237.273 345.511 237.201 345.483 237.134C345.455 237.066 345.414 237.005 345.363 236.954C345.311 236.902 345.249 236.861 345.182 236.833C345.114 236.806 345.042 236.791 344.969 236.791H331.605C331.532 236.791 331.459 236.806 331.392 236.833C331.324 236.861 331.263 236.902 331.211 236.954C331.159 237.005 331.118 237.066 331.09 237.134C331.062 237.201 331.048 237.273 331.048 237.346V240.144H322.695V237.346C322.695 237.273 322.681 237.201 322.653 237.134C322.625 237.066 322.584 237.005 322.532 236.954C322.481 236.902 322.419 236.861 322.352 236.833C322.284 236.806 322.212 236.791 322.139 236.791H308.775C308.701 236.791 308.629 236.806 308.562 236.833C308.494 236.861 308.433 236.902 308.381 236.954C308.329 237.005 308.288 237.066 308.26 237.134C308.232 237.201 308.218 237.273 308.218 237.346V240.144H299.865V237.346C299.865 237.273 299.851 237.201 299.823 237.134C299.795 237.066 299.754 237.005 299.702 236.954C299.65 236.902 299.589 236.861 299.522 236.833C299.454 236.806 299.382 236.791 299.308 236.791H285.944C285.871 236.791 285.799 236.806 285.731 236.833C285.664 236.861 285.602 236.902 285.551 236.954C285.499 237.005 285.458 237.066 285.43 237.134C285.402 237.201 285.388 237.273 285.388 237.346V240.144H277.035V237.346C277.035 237.273 277.021 237.201 276.993 237.134C276.965 237.066 276.924 237.005 276.872 236.954C276.82 236.902 276.759 236.861 276.691 236.833C276.624 236.806 276.551 236.791 276.478 236.791H263.114C263.041 236.791 262.969 236.806 262.901 236.833C262.834 236.861 262.772 236.902 262.721 236.954C262.669 237.005 262.628 237.066 262.6 237.134C262.572 237.201 262.557 237.273 262.557 237.346V240.144H254.205V237.346C254.205 237.273 254.191 237.201 254.163 237.134C254.135 237.066 254.094 237.005 254.042 236.954C253.99 236.902 253.929 236.861 253.861 236.833C253.794 236.806 253.721 236.791 253.648 236.791H240.284C240.136 236.791 239.995 236.85 239.89 236.954C239.786 237.058 239.727 237.199 239.727 237.346V240.144H231.375V237.346C231.375 237.273 231.36 237.201 231.332 237.134C231.304 237.066 231.263 237.005 231.212 236.954C231.16 236.902 231.099 236.861 231.031 236.833C230.963 236.806 230.891 236.791 230.818 236.791H217.454C217.306 236.791 217.165 236.85 217.06 236.954C216.956 237.058 216.897 237.199 216.897 237.346V240.144H191.283C187.738 240.144 184.339 241.547 181.833 244.045C179.327 246.542 177.919 249.929 177.919 253.461V259.482C177.919 263.014 179.327 266.401 181.833 268.898C184.339 271.396 187.738 272.799 191.283 272.799H635.636C639.18 272.799 642.58 271.396 645.086 268.898C647.592 266.401 649 263.014 649 259.482V253.461C649 251.712 648.654 249.981 647.983 248.365C647.311 246.749 646.327 245.281 645.086 244.045C643.845 242.808 642.372 241.827 640.75 241.158C639.129 240.489 637.391 240.144 635.636 240.144Z" fill="#3F3D56"/>
</g>
</svg>
