<svg width="114" height="92" viewBox="0 0 114 92" fill="none" xmlns="http://www.w3.org/2000/svg">
<path d="M80.1574 6.0731C79.714 7.74279 77.9999 8.73444 76.3393 8.28641C74.6758 7.83837 73.6878 6.12388 74.1342 4.4542C74.5806 2.78152 76.2888 1.79285 77.9523 2.24089C79.6158 2.68594 80.6008 4.40342 80.1574 6.0731Z" fill="#F5F6FA"/>
<path d="M76.0947 17.2487C75.7972 18.36 74.6604 19.0172 73.5533 18.7214C72.4463 18.4227 71.7916 17.2816 72.0862 16.1703C72.3838 15.062 73.5206 14.4018 74.6276 14.6976C75.7347 14.9963 76.3923 16.1374 76.0947 17.2487Z" fill="#F5F6FA"/>
<path d="M73.0754 26.0243C72.873 26.7859 72.0934 27.237 71.3345 27.0338C70.5756 26.8307 70.1263 26.0482 70.3286 25.2865C70.534 24.5249 71.3107 24.0709 72.0696 24.277C72.8284 24.4801 73.2778 25.2626 73.0754 26.0243Z" fill="#F5F6FA"/>
<path d="M70.7473 32.8619C70.6134 33.3638 70.0986 33.6625 69.6016 33.5281C69.1017 33.3937 68.8071 32.8768 68.941 32.3749C69.0749 31.876 69.5838 31.5772 70.0837 31.7117C70.5837 31.8461 70.8812 32.363 70.7473 32.8619Z" fill="#F5F6FA"/>
<path d="M89.9803 11.0412C89.1173 12.5377 87.2097 13.0514 85.7188 12.1852C84.2278 11.3219 83.719 9.40725 84.579 7.91075C85.442 6.41424 87.3466 5.90047 88.8375 6.76671C90.3285 7.62996 90.8403 9.54465 89.9803 11.0412Z" fill="#F5F6FA"/>
<path d="M83.1711 20.7792C82.5997 21.7738 81.332 22.1143 80.3381 21.5408C79.3471 20.9644 79.0079 19.6919 79.5792 18.6973C80.1506 17.7026 81.4213 17.3591 82.4122 17.9356C83.4032 18.5091 83.7425 19.7845 83.1711 20.7792Z" fill="#F5F6FA"/>
<path d="M77.9954 28.4733C77.6026 29.1573 76.7307 29.3903 76.0522 28.996C75.3707 28.6017 75.1386 27.7265 75.5314 27.0455C75.9242 26.3615 76.7932 26.1285 77.4747 26.5228C78.1561 26.9171 78.3882 27.7893 77.9954 28.4733Z" fill="#F5F6FA"/>
<path d="M73.9821 34.4722C73.7232 34.9202 73.1519 35.0755 72.7025 34.8156C72.2561 34.5558 72.1014 33.9824 72.3603 33.5344C72.6192 33.0864 73.1905 32.9311 73.6399 33.191C74.0863 33.4508 74.241 34.0242 73.9821 34.4722Z" fill="#F5F6FA"/>
<path d="M98.6377 18.8445C97.1706 20.3171 94.7898 20.3171 93.3257 18.8445C91.8586 17.3719 91.8586 14.9853 93.3257 13.5097C94.7898 12.0401 97.1706 12.0401 98.6377 13.5097C100.105 14.9853 100.105 17.3719 98.6377 18.8445Z" fill="#CBDAF7"/>
<path d="M89.3672 26.2986C88.409 27.2605 86.8556 27.2605 85.8973 26.2986C84.9391 25.3367 84.9391 23.7773 85.8973 22.8154C86.8556 21.8535 88.409 21.8535 89.3672 22.8154C90.3254 23.7773 90.3254 25.3367 89.3672 26.2986Z" fill="#CBDAF7"/>
<path d="M82.1135 32.115C81.557 32.6736 80.6583 32.6736 80.1018 32.115C79.5483 31.5565 79.5483 30.6544 80.1018 30.0959C80.6583 29.5403 81.557 29.5403 82.1135 30.0959C82.6699 30.6544 82.6699 31.5565 82.1135 32.115Z" fill="#CBDAF7"/>
<path d="M76.6905 36.8682C76.3245 37.2357 75.7323 37.2357 75.3692 36.8682C75.0032 36.5008 75.0032 35.9064 75.3692 35.5389C75.7323 35.1745 76.3245 35.1745 76.6905 35.5389C77.0565 35.9064 77.0565 36.5008 76.6905 36.8682Z" fill="#CBDAF7"/>
<path d="M104.787 28.6134C102.749 29.7933 100.145 29.0943 98.9692 27.0482C97.7908 25.005 98.4931 22.3913 100.526 21.2085C102.564 20.0286 105.171 20.7305 106.343 22.7737C107.522 24.8168 106.826 27.4335 104.787 28.6134Z" fill="#CBDAF7"/>
<path d="M93.7555 33.1349C92.4907 33.8697 90.8718 33.4336 90.1427 32.1641C89.4136 30.8946 89.8481 29.2726 91.1099 28.5378C92.3746 27.806 93.9935 28.2421 94.7226 29.5116C95.4517 30.7781 95.0202 32.4031 93.7555 33.1349Z" fill="#CBDAF7"/>
<path d="M85.528 37.3554C84.4894 37.9558 83.1622 37.6004 82.561 36.5579C81.9629 35.5154 82.317 34.1832 83.3586 33.5799C84.3942 32.9795 85.7214 33.3349 86.3226 34.3774C86.9237 35.4199 86.5666 36.7521 85.528 37.3554Z" fill="#CBDAF7"/>
<path d="M78.69 39.8859C78.2436 40.1458 77.6693 39.9905 77.4104 39.5424C77.1515 39.0913 77.3062 38.5177 77.7556 38.2578C78.2019 38.0009 78.7733 38.1532 79.0322 38.6013C79.2911 39.0524 79.1364 39.626 78.69 39.8859Z" fill="#CBDAF7"/>
<path d="M108.027 39.4767C105.611 40.1279 103.126 38.6851 102.477 36.2596C101.829 33.834 103.263 31.3398 105.682 30.6886C108.099 30.0374 110.584 31.4802 111.233 33.9057C111.878 36.3313 110.444 38.8255 108.027 39.4767Z" fill="#CBDAF7"/>
<path d="M96.1907 40.9219C94.664 41.3311 93.0987 40.423 92.688 38.8936C92.2833 37.3612 93.185 35.7899 94.7117 35.3777C96.2353 34.9684 97.8036 35.8765 98.2113 37.406C98.619 38.9384 97.7173 40.5097 96.1907 40.9219Z" fill="#CBDAF7"/>
<path d="M87.1263 42.7535C85.9152 43.0791 84.6653 42.3562 84.3379 41.1376C84.0136 39.9189 84.7337 38.6673 85.9479 38.3388C87.165 38.0132 88.4119 38.736 88.7363 39.9547C89.0606 41.1734 88.3405 42.4279 87.1263 42.7535Z" fill="#CBDAF7"/>
<path d="M79.9658 43.7772C79.2129 43.9804 78.4392 43.5323 78.2398 42.7795C78.0404 42.0237 78.4838 41.25 79.2367 41.0469C79.9866 40.8468 80.7603 41.2919 80.9597 42.0476C81.1591 42.8004 80.7157 43.5771 79.9658 43.7772Z" fill="#CBDAF7"/>
<path d="M108.286 50.8132C105.635 50.8132 103.489 48.6566 103.489 45.9982C103.489 43.3368 105.635 41.1802 108.286 41.1802C110.938 41.1802 113.083 43.3368 113.083 45.9982C113.083 48.6566 110.938 50.8132 108.286 50.8132Z" fill="#FCFCFC"/>
<path d="M96.4813 49.3284C94.6482 49.3284 93.1632 47.8348 93.1632 45.9978C93.1632 44.1578 94.6482 42.6672 96.4813 42.6672C98.3115 42.6672 99.7964 44.1578 99.7964 45.9978C99.7964 47.8348 98.3115 49.3284 96.4813 49.3284Z" fill="#FCFCFC"/>
<path d="M87.2543 48.4065C85.9271 48.4065 84.8528 47.3281 84.8528 45.9958C84.8528 44.6665 85.9271 43.5881 87.2543 43.5881C88.5786 43.5881 89.6559 44.6665 89.6559 45.9958C89.6559 47.3281 88.5786 48.4065 87.2543 48.4065Z" fill="#FCFCFC"/>
<path d="M80.0705 47.5784C79.2016 47.5784 78.4963 46.8704 78.4963 45.9982C78.4963 45.123 79.2016 44.415 80.0705 44.415C80.9395 44.415 81.6448 45.123 81.6448 45.9982C81.6448 46.8704 80.9395 47.5784 80.0705 47.5784Z" fill="#FCFCFC"/>
<path d="M100.631 70.6023C98.6969 69.4822 98.0303 66.9941 99.1492 65.0526C100.268 63.1052 102.744 62.4421 104.681 63.5651C106.622 64.6852 107.282 67.1733 106.163 69.1148C105.044 71.0593 102.569 71.7253 100.631 70.6023Z" fill="#FCFCFC"/>
<path d="M90.9278 63.7761C89.4874 62.9428 88.9934 61.0938 89.8237 59.6452C90.654 58.1995 92.4961 57.7036 93.9394 58.537C95.3797 59.3733 95.8737 61.2253 95.0434 62.671C94.2102 64.1137 92.3651 64.6095 90.9278 63.7761Z" fill="#FCFCFC"/>
<path d="M83.3949 58.3477C82.392 57.7682 82.0498 56.4807 82.6271 55.474C83.2074 54.4674 84.4871 54.1239 85.4899 54.7034C86.4928 55.2859 86.835 56.5703 86.2577 57.577C85.6804 58.5836 84.3978 58.9272 83.3949 58.3477Z" fill="#FCFCFC"/>
<path d="M77.7541 53.7358C77.3077 53.4759 77.153 52.9025 77.4119 52.4514C77.6708 52.0034 78.2421 51.8481 78.6885 52.108C79.1379 52.3678 79.2926 52.9413 79.0337 53.3923C78.7748 53.8403 78.2005 53.9956 77.7541 53.7358Z" fill="#FCFCFC"/>
<path d="M93.2816 78.5278C91.7907 77.0313 91.7907 74.6059 93.2816 73.1094C94.7726 71.6129 97.189 71.6129 98.6799 73.1094C100.171 74.6059 100.171 77.0313 98.6799 78.5278C97.189 80.0243 94.7726 80.0243 93.2816 78.5278Z" fill="#CBDAF7"/>
<path d="M85.7053 69.3716C84.64 68.3052 84.64 66.5728 85.7053 65.5034C86.7677 64.4341 88.4938 64.4341 89.5591 65.5034C90.6245 66.5728 90.6245 68.3052 89.5591 69.3716C88.4938 70.4409 86.7677 70.4409 85.7053 69.3716Z" fill="#CBDAF7"/>
<path d="M79.7566 62.2451C79.0096 61.4953 79.0096 60.2825 79.7566 59.5328C80.5035 58.783 81.7117 58.783 82.4587 59.5328C83.2057 60.2825 83.2057 61.4953 82.4587 62.2451C81.7117 62.9948 80.5035 62.9948 79.7566 62.2451Z" fill="#CBDAF7"/>
<path d="M75.3683 56.4547C75.0023 56.0872 75.0023 55.4928 75.3683 55.1284C75.7314 54.7609 76.3236 54.7609 76.6896 55.1284C77.0557 55.4928 77.0557 56.0872 76.6896 56.4547C76.3236 56.8221 75.7314 56.8221 75.3683 56.4547Z" fill="#CBDAF7"/>
<path d="M84.1797 84.3153C83.1917 82.5977 83.7779 80.3992 85.4891 79.4075C87.2032 78.4158 89.3904 79.0043 90.3784 80.7218C91.3664 82.4394 90.7802 84.6349 89.069 85.6296C87.3549 86.6213 85.1677 86.0328 84.1797 84.3153Z" fill="#CBDAF7"/>
<path d="M79.1694 73.5337C78.4671 72.312 78.8837 70.7469 80.1009 70.042C81.321 69.337 82.8773 69.7522 83.5826 70.9799C84.2879 72.2015 83.8683 73.7637 82.6512 74.4686C81.4311 75.1765 79.8717 74.7583 79.1694 73.5337Z" fill="#CBDAF7"/>
<path d="M75.5311 64.9489C75.1382 64.2649 75.3704 63.3927 76.0518 62.9985C76.7304 62.6042 77.6023 62.8402 77.9951 63.5212C78.3879 64.2052 78.1558 65.0773 77.4743 65.4716C76.7929 65.8659 75.9239 65.6329 75.5311 64.9489Z" fill="#CBDAF7"/>
<path d="M72.3603 58.4617C72.1014 58.0136 72.2561 57.4371 72.7025 57.1772C73.1519 56.9173 73.7232 57.0726 73.9821 57.5237C74.241 57.9718 74.0863 58.5453 73.6399 58.8052C73.1905 59.0621 72.6192 58.9098 72.3603 58.4617Z" fill="#CBDAF7"/>
<path d="M74.1331 87.5413C73.6897 85.8715 74.6776 84.154 76.3382 83.7089C78.0017 83.2609 79.7128 84.2496 80.1562 85.9223C80.6026 87.5921 79.6176 89.3066 77.9511 89.7547C76.2906 90.2027 74.5794 89.211 74.1331 87.5413Z" fill="#F5F6FA"/>
<path d="M72.0871 75.8241C71.7895 74.7129 72.4472 73.5717 73.5542 73.273C74.6583 72.9773 75.7981 73.6374 76.0956 74.7487C76.3903 75.857 75.7356 77.0011 74.6285 77.2968C73.5185 77.5955 72.3847 76.9354 72.0871 75.8241Z" fill="#F5F6FA"/>
<path d="M70.3289 66.708C70.1265 65.9463 70.5759 65.1637 71.3347 64.9605C72.0936 64.7574 72.8703 65.2085 73.0757 65.9702C73.278 66.7319 72.8287 67.5146 72.0698 67.7177C71.3109 67.9208 70.5312 67.4697 70.3289 66.708Z" fill="#F5F6FA"/>
<path d="M68.9398 59.6169C68.8059 59.1181 69.1035 58.6014 69.6034 58.467C70.1004 58.3326 70.6122 58.6313 70.7461 59.1331C70.8801 59.6349 70.5855 60.1486 70.0855 60.283C69.5856 60.4174 69.0737 60.1187 68.9398 59.6169Z" fill="#F5F6FA"/>
<path d="M63.1538 88.1686C63.1538 86.439 64.5525 85.0381 66.2725 85.0381C67.9956 85.0381 69.3912 86.439 69.3912 88.1686C69.3912 89.8951 67.9956 91.2991 66.2725 91.2991C64.5525 91.2991 63.1538 89.8951 63.1538 88.1686Z" fill="#F5F6FA"/>
<path d="M64.1971 76.317C64.1971 75.167 65.1256 74.238 66.2713 74.238C67.4171 74.238 68.3485 75.167 68.3485 76.317C68.3485 77.47 67.4171 78.3989 66.2713 78.3989C65.1256 78.3989 64.1971 77.47 64.1971 76.317Z" fill="#F5F6FA"/>
<path d="M64.851 67.0585C64.851 66.2669 65.4878 65.6277 66.2734 65.6277C67.056 65.6277 67.6929 66.2669 67.6929 67.0585C67.6929 67.8471 67.056 68.4863 66.2734 68.4863C65.4878 68.4863 64.851 67.8471 64.851 67.0585Z" fill="#F5F6FA"/>
<path d="M65.3363 59.8472C65.3363 59.3274 65.7559 58.9092 66.2707 58.9092C66.7885 58.9092 67.2081 59.3274 67.2081 59.8472C67.2081 60.3669 66.7885 60.7852 66.2707 60.7852C65.7559 60.7852 65.3363 60.3669 65.3363 59.8472Z" fill="#F5F6FA"/>
<path d="M52.3864 85.9223C52.8328 84.2496 54.541 83.2609 56.2045 83.7089C57.868 84.154 58.856 85.8715 58.4096 87.5413C57.9662 89.211 56.2551 90.2027 54.5915 89.7547C52.928 89.3066 51.94 87.5921 52.3864 85.9223Z" fill="#CBDAF7"/>
<path d="M56.4506 74.7473C56.7482 73.6362 57.885 72.976 58.992 73.2747C60.0961 73.5704 60.7538 74.7115 60.4562 75.8227C60.1616 76.9339 59.0248 77.594 57.9177 77.2983C56.8107 76.9996 56.153 75.8555 56.4506 74.7473Z" fill="#CBDAF7"/>
<path d="M59.4688 65.9697C59.6711 65.208 60.4508 64.7569 61.2096 64.9601C61.9685 65.1632 62.4178 65.9458 62.2155 66.7075C62.0102 67.4693 61.2335 67.9203 60.4746 67.7172C59.7158 67.5141 59.2664 66.7314 59.4688 65.9697Z" fill="#CBDAF7"/>
<path d="M61.942 59.1706C62.0551 58.7494 62.4866 58.4985 62.9032 58.612C63.3228 58.7285 63.5728 59.1587 63.4597 59.5799C63.3496 59.9981 62.9151 60.249 62.4985 60.1355C62.0789 60.025 61.8319 59.5918 61.942 59.1706Z" fill="#CBDAF7"/>
<path d="M42.8936 81.1445C43.6495 79.8302 45.325 79.3792 46.6344 80.1379C47.9438 80.8966 48.3931 82.5783 47.6372 83.8926C46.8814 85.2069 45.2059 85.6579 43.8965 84.8992C42.5871 84.1405 42.1378 82.4588 42.8936 81.1445Z" fill="#CBDAF7"/>
<path d="M49.6938 71.4016C50.164 70.5862 51.2056 70.3055 52.021 70.7744C52.8334 71.2463 53.1131 72.2947 52.6429 73.1101C52.1727 73.9285 51.1312 74.2062 50.3158 73.7343C49.5034 73.2624 49.2236 72.217 49.6938 71.4016Z" fill="#CBDAF7"/>
<path d="M54.6984 63.607C55.0436 63.0067 55.8084 62.7976 56.4066 63.147C57.0047 63.4935 57.2101 64.2642 56.8678 64.8645C56.5197 65.4649 55.7548 65.668 55.1567 65.3215C54.5585 64.9751 54.3532 64.2074 54.6984 63.607Z" fill="#CBDAF7"/>
<path d="M58.7262 57.6154C58.9316 57.2569 59.3899 57.1344 59.747 57.3405C60.1041 57.5497 60.2261 58.0068 60.0208 58.3653C59.8154 58.7238 59.3571 58.8463 59 58.6402C58.6429 58.431 58.5209 57.9739 58.7262 57.6154Z" fill="#CBDAF7"/>
<path d="M34.7927 74.0383C35.7717 73.0585 37.3579 73.0585 38.334 74.0383C39.3131 75.021 39.3131 76.61 38.334 77.5928C37.3579 78.5785 35.7717 78.5785 34.7927 77.5928C33.8136 76.61 33.8136 75.021 34.7927 74.0383Z" fill="#FCFCFC"/>
<path d="M43.876 66.3957C44.4473 65.8222 45.3758 65.8222 45.9502 66.3957C46.5216 66.9692 46.5216 67.9041 45.9502 68.4776C45.3758 69.054 44.4473 69.054 43.876 68.4776C43.3016 67.9041 43.3016 66.9692 43.876 66.3957Z" fill="#FCFCFC"/>
<path d="M50.7256 60.1739C51.1184 59.7796 51.7552 59.7796 52.148 60.1739C52.5408 60.5682 52.5408 61.2104 52.148 61.6047C51.7552 61.996 51.1184 61.996 50.7256 61.6047C50.3328 61.2104 50.3328 60.5682 50.7256 60.1739Z" fill="#FCFCFC"/>
<path d="M28.674 64.9726C29.8346 64.3005 31.3195 64.7008 31.9891 65.8657C32.6587 67.0276 32.2629 68.5181 31.0993 69.1932C29.9387 69.8653 28.4567 69.465 27.7872 68.3001C27.1176 67.1381 27.5134 65.6476 28.674 64.9726Z" fill="#FCFCFC"/>
<path d="M39.5151 60.1212C40.0865 59.7897 40.8156 59.9838 41.1459 60.5574C41.4732 61.1309 41.2798 61.8628 40.7084 62.1944C40.1371 62.5259 39.408 62.3288 39.0777 61.7582C38.7474 61.1817 38.9438 60.4498 39.5151 60.1212Z" fill="#FCFCFC"/>
<path d="M47.5944 55.6436C48.0794 55.3627 48.7014 55.53 48.9811 56.0171C49.2609 56.5041 49.0942 57.1285 48.6091 57.4094C48.1241 57.6932 47.5021 57.5259 47.2224 57.0359C46.9426 56.5489 47.1093 55.9274 47.5944 55.6436Z" fill="#FCFCFC"/>
<path d="M26.256 32.9641C27.4226 33.2777 28.113 34.4784 27.8005 35.6493C27.4881 36.8201 26.2918 37.5131 25.1252 37.1995C23.9587 36.8859 23.2653 35.6851 23.5777 34.5143C23.8902 33.3434 25.0895 32.6505 26.256 32.9641Z" fill="#FCFCFC"/>
<path d="M30.98 23.0112C32.0275 23.6175 32.3846 24.9587 31.7805 26.0102C31.1764 27.0586 29.8402 27.4201 28.7927 26.8137C27.7482 26.2073 27.3881 24.8631 27.9922 23.8147C28.5963 22.7633 29.9355 22.4048 30.98 23.0112Z" fill="#FCFCFC"/>
<path d="M40.7388 29.7466C41.337 30.0961 41.5453 30.8638 41.1971 31.4672C40.8519 32.0677 40.0841 32.2738 39.486 31.9273C38.8848 31.5778 38.6795 30.81 39.0247 30.2066C39.3729 29.6062 40.1377 29.4 40.7388 29.7466Z" fill="#FCFCFC"/>
<path d="M48.5984 34.6031C49.0746 34.8779 49.2353 35.4872 48.9645 35.9652C48.6877 36.4431 48.0806 36.6044 47.6075 36.3326C47.1313 36.0548 46.9677 35.4454 47.2414 34.9705C47.5152 34.4926 48.1223 34.3283 48.5984 34.6031Z" fill="#FCFCFC"/>
<path d="M38.2001 14.5356C39.1048 15.4437 39.1048 16.9133 38.2001 17.8214C37.2954 18.7265 35.8313 18.7265 34.9266 17.8214C34.0249 16.9133 34.0249 15.4437 34.9266 14.5356C35.8313 13.6275 37.2954 13.6275 38.2001 14.5356Z" fill="#CBDAF7"/>
<path d="M45.9609 23.504C46.5412 24.0865 46.5412 25.0275 45.9609 25.61C45.3806 26.1925 44.4432 26.1925 43.8629 25.61C43.2856 25.0275 43.2856 24.0865 43.8629 23.504C44.4432 22.9245 45.3806 22.9245 45.9609 23.504Z" fill="#CBDAF7"/>
<path d="M52.2326 30.3069C52.67 30.749 52.67 31.4629 52.2326 31.905C51.7922 32.3471 51.0809 32.3471 50.6405 31.905C50.2001 31.4629 50.2001 30.749 50.6405 30.3069C51.0809 29.8678 51.7922 29.8678 52.2326 30.3069Z" fill="#CBDAF7"/>
<path d="M47.6378 8.10056C48.3937 9.41484 47.9473 11.0965 46.6349 11.8582C45.3255 12.6169 43.6501 12.1659 42.8913 10.8516C42.1354 9.53432 42.5848 7.85263 43.8941 7.09393C45.2065 6.33523 46.8819 6.78627 47.6378 8.10056Z" fill="#CBDAF7"/>
<path d="M52.6551 18.8775C53.1283 19.702 52.8456 20.7535 52.0272 21.2315C51.2059 21.7064 50.1554 21.4256 49.6822 20.6011C49.2061 19.7767 49.4888 18.7221 50.3101 18.2472C51.1315 17.7692 52.179 18.053 52.6551 18.8775Z" fill="#CBDAF7"/>
<path d="M56.8547 27.1368C57.197 27.7312 56.9946 28.4929 56.4024 28.8364C55.8072 29.1798 55.0513 28.9767 54.7091 28.3823C54.3669 27.785 54.5692 27.0233 55.1614 26.6828C55.7537 26.3363 56.5125 26.5424 56.8547 27.1368Z" fill="#CBDAF7"/>
<path d="M59.9598 33.6627C60.1473 33.9883 60.0371 34.4066 59.7128 34.5948C59.3884 34.783 58.9718 34.6695 58.7843 34.3439C58.5968 34.0182 58.7099 33.6 59.0343 33.4147C59.3586 33.2265 59.7753 33.3371 59.9598 33.6627Z" fill="#CBDAF7"/>
<path d="M58.2233 4.50237C58.6399 6.06758 57.7144 7.6776 56.1551 8.09878C54.5957 8.51696 52.9917 7.58799 52.575 6.02278C52.1554 4.45756 53.081 2.84754 54.6403 2.42637C56.1997 2.00818 57.8037 2.93715 58.2233 4.50237Z" fill="#CBDAF7"/>
<path d="M60.1779 16.2462C60.4309 17.2021 59.8684 18.1818 58.9161 18.4387C57.9639 18.6956 56.9848 18.128 56.7319 17.1722C56.4759 16.2164 57.0413 15.2366 57.9936 14.9798C58.9429 14.7229 59.922 15.2904 60.1779 16.2462Z" fill="#CBDAF7"/>
<path d="M62.2152 25.2865C62.4175 26.0482 61.9682 26.8307 61.2093 27.0338C60.4505 27.237 59.6738 26.7859 59.4685 26.0243C59.2661 25.2626 59.7155 24.4801 60.4743 24.277C61.2332 24.0709 62.0128 24.5249 62.2152 25.2865Z" fill="#CBDAF7"/>
<path d="M63.4416 32.42C63.5517 32.8322 63.3077 33.2533 62.9 33.3638C62.4923 33.4744 62.0697 33.2294 61.9596 32.8202C61.8495 32.408 62.0935 31.9839 62.5042 31.8763C62.9119 31.7658 63.3344 32.0078 63.4416 32.42Z" fill="#CBDAF7"/>
<path d="M69.3904 3.82581C69.3904 5.55521 67.9947 6.95605 66.2716 6.95605C64.5516 6.95605 63.1529 5.55521 63.1529 3.82581C63.1529 2.0964 64.5516 0.695557 66.2716 0.695557C67.9947 0.695557 69.3904 2.0964 69.3904 3.82581Z" fill="#F5F6FA"/>
<path d="M68.347 15.6759C68.347 16.826 67.4185 17.7581 66.2728 17.7581C65.1271 17.7581 64.1957 16.826 64.1957 15.6759C64.1957 14.5258 65.1271 13.5938 66.2728 13.5938C67.4185 13.5938 68.347 14.5258 68.347 15.6759Z" fill="#F5F6FA"/>
<path d="M67.6932 24.9377C67.6932 25.7263 67.0563 26.3655 66.2707 26.3655C65.4881 26.3655 64.8513 25.7263 64.8513 24.9377C64.8513 24.1492 65.4881 23.51 66.2707 23.51C67.0563 23.51 67.6932 24.1492 67.6932 24.9377Z" fill="#F5F6FA"/>
<path d="M67.2078 32.1473C67.2078 32.6672 66.7882 33.0854 66.2734 33.0854C65.7556 33.0854 65.336 32.6672 65.336 32.1473C65.336 31.6305 65.7556 31.2092 66.2734 31.2092C66.7882 31.2092 67.2078 31.6305 67.2078 32.1473Z" fill="#F5F6FA"/>
<path d="M105.682 61.3053C103.266 60.6542 101.828 58.1601 102.477 55.7347C103.126 53.3063 105.611 51.8696 108.027 52.5208C110.447 53.1659 111.878 55.66 111.232 58.0884C110.584 60.5138 108.099 61.9565 105.682 61.3053Z" fill="#FCFCFC"/>
<path d="M94.6562 56.8219C93.0165 56.3828 92.0464 54.6892 92.4868 53.0463C92.9243 51.4035 94.6056 50.4267 96.2453 50.8688C97.885 51.3079 98.8552 52.9985 98.4177 54.6444C97.9773 56.2842 96.2959 57.261 94.6562 56.8219Z" fill="#FCFCFC"/>
<path d="M85.961 53.6103C84.7706 53.2907 84.0623 52.06 84.3837 50.8681C84.7022 49.6733 85.9253 48.9654 87.1157 49.285C88.306 49.6046 89.0113 50.8323 88.6929 52.0271C88.3745 53.222 87.1484 53.9299 85.961 53.6103Z" fill="#FCFCFC"/>
<path d="M79.2334 50.9589C78.4745 50.7558 78.0251 49.9731 78.2275 49.2114C78.4269 48.4496 79.2096 47.9986 79.9684 48.2047C80.7273 48.4078 81.1766 49.1875 80.9743 49.9492C80.7719 50.711 79.9922 51.162 79.2334 50.9589Z" fill="#FCFCFC"/>
<path d="M34.5659 46.493C34.5659 49.9849 35.2236 50.7705 37.7472 50.5345C39.3244 50.3851 40.3897 49.498 40.9195 47.9895C41.4879 46.3706 41.1694 44.9129 39.9969 43.6942C38.9792 42.6338 37.7293 42.368 36.3336 42.8817C34.3755 43.6016 34.4499 45.2266 34.5659 46.493ZM34.5659 53.5036C34.5659 55.6423 34.5243 57.6705 34.5838 59.6927C34.6165 60.774 34.31 61.2071 33.1464 61.1892C30.6348 61.1473 30.6348 61.2131 30.6348 58.701C30.6348 53.0286 30.611 47.3623 30.6616 41.6959C30.6675 40.9551 30.0872 39.8649 31.3311 39.5184C32.5245 39.1838 33.2417 39.7932 33.5214 41.0985C35.1433 39.7603 36.8187 38.906 38.8363 39.1002C40.3659 39.2495 41.6991 39.8708 42.8181 40.9402C45.3387 43.3477 45.8832 47.3832 44.1185 50.5375C42.333 53.7276 39.2976 54.7133 34.5659 53.5036Z" fill="#F5F6FA"/>
<path d="M5.8126 46.7002C7.02677 44.3733 8.10702 42.3033 9.18429 40.2363C9.45212 39.7255 9.63365 39.0594 10.3508 39.0803C11.0561 39.0982 11.2287 39.7584 11.4995 40.2751C12.5738 42.3392 13.6541 44.3972 14.8563 46.6973C15.5557 44.5556 16.1657 42.6827 16.7847 40.8128C17.1567 39.6897 19.4541 38.928 20.448 39.5792C20.8885 39.8659 20.698 40.2184 20.5879 40.5649C19.2428 44.7348 17.8977 48.9017 16.5496 53.0716C16.4038 53.5286 16.2848 54.0364 15.6866 54.0961C15.0319 54.1589 14.779 53.666 14.526 53.1761C13.1779 50.5774 11.8209 47.9787 10.3389 45.138C8.93431 47.8204 7.64575 50.2996 6.33934 52.7699C6.02984 53.3583 5.86915 54.2037 4.95257 54.0812C4.13718 53.9707 4.16396 53.1612 3.97648 52.5847C2.7028 48.6717 1.48863 44.7407 0.161386 40.8486C-0.234408 39.6897 0.0959162 39.5403 1.17319 39.4447C2.87837 39.2954 3.81578 39.7733 4.17884 41.5835C4.50619 43.2263 5.18767 44.7975 5.8126 46.7002Z" fill="#F5F6FA"/>
<path d="M69.585 46.5486C69.5552 44.4099 67.7637 42.5669 65.761 42.6177C63.7344 42.6715 62.0143 44.5891 62.0887 46.7009C62.1631 48.7858 63.8743 50.5422 65.8294 50.5452C67.8381 50.5482 69.6147 48.6574 69.585 46.5486ZM65.9068 54.0907C61.9013 54.1296 58.5415 50.6975 58.5474 46.5755C58.5534 42.5161 61.8179 39.1199 65.7639 39.0692C69.7397 39.0184 73.1263 42.4803 73.1263 46.5934C73.1233 50.6467 69.8439 54.0519 65.9068 54.0907Z" fill="#F5F6FA"/>
<path d="M50.8824 41.2365C52.5519 39.519 54.2749 38.7155 56.3938 39.2114C57.0901 39.3727 58.1763 39.5369 57.7002 40.5256C57.2806 41.4038 57.5484 43.1034 55.6855 42.8376C52.9507 42.4463 52.0549 43.2259 52.0549 45.8903C52.0549 48.0289 52.0133 50.1676 52.0728 52.3063C52.1025 53.3697 51.6919 53.6893 50.6711 53.6983C48.0881 53.7281 48.0881 53.767 48.0881 51.1085C48.0881 47.9543 48.0524 44.797 48.1149 41.6458C48.1297 40.902 47.5673 39.8058 48.838 39.4981C50.0135 39.2173 50.7723 39.7311 50.8824 41.2365Z" fill="#F5F6FA"/>
<path d="M27.1452 46.5062C27.1452 48.4298 27.1066 50.3565 27.1631 52.2741C27.1929 53.2897 26.8863 53.7945 25.8091 53.6869C25.3359 53.6391 24.8508 53.6601 24.3747 53.684C23.5891 53.7228 23.2022 53.4301 23.2081 52.5818C23.229 48.5732 23.226 44.5677 23.2111 40.5621C23.2081 39.8303 23.4819 39.4599 24.2318 39.4779C24.8151 39.4928 25.4043 39.5137 25.9876 39.4749C26.9161 39.4151 27.175 39.8781 27.1571 40.7384C27.1185 42.659 27.1452 44.5826 27.1452 46.5062Z" fill="#F5F6FA"/>
</svg>
