<?xml version="1.0" encoding="UTF-8" standalone="no"?>
<svg
   xmlns:dc="http://purl.org/dc/elements/1.1/"
   xmlns:cc="http://creativecommons.org/ns#"
   xmlns:rdf="http://www.w3.org/1999/02/22-rdf-syntax-ns#"
   xmlns:svg="http://www.w3.org/2000/svg"
   xmlns="http://www.w3.org/2000/svg"
   xmlns:sodipodi="http://sodipodi.sourceforge.net/DTD/sodipodi-0.dtd"
   xmlns:inkscape="http://www.inkscape.org/namespaces/inkscape"
   inkscape:version="1.0 (4035a4f, 2020-05-01)"
   sodipodi:docname="wipro-logo.svg"
   viewBox="0 0 64 64"
   height="64"
   width="64"
   xml:space="preserve"
   id="svg833"
   version="1.1"><metadata
     id="metadata839"><rdf:RDF><cc:Work
         rdf:about=""><dc:format>image/svg+xml</dc:format><dc:type
           rdf:resource="http://purl.org/dc/dcmitype/StillImage" /><dc:title></dc:title></cc:Work></rdf:RDF></metadata><defs
     id="defs837"><clipPath
       id="clipPath849"
       clipPathUnits="userSpaceOnUse"><path
         id="path847"
         d="M 0,48 H 48 V 0 H 0 Z" /></clipPath></defs><sodipodi:namedview
     inkscape:current-layer="g841"
     inkscape:window-maximized="1"
     inkscape:window-y="25"
     inkscape:window-x="0"
     inkscape:cy="32"
     inkscape:cx="32"
     inkscape:zoom="10.34375"
     showgrid="false"
     id="namedview835"
     inkscape:window-height="912"
     inkscape:window-width="1680"
     inkscape:pageshadow="2"
     inkscape:pageopacity="0"
     guidetolerance="10"
     gridtolerance="10"
     objecttolerance="10"
     borderopacity="1"
     bordercolor="#666666"
     pagecolor="#ffffff" /><g
     transform="matrix(1.3333333,0,0,-1.3333333,0,64)"
     inkscape:label="wipro-new-seeklogo.com"
     inkscape:groupmode="layer"
     id="g841"><g
       id="g843"><g
         clip-path="url(#clipPath849)"
         id="g845"><g
           transform="translate(31.9355,37.3657)"
           id="g851"><path
             id="path853"
             style="fill:#5291cb;fill-opacity:1;fill-rule:nonzero;stroke:none"
             d="m 0,0 c -0.149,-0.559 -0.725,-0.891 -1.283,-0.741 -0.559,0.15 -0.891,0.724 -0.741,1.283 0.15,0.56 0.724,0.891 1.283,0.741 C -0.182,1.134 0.149,0.559 0,0" /></g><g
           transform="translate(30.5703,33.6245)"
           id="g855"><path
             id="path857"
             style="fill:#5291cb;fill-opacity:1;fill-rule:nonzero;stroke:none"
             d="m 0,0 c -0.1,-0.372 -0.482,-0.592 -0.854,-0.493 -0.372,0.1 -0.592,0.482 -0.493,0.854 0.1,0.371 0.482,0.592 0.854,0.493 C -0.121,0.754 0.1,0.372 0,0" /></g><g
           transform="translate(29.5557,30.6865)"
           id="g859"><path
             id="path861"
             style="fill:#5291cb;fill-opacity:1;fill-rule:nonzero;stroke:none"
             d="m 0,0 c -0.068,-0.255 -0.33,-0.406 -0.585,-0.338 -0.255,0.068 -0.406,0.33 -0.338,0.585 0.069,0.255 0.33,0.407 0.585,0.338 C -0.083,0.517 0.068,0.255 0,0" /></g><g
           transform="translate(28.7734,28.3975)"
           id="g863"><path
             id="path865"
             style="fill:#5291cb;fill-opacity:1;fill-rule:nonzero;stroke:none"
             d="m 0,0 c -0.045,-0.168 -0.218,-0.268 -0.385,-0.223 -0.168,0.045 -0.267,0.218 -0.222,0.386 0.045,0.167 0.216,0.267 0.384,0.222 C -0.055,0.34 0.045,0.167 0,0" /></g><g
           transform="translate(35.2363,35.7026)"
           id="g867"><path
             id="path869"
             style="fill:#5291cb;fill-opacity:1;fill-rule:nonzero;stroke:none"
             d="m 0,0 c -0.29,-0.501 -0.931,-0.673 -1.432,-0.383 -0.501,0.289 -0.672,0.93 -0.383,1.431 0.29,0.501 0.93,0.673 1.431,0.383 C 0.117,1.142 0.289,0.501 0,0" /></g><g
           transform="translate(32.9482,32.4424)"
           id="g871"><path
             id="path873"
             style="fill:#5291cb;fill-opacity:1;fill-rule:nonzero;stroke:none"
             d="m 0,0 c -0.192,-0.333 -0.618,-0.447 -0.952,-0.255 -0.333,0.193 -0.447,0.619 -0.255,0.952 0.192,0.333 0.619,0.448 0.952,0.255 C 0.078,0.76 0.192,0.333 0,0" /></g><g
           transform="translate(31.209,29.8667)"
           id="g875"><path
             id="path877"
             style="fill:#5291cb;fill-opacity:1;fill-rule:nonzero;stroke:none"
             d="M 0,0 C -0.132,-0.229 -0.425,-0.307 -0.653,-0.175 -0.882,-0.043 -0.96,0.25 -0.828,0.478 -0.696,0.707 -0.404,0.785 -0.175,0.653 0.054,0.521 0.132,0.229 0,0" /></g><g
           transform="translate(29.8604,27.8584)"
           id="g879"><path
             id="path881"
             style="fill:#5291cb;fill-opacity:1;fill-rule:nonzero;stroke:none"
             d="m 0,0 c -0.087,-0.15 -0.279,-0.202 -0.43,-0.115 -0.15,0.087 -0.202,0.279 -0.115,0.429 0.087,0.15 0.279,0.202 0.43,0.115 C 0.035,0.342 0.087,0.15 0,0" /></g><g
           transform="translate(38.1455,33.0903)"
           id="g883"><path
             id="path885"
             style="fill:#0c3c77;fill-opacity:1;fill-rule:nonzero;stroke:none"
             d="m 0,0 c -0.493,-0.493 -1.293,-0.493 -1.785,0 -0.493,0.493 -0.493,1.292 0,1.786 0.492,0.492 1.292,0.492 1.785,0 C 0.493,1.292 0.493,0.493 0,0" /></g><g
           transform="translate(35.0303,30.5947)"
           id="g887"><path
             id="path889"
             style="fill:#0c3c77;fill-opacity:1;fill-rule:nonzero;stroke:none"
             d="m 0,0 c -0.322,-0.322 -0.844,-0.322 -1.166,0 -0.322,0.322 -0.322,0.844 0,1.166 0.322,0.322 0.844,0.322 1.166,0 C 0.322,0.844 0.322,0.322 0,0" /></g><g
           transform="translate(32.5928,28.6475)"
           id="g891"><path
             id="path893"
             style="fill:#0c3c77;fill-opacity:1;fill-rule:nonzero;stroke:none"
             d="m 0,0 c -0.187,-0.187 -0.489,-0.187 -0.676,0 -0.186,0.187 -0.186,0.489 0,0.676 0.187,0.186 0.489,0.186 0.676,0 C 0.187,0.489 0.187,0.187 0,0" /></g><g
           transform="translate(30.7705,27.0562)"
           id="g895"><path
             id="path897"
             style="fill:#0c3c77;fill-opacity:1;fill-rule:nonzero;stroke:none"
             d="m 0,0 c -0.123,-0.123 -0.322,-0.123 -0.444,0 -0.123,0.123 -0.123,0.322 0,0.445 0.122,0.122 0.321,0.122 0.444,0 C 0.123,0.322 0.123,0.123 0,0" /></g><g
           transform="translate(40.2119,29.8198)"
           id="g899"><path
             id="path901"
             style="fill:#0c3c77;fill-opacity:1;fill-rule:nonzero;stroke:none"
             d="m 0,0 c -0.685,-0.395 -1.56,-0.161 -1.955,0.524 -0.396,0.684 -0.16,1.559 0.523,1.955 0.685,0.395 1.561,0.16 1.955,-0.524 C 0.919,1.271 0.685,0.395 0,0" /></g><g
           transform="translate(36.5049,28.3062)"
           id="g903"><path
             id="path905"
             style="fill:#0c3c77;fill-opacity:1;fill-rule:nonzero;stroke:none"
             d="M 0,0 C -0.425,-0.246 -0.969,-0.1 -1.214,0.325 -1.459,0.75 -1.313,1.293 -0.889,1.539 -0.464,1.784 0.08,1.638 0.325,1.213 0.57,0.789 0.425,0.245 0,0" /></g><g
           transform="translate(33.7402,26.8931)"
           id="g907"><path
             id="path909"
             style="fill:#0c3c77;fill-opacity:1;fill-rule:nonzero;stroke:none"
             d="M 0,0 C -0.349,-0.201 -0.795,-0.082 -0.997,0.267 -1.198,0.616 -1.079,1.062 -0.729,1.264 -0.381,1.465 0.065,1.346 0.267,0.997 0.469,0.648 0.349,0.202 0,0" /></g><g
           transform="translate(31.4424,26.0459)"
           id="g911"><path
             id="path913"
             style="fill:#0c3c77;fill-opacity:1;fill-rule:nonzero;stroke:none"
             d="M 0,0 C -0.15,-0.087 -0.343,-0.035 -0.43,0.115 -0.517,0.266 -0.465,0.458 -0.314,0.545 -0.164,0.631 0.028,0.58 0.115,0.43 0.202,0.279 0.15,0.087 0,0" /></g><g
           transform="translate(41.3008,26.1831)"
           id="g915"><path
             id="path917"
             style="fill:#0c3c77;fill-opacity:1;fill-rule:nonzero;stroke:none"
             d="M 0,0 C -0.812,-0.218 -1.647,0.265 -1.865,1.077 -2.083,1.889 -1.601,2.724 -0.788,2.942 0.024,3.16 0.859,2.677 1.077,1.865 1.294,1.053 0.812,0.218 0,0" /></g><g
           transform="translate(37.3232,25.6992)"
           id="g919"><path
             id="path921"
             style="fill:#0c3c77;fill-opacity:1;fill-rule:nonzero;stroke:none"
             d="M 0,0 C -0.513,-0.137 -1.039,0.167 -1.177,0.679 -1.313,1.192 -1.01,1.718 -0.497,1.856 0.015,1.993 0.542,1.689 0.679,1.177 0.816,0.664 0.513,0.138 0,0" /></g><g
           transform="translate(34.2773,25.0859)"
           id="g923"><path
             id="path925"
             style="fill:#0c3c77;fill-opacity:1;fill-rule:nonzero;stroke:none"
             d="M 0,0 C -0.407,-0.109 -0.827,0.133 -0.937,0.541 -1.046,0.949 -0.804,1.368 -0.396,1.478 0.013,1.587 0.432,1.345 0.541,0.937 0.65,0.529 0.408,0.109 0,0" /></g><g
           transform="translate(31.8711,24.7432)"
           id="g927"><path
             id="path929"
             style="fill:#0c3c77;fill-opacity:1;fill-rule:nonzero;stroke:none"
             d="m 0,0 c -0.253,-0.068 -0.513,0.082 -0.58,0.334 -0.067,0.253 0.082,0.512 0.335,0.58 C 0.007,0.981 0.267,0.832 0.334,0.579 0.401,0.327 0.252,0.067 0,0" /></g><g
           transform="translate(41.3877,22.3877)"
           id="g931"><path
             id="path933"
             style="fill:#6873ab;fill-opacity:1;fill-rule:nonzero;stroke:none"
             d="m 0,0 c -0.891,0 -1.612,0.722 -1.612,1.612 0,0.891 0.721,1.613 1.612,1.613 0.891,0 1.612,-0.722 1.612,-1.613 C 1.612,0.722 0.891,0 0,0" /></g><g
           transform="translate(37.4209,22.8848)"
           id="g935"><path
             id="path937"
             style="fill:#6873ab;fill-opacity:1;fill-rule:nonzero;stroke:none"
             d="M 0,0 C -0.616,0 -1.115,0.5 -1.115,1.115 -1.115,1.731 -0.616,2.23 0,2.23 0.615,2.23 1.114,1.731 1.114,1.115 1.114,0.5 0.615,0 0,0" /></g><g
           transform="translate(34.3203,23.1934)"
           id="g939"><path
             id="path941"
             style="fill:#6873ab;fill-opacity:1;fill-rule:nonzero;stroke:none"
             d="m 0,0 c -0.446,0 -0.807,0.361 -0.807,0.807 0,0.445 0.361,0.806 0.807,0.806 0.445,0 0.807,-0.361 0.807,-0.806 C 0.807,0.361 0.445,0 0,0" /></g><g
           transform="translate(31.9063,23.4707)"
           id="g943"><path
             id="path945"
             style="fill:#6873ab;fill-opacity:1;fill-rule:nonzero;stroke:none"
             d="m 0,0 c -0.292,0 -0.529,0.237 -0.529,0.529 0,0.293 0.237,0.53 0.529,0.53 0.292,0 0.529,-0.237 0.529,-0.53 C 0.529,0.237 0.292,0 0,0" /></g><g
           transform="translate(38.8154,15.7627)"
           id="g947"><path
             id="path949"
             style="fill:#6873ab;fill-opacity:1;fill-rule:nonzero;stroke:none"
             d="M 0,0 C -0.65,0.375 -0.874,1.208 -0.498,1.858 -0.122,2.51 0.71,2.732 1.361,2.356 2.013,1.981 2.235,1.148 1.859,0.498 1.483,-0.153 0.651,-0.376 0,0" /></g><g
           transform="translate(35.5547,18.0479)"
           id="g951"><path
             id="path953"
             style="fill:#6873ab;fill-opacity:1;fill-rule:nonzero;stroke:none"
             d="M 0,0 C -0.484,0.279 -0.65,0.898 -0.371,1.383 -0.092,1.867 0.527,2.033 1.012,1.754 1.496,1.474 1.662,0.854 1.383,0.37 1.103,-0.113 0.483,-0.279 0,0" /></g><g
           transform="translate(33.0234,19.8652)"
           id="g955"><path
             id="path957"
             style="fill:#6873ab;fill-opacity:1;fill-rule:nonzero;stroke:none"
             d="M 0,0 C -0.337,0.194 -0.452,0.625 -0.258,0.962 -0.063,1.299 0.367,1.414 0.704,1.22 1.041,1.025 1.156,0.595 0.962,0.258 0.768,-0.079 0.337,-0.194 0,0" /></g><g
           transform="translate(31.1279,21.4092)"
           id="g959"><path
             id="path961"
             style="fill:#6873ab;fill-opacity:1;fill-rule:nonzero;stroke:none"
             d="M 0,0 C -0.15,0.087 -0.202,0.279 -0.115,0.43 -0.028,0.58 0.164,0.632 0.314,0.545 0.465,0.458 0.517,0.266 0.43,0.115 0.343,-0.035 0.15,-0.087 0,0" /></g><g
           transform="translate(36.3457,13.1094)"
           id="g963"><path
             id="path965"
             style="fill:#b71771;fill-opacity:1;fill-rule:nonzero;stroke:none"
             d="m 0,0 c -0.501,0.501 -0.501,1.313 0,1.814 0.501,0.501 1.313,0.501 1.814,0 C 2.315,1.313 2.315,0.501 1.814,0 1.313,-0.501 0.501,-0.501 0,0" /></g><g
           transform="translate(33.7998,16.1748)"
           id="g967"><path
             id="path969"
             style="fill:#b71771;fill-opacity:1;fill-rule:nonzero;stroke:none"
             d="m 0,0 c -0.358,0.357 -0.358,0.937 0,1.295 0.357,0.358 0.937,0.358 1.295,0 C 1.653,0.937 1.653,0.357 1.295,0 0.937,-0.358 0.357,-0.358 0,0" /></g><g
           transform="translate(31.8008,18.5605)"
           id="g971"><path
             id="path973"
             style="fill:#b71771;fill-opacity:1;fill-rule:nonzero;stroke:none"
             d="m 0,0 c -0.251,0.251 -0.251,0.657 0,0.908 0.251,0.251 0.657,0.251 0.908,0 C 1.159,0.657 1.159,0.251 0.908,0 0.657,-0.251 0.251,-0.251 0,0" /></g><g
           transform="translate(30.3262,20.499)"
           id="g975"><path
             id="path977"
             style="fill:#b71771;fill-opacity:1;fill-rule:nonzero;stroke:none"
             d="m 0,0 c -0.123,0.123 -0.123,0.322 0,0.444 0.122,0.123 0.321,0.123 0.444,0 C 0.567,0.322 0.567,0.123 0.444,0 0.321,-0.123 0.122,-0.123 0,0" /></g><g
           transform="translate(33.2871,11.1719)"
           id="g979"><path
             id="path981"
             style="fill:#b71771;fill-opacity:1;fill-rule:nonzero;stroke:none"
             d="M 0,0 C -0.332,0.575 -0.135,1.311 0.44,1.643 1.016,1.975 1.751,1.778 2.083,1.203 2.415,0.628 2.218,-0.107 1.643,-0.44 1.067,-0.772 0.332,-0.575 0,0" /></g><g
           transform="translate(31.6035,14.7812)"
           id="g983"><path
             id="path985"
             style="fill:#b71771;fill-opacity:1;fill-rule:nonzero;stroke:none"
             d="M 0,0 C -0.236,0.409 -0.096,0.933 0.313,1.169 0.723,1.405 1.246,1.266 1.483,0.855 1.72,0.446 1.579,-0.077 1.17,-0.313 0.76,-0.55 0.236,-0.41 0,0" /></g><g
           transform="translate(30.3809,17.6553)"
           id="g987"><path
             id="path989"
             style="fill:#b71771;fill-opacity:1;fill-rule:nonzero;stroke:none"
             d="M 0,0 C -0.132,0.229 -0.054,0.521 0.175,0.653 0.403,0.785 0.696,0.706 0.828,0.478 0.96,0.249 0.882,-0.043 0.653,-0.175 0.424,-0.307 0.132,-0.229 0,0" /></g><g
           transform="translate(29.3154,19.8271)"
           id="g991"><path
             id="path993"
             style="fill:#b71771;fill-opacity:1;fill-rule:nonzero;stroke:none"
             d="M 0,0 C -0.087,0.15 -0.035,0.343 0.115,0.43 0.266,0.517 0.458,0.465 0.545,0.314 0.632,0.164 0.58,-0.028 0.43,-0.115 0.279,-0.201 0.087,-0.15 0,0" /></g><g
           transform="translate(29.9111,10.0918)"
           id="g995"><path
             id="path997"
             style="fill:#d5595a;fill-opacity:1;fill-rule:nonzero;stroke:none"
             d="M 0,0 C -0.149,0.559 0.183,1.134 0.741,1.283 1.3,1.433 1.875,1.102 2.024,0.542 2.174,-0.017 1.843,-0.591 1.283,-0.741 0.725,-0.891 0.15,-0.559 0,0" /></g><g
           transform="translate(29.2236,14.0146)"
           id="g999"><path
             id="path1001"
             style="fill:#d5595a;fill-opacity:1;fill-rule:nonzero;stroke:none"
             d="M 0,0 C -0.1,0.372 0.121,0.754 0.493,0.854 0.864,0.953 1.247,0.732 1.347,0.36 1.446,-0.011 1.226,-0.394 0.854,-0.493 0.481,-0.593 0.1,-0.372 0,0" /></g><g
           transform="translate(28.6328,17.0664)"
           id="g1003"><path
             id="path1005"
             style="fill:#d5595a;fill-opacity:1;fill-rule:nonzero;stroke:none"
             d="M 0,0 C -0.068,0.255 0.083,0.517 0.338,0.585 0.593,0.653 0.854,0.502 0.923,0.247 0.991,-0.008 0.84,-0.27 0.585,-0.338 0.33,-0.406 0.068,-0.255 0,0" /></g><g
           transform="translate(28.166,19.4404)"
           id="g1007"><path
             id="path1009"
             style="fill:#d5595a;fill-opacity:1;fill-rule:nonzero;stroke:none"
             d="M 0,0 C -0.045,0.167 0.055,0.34 0.223,0.385 0.39,0.43 0.562,0.33 0.607,0.162 0.652,-0.006 0.553,-0.178 0.385,-0.223 0.217,-0.268 0.045,-0.168 0,0" /></g><g
           transform="translate(26.2217,9.8818)"
           id="g1011"><path
             id="path1013"
             style="fill:#d5595a;fill-opacity:1;fill-rule:nonzero;stroke:none"
             d="M 0,0 C 0,0.579 0.47,1.048 1.048,1.048 1.627,1.048 2.096,0.579 2.096,0 2.096,-0.578 1.627,-1.048 1.048,-1.048 0.47,-1.048 0,-0.578 0,0" /></g><g
           transform="translate(26.5723,13.8496)"
           id="g1015"><path
             id="path1017"
             style="fill:#d5595a;fill-opacity:1;fill-rule:nonzero;stroke:none"
             d="M 0,0 C 0,0.385 0.312,0.696 0.697,0.696 1.082,0.696 1.395,0.385 1.395,0 1.395,-0.386 1.082,-0.697 0.697,-0.697 0.312,-0.697 0,-0.386 0,0" /></g><g
           transform="translate(26.792,16.9492)"
           id="g1019"><path
             id="path1021"
             style="fill:#d5595a;fill-opacity:1;fill-rule:nonzero;stroke:none"
             d="M 0,0 C 0,0.265 0.214,0.479 0.478,0.479 0.741,0.479 0.955,0.265 0.955,0 0.955,-0.264 0.741,-0.478 0.478,-0.478 0.214,-0.478 0,-0.264 0,0" /></g><g
           transform="translate(26.9551,19.3633)"
           id="g1023"><path
             id="path1025"
             style="fill:#d5595a;fill-opacity:1;fill-rule:nonzero;stroke:none"
             d="M 0,0 C 0,0.174 0.141,0.314 0.314,0.314 0.488,0.314 0.629,0.174 0.629,0 0.629,-0.174 0.488,-0.314 0.314,-0.314 0.141,-0.314 0,-0.174 0,0" /></g><g
           transform="translate(22.6035,10.6338)"
           id="g1027"><path
             id="path1029"
             style="fill:#f89c2c;fill-opacity:1;fill-rule:nonzero;stroke:none"
             d="M 0,0 C 0.15,0.56 0.724,0.891 1.283,0.741 1.842,0.592 2.174,0.017 2.024,-0.542 1.875,-1.101 1.3,-1.433 0.741,-1.283 0.182,-1.133 -0.15,-0.559 0,0" /></g><g
           transform="translate(23.9692,14.375)"
           id="g1031"><path
             id="path1033"
             style="fill:#f89c2c;fill-opacity:1;fill-rule:nonzero;stroke:none"
             d="M 0,0 C 0.1,0.372 0.482,0.593 0.854,0.493 1.225,0.394 1.446,0.012 1.346,-0.36 1.247,-0.732 0.865,-0.953 0.493,-0.854 0.121,-0.754 -0.1,-0.371 0,0" /></g><g
           transform="translate(24.9834,17.3135)"
           id="g1035"><path
             id="path1037"
             style="fill:#f89c2c;fill-opacity:1;fill-rule:nonzero;stroke:none"
             d="M 0,0 C 0.068,0.255 0.33,0.406 0.585,0.338 0.84,0.27 0.991,0.008 0.923,-0.247 0.854,-0.502 0.593,-0.653 0.338,-0.585 0.083,-0.517 -0.068,-0.255 0,0" /></g><g
           transform="translate(25.8145,19.5898)"
           id="g1039"><path
             id="path1041"
             style="fill:#f89c2c;fill-opacity:1;fill-rule:nonzero;stroke:none"
             d="M 0,0 C 0.038,0.141 0.183,0.225 0.323,0.187 0.464,0.148 0.548,0.004 0.51,-0.137 0.473,-0.277 0.327,-0.361 0.187,-0.323 0.046,-0.286 -0.037,-0.141 0,0" /></g><g
           transform="translate(19.4136,12.2334)"
           id="g1043"><path
             id="path1045"
             style="fill:#f89c2c;fill-opacity:1;fill-rule:nonzero;stroke:none"
             d="M 0,0 C 0.254,0.44 0.817,0.591 1.257,0.337 1.697,0.083 1.848,-0.48 1.594,-0.92 1.34,-1.36 0.777,-1.511 0.337,-1.257 -0.103,-1.003 -0.254,-0.44 0,0" /></g><g
           transform="translate(21.6987,15.4951)"
           id="g1047"><path
             id="path1049"
             style="fill:#f89c2c;fill-opacity:1;fill-rule:nonzero;stroke:none"
             d="M 0,0 C 0.158,0.273 0.508,0.367 0.782,0.21 1.055,0.052 1.149,-0.299 0.991,-0.572 0.833,-0.846 0.483,-0.939 0.209,-0.781 -0.064,-0.623 -0.158,-0.273 0,0" /></g><g
           transform="translate(23.3804,18.1045)"
           id="g1051"><path
             id="path1053"
             style="fill:#f89c2c;fill-opacity:1;fill-rule:nonzero;stroke:none"
             d="M 0,0 C 0.116,0.201 0.373,0.271 0.574,0.154 0.775,0.038 0.844,-0.22 0.729,-0.421 0.612,-0.622 0.355,-0.69 0.154,-0.574 -0.047,-0.458 -0.116,-0.201 0,0" /></g><g
           transform="translate(24.7339,20.1104)"
           id="g1055"><path
             id="path1057"
             style="fill:#f89c2c;fill-opacity:1;fill-rule:nonzero;stroke:none"
             d="M 0,0 C 0.069,0.12 0.223,0.161 0.343,0.092 0.463,0.022 0.504,-0.131 0.435,-0.251 0.366,-0.371 0.212,-0.412 0.092,-0.343 -0.028,-0.273 -0.069,-0.12 0,0" /></g><g
           transform="translate(16.6914,14.6123)"
           id="g1059"><path
             id="path1061"
             style="fill:#fec61b;fill-opacity:1;fill-rule:nonzero;stroke:none"
             d="m 0,0 c 0.329,0.328 0.862,0.328 1.19,0 0.329,-0.329 0.329,-0.861 0,-1.19 C 0.862,-1.52 0.329,-1.52 0,-1.19 -0.329,-0.861 -0.329,-0.329 0,0" /></g><g
           transform="translate(19.7437,17.1709)"
           id="g1063"><path
             id="path1065"
             style="fill:#fec61b;fill-opacity:1;fill-rule:nonzero;stroke:none"
             d="m 0,0 c 0.192,0.192 0.504,0.192 0.697,0 0.192,-0.192 0.192,-0.505 0,-0.697 C 0.504,-0.89 0.192,-0.89 0,-0.697 -0.193,-0.505 -0.193,-0.192 0,0" /></g><g
           transform="translate(22.0454,19.2539)"
           id="g1067"><path
             id="path1069"
             style="fill:#fec61b;fill-opacity:1;fill-rule:nonzero;stroke:none"
             d="M 0,0 C 0.132,0.132 0.346,0.132 0.478,0 0.61,-0.132 0.61,-0.347 0.478,-0.479 0.346,-0.61 0.132,-0.61 0,-0.479 -0.132,-0.347 -0.132,-0.132 0,0" /></g><g
           transform="translate(14.6353,17.6475)"
           id="g1071"><path
             id="path1073"
             style="fill:#fec61b;fill-opacity:1;fill-rule:nonzero;stroke:none"
             d="M 0,0 C 0.39,0.225 0.889,0.091 1.114,-0.299 1.339,-0.688 1.206,-1.187 0.815,-1.413 0.425,-1.638 -0.073,-1.504 -0.298,-1.114 -0.523,-0.725 -0.39,-0.226 0,0" /></g><g
           transform="translate(18.2783,19.2715)"
           id="g1075"><path
             id="path1077"
             style="fill:#fec61b;fill-opacity:1;fill-rule:nonzero;stroke:none"
             d="M 0,0 C 0.192,0.111 0.437,0.046 0.548,-0.146 0.658,-0.338 0.593,-0.583 0.401,-0.694 0.209,-0.805 -0.036,-0.739 -0.147,-0.548 -0.258,-0.355 -0.192,-0.11 0,0" /></g><g
           transform="translate(20.9932,20.7705)"
           id="g1079"><path
             id="path1081"
             style="fill:#fec61b;fill-opacity:1;fill-rule:nonzero;stroke:none"
             d="M 0,0 C 0.163,0.094 0.372,0.038 0.466,-0.125 0.56,-0.288 0.504,-0.497 0.341,-0.591 0.178,-0.686 -0.031,-0.63 -0.125,-0.466 -0.219,-0.303 -0.163,-0.095 0,0" /></g><g
           transform="translate(13.8228,28.3633)"
           id="g1083"><path
             id="path1085"
             style="fill:#83c563;fill-opacity:1;fill-rule:nonzero;stroke:none"
             d="M 0,0 C 0.392,-0.105 0.624,-0.507 0.519,-0.899 0.414,-1.291 0.012,-1.523 -0.38,-1.418 -0.772,-1.313 -1.005,-0.911 -0.9,-0.519 -0.795,-0.127 -0.392,0.105 0,0" /></g><g
           transform="translate(15.4102,31.6953)"
           id="g1087"><path
             id="path1089"
             style="fill:#83c563;fill-opacity:1;fill-rule:nonzero;stroke:none"
             d="M 0,0 C 0.352,-0.203 0.472,-0.652 0.269,-1.004 0.066,-1.355 -0.383,-1.476 -0.735,-1.273 -1.086,-1.07 -1.207,-0.62 -1.004,-0.269 -0.801,0.083 -0.351,0.203 0,0" /></g><g
           transform="translate(18.6895,29.4404)"
           id="g1091"><path
             id="path1093"
             style="fill:#83c563;fill-opacity:1;fill-rule:nonzero;stroke:none"
             d="M 0,0 C 0.201,-0.117 0.271,-0.374 0.154,-0.576 0.038,-0.777 -0.22,-0.846 -0.421,-0.73 -0.623,-0.613 -0.692,-0.356 -0.576,-0.154 -0.459,0.047 -0.202,0.116 0,0" /></g><g
           transform="translate(21.3306,27.8145)"
           id="g1095"><path
             id="path1097"
             style="fill:#83c563;fill-opacity:1;fill-rule:nonzero;stroke:none"
             d="M 0,0 C 0.16,-0.092 0.214,-0.296 0.123,-0.456 0.03,-0.616 -0.174,-0.67 -0.333,-0.579 -0.493,-0.486 -0.548,-0.282 -0.456,-0.123 -0.364,0.037 -0.16,0.092 0,0" /></g><g
           transform="translate(17.8364,34.5327)"
           id="g1099"><path
             id="path1101"
             style="fill:#10b280;fill-opacity:1;fill-rule:nonzero;stroke:none"
             d="m 0,0 c 0.304,-0.304 0.304,-0.796 0,-1.1 -0.304,-0.303 -0.796,-0.303 -1.1,0 -0.303,0.304 -0.303,0.796 0,1.1 0.304,0.304 0.796,0.304 1.1,0" /></g><g
           transform="translate(20.4443,31.5303)"
           id="g1103"><path
             id="path1105"
             style="fill:#10b280;fill-opacity:1;fill-rule:nonzero;stroke:none"
             d="m 0,0 c 0.195,-0.195 0.195,-0.51 0,-0.705 -0.195,-0.195 -0.51,-0.195 -0.705,0 -0.194,0.195 -0.194,0.51 0,0.705 0.195,0.194 0.51,0.194 0.705,0" /></g><g
           transform="translate(22.5518,29.2529)"
           id="g1107"><path
             id="path1109"
             style="fill:#10b280;fill-opacity:1;fill-rule:nonzero;stroke:none"
             d="m 0,0 c 0.147,-0.148 0.147,-0.387 0,-0.535 -0.148,-0.148 -0.387,-0.148 -0.535,0 -0.148,0.148 -0.148,0.387 0,0.535 0.148,0.147 0.387,0.147 0.535,0" /></g><g
           transform="translate(21.0078,36.687)"
           id="g1111"><path
             id="path1113"
             style="fill:#10b280;fill-opacity:1;fill-rule:nonzero;stroke:none"
             d="M 0,0 C 0.254,-0.44 0.104,-1.003 -0.337,-1.258 -0.777,-1.512 -1.34,-1.361 -1.595,-0.921 -1.849,-0.48 -1.698,0.083 -1.258,0.337 -0.817,0.591 -0.254,0.44 0,0" /></g><g
           transform="translate(22.6938,33.0791)"
           id="g1115"><path
             id="path1117"
             style="fill:#10b280;fill-opacity:1;fill-rule:nonzero;stroke:none"
             d="m 0,0 c 0.159,-0.276 0.064,-0.628 -0.211,-0.788 -0.276,-0.159 -0.629,-0.065 -0.788,0.211 -0.16,0.276 -0.065,0.629 0.211,0.788 C -0.512,0.371 -0.16,0.276 0,0" /></g><g
           transform="translate(24.105,30.314)"
           id="g1119"><path
             id="path1121"
             style="fill:#10b280;fill-opacity:1;fill-rule:nonzero;stroke:none"
             d="m 0,0 c 0.115,-0.199 0.047,-0.454 -0.152,-0.569 -0.2,-0.115 -0.454,-0.047 -0.569,0.152 -0.115,0.2 -0.047,0.455 0.152,0.569 C -0.37,0.268 -0.115,0.199 0,0" /></g><g
           transform="translate(25.1484,28.1294)"
           id="g1123"><path
             id="path1125"
             style="fill:#10b280;fill-opacity:1;fill-rule:nonzero;stroke:none"
             d="M 0,0 C 0.063,-0.109 0.026,-0.249 -0.083,-0.312 -0.192,-0.375 -0.332,-0.337 -0.395,-0.228 -0.458,-0.119 -0.42,0.021 -0.311,0.083 -0.202,0.146 -0.062,0.109 0,0" /></g><g
           transform="translate(24.5649,37.8916)"
           id="g1127"><path
             id="path1129"
             style="fill:#10b280;fill-opacity:1;fill-rule:nonzero;stroke:none"
             d="m 0,0 c 0.14,-0.524 -0.171,-1.063 -0.695,-1.204 -0.524,-0.14 -1.063,0.171 -1.203,0.695 -0.141,0.524 0.17,1.063 0.694,1.204 C -0.68,0.835 -0.141,0.524 0,0" /></g><g
           transform="translate(25.2217,33.96)"
           id="g1131"><path
             id="path1133"
             style="fill:#10b280;fill-opacity:1;fill-rule:nonzero;stroke:none"
             d="M 0,0 C 0.085,-0.32 -0.104,-0.648 -0.424,-0.734 -0.744,-0.82 -1.073,-0.63 -1.158,-0.31 -1.244,0.01 -1.054,0.338 -0.734,0.424 -0.415,0.51 -0.086,0.32 0,0" /></g><g
           transform="translate(25.9063,30.9336)"
           id="g1135"><path
             id="path1137"
             style="fill:#10b280;fill-opacity:1;fill-rule:nonzero;stroke:none"
             d="M 0,0 C 0.068,-0.255 -0.083,-0.517 -0.338,-0.585 -0.593,-0.653 -0.854,-0.502 -0.923,-0.247 -0.991,0.008 -0.84,0.27 -0.585,0.338 -0.33,0.407 -0.068,0.255 0,0" /></g><g
           transform="translate(26.3184,28.5454)"
           id="g1139"><path
             id="path1141"
             style="fill:#10b280;fill-opacity:1;fill-rule:nonzero;stroke:none"
             d="m 0,0 c 0.037,-0.138 -0.045,-0.279 -0.182,-0.316 -0.137,-0.037 -0.279,0.045 -0.316,0.182 -0.037,0.138 0.045,0.28 0.183,0.316 C -0.178,0.219 -0.036,0.138 0,0" /></g><g
           transform="translate(28.3174,38.1182)"
           id="g1143"><path
             id="path1145"
             style="fill:#5291cb;fill-opacity:1;fill-rule:nonzero;stroke:none"
             d="m 0,0 c 0,-0.579 -0.469,-1.048 -1.048,-1.048 -0.578,0 -1.048,0.469 -1.048,1.048 0,0.579 0.47,1.048 1.048,1.048 C -0.469,1.048 0,0.579 0,0" /></g><g
           transform="translate(27.9668,34.1509)"
           id="g1147"><path
             id="path1149"
             style="fill:#5291cb;fill-opacity:1;fill-rule:nonzero;stroke:none"
             d="m 0,0 c 0,-0.385 -0.312,-0.697 -0.697,-0.697 -0.385,0 -0.698,0.312 -0.698,0.697 0,0.385 0.313,0.697 0.698,0.697 C -0.312,0.697 0,0.385 0,0" /></g><g
           transform="translate(27.7471,31.0503)"
           id="g1151"><path
             id="path1153"
             style="fill:#5291cb;fill-opacity:1;fill-rule:nonzero;stroke:none"
             d="m 0,0 c 0,-0.264 -0.214,-0.478 -0.478,-0.478 -0.263,0 -0.477,0.214 -0.477,0.478 0,0.264 0.214,0.478 0.477,0.478 C -0.214,0.478 0,0.264 0,0" /></g><g
           transform="translate(27.584,28.6367)"
           id="g1155"><path
             id="path1157"
             style="fill:#5291cb;fill-opacity:1;fill-rule:nonzero;stroke:none"
             d="m 0,0 c 0,-0.174 -0.141,-0.314 -0.314,-0.314 -0.174,0 -0.315,0.14 -0.315,0.314 0,0.173 0.141,0.314 0.315,0.314 C -0.141,0.314 0,0.173 0,0" /></g><g
           transform="translate(40.5127,18.875)"
           id="g1159"><path
             id="path1161"
             style="fill:#6873ab;fill-opacity:1;fill-rule:nonzero;stroke:none"
             d="M 0,0 C -0.812,0.218 -1.295,1.053 -1.077,1.865 -0.859,2.678 -0.024,3.159 0.788,2.941 1.601,2.725 2.082,1.89 1.865,1.077 1.647,0.265 0.812,-0.218 0,0" /></g><g
           transform="translate(36.8076,20.376)"
           id="g1163"><path
             id="path1165"
             style="fill:#6873ab;fill-opacity:1;fill-rule:nonzero;stroke:none"
             d="m 0,0 c -0.551,0.147 -0.877,0.714 -0.729,1.264 0.147,0.55 0.712,0.877 1.263,0.729 C 1.085,1.846 1.411,1.28 1.264,0.729 1.116,0.18 0.551,-0.147 0,0" /></g><g
           transform="translate(33.8857,21.4512)"
           id="g1167"><path
             id="path1169"
             style="fill:#6873ab;fill-opacity:1;fill-rule:nonzero;stroke:none"
             d="m 0,0 c -0.4,0.107 -0.638,0.519 -0.53,0.918 0.107,0.4 0.518,0.637 0.918,0.53 C 0.788,1.341 1.025,0.93 0.918,0.53 0.811,0.13 0.399,-0.107 0,0" /></g><g
           transform="translate(31.625,22.3389)"
           id="g1171"><path
             id="path1173"
             style="fill:#6873ab;fill-opacity:1;fill-rule:nonzero;stroke:none"
             d="M 0,0 C -0.255,0.068 -0.406,0.33 -0.338,0.585 -0.271,0.84 -0.008,0.991 0.247,0.922 0.502,0.854 0.653,0.593 0.585,0.338 0.517,0.083 0.255,-0.068 0,0" /></g><g
           transform="translate(16.6152,23.834)"
           id="g1175"><path
             id="path1177"
             style="fill:#34165a;fill-opacity:1;fill-rule:nonzero;stroke:none"
             d="m 0,0 c 0,-1.169 0.221,-1.432 1.069,-1.353 0.53,0.05 0.888,0.347 1.066,0.852 0.191,0.542 0.084,1.03 -0.31,1.438 C 1.483,1.292 1.063,1.381 0.594,1.209 -0.064,0.968 -0.039,0.424 0,0 m 0,-2.347 c 0,-0.716 -0.014,-1.395 0.006,-2.072 0.011,-0.362 -0.092,-0.507 -0.483,-0.501 -0.844,0.014 -0.844,-0.008 -0.844,0.833 0,1.899 -0.008,3.796 0.009,5.693 0.002,0.248 -0.193,0.613 0.225,0.729 0.401,0.112 0.642,-0.092 0.736,-0.529 C 0.194,2.254 0.757,2.54 1.435,2.475 1.949,2.425 2.397,2.217 2.773,1.859 3.62,1.053 3.803,-0.298 3.21,-1.354 2.61,-2.422 1.59,-2.752 0,-2.347" /></g><g
           transform="translate(6.9531,23.7646)"
           id="g1179"><path
             id="path1181"
             style="fill:#34165a;fill-opacity:1;fill-rule:nonzero;stroke:none"
             d="M 0,0 C 0.408,0.779 0.771,1.472 1.133,2.164 1.223,2.335 1.284,2.558 1.525,2.551 1.762,2.545 1.82,2.324 1.911,2.151 2.272,1.46 2.635,0.771 3.039,0.001 3.274,0.718 3.479,1.345 3.687,1.971 3.812,2.347 4.584,2.602 4.918,2.384 5.066,2.288 5.002,2.17 4.965,2.054 4.513,0.658 4.061,-0.737 3.608,-2.133 3.559,-2.286 3.519,-2.456 3.318,-2.476 3.098,-2.497 3.013,-2.332 2.928,-2.168 2.475,-1.298 2.019,-0.428 1.521,0.523 1.049,-0.375 0.616,-1.205 0.177,-2.032 0.073,-2.229 0.019,-2.512 -0.289,-2.471 c -0.274,0.037 -0.265,0.308 -0.328,0.501 -0.428,1.31 -0.836,2.626 -1.282,3.929 -0.133,0.388 -0.022,0.438 0.34,0.47 0.573,0.05 0.888,-0.11 1.01,-0.716 C -0.439,1.163 -0.21,0.637 0,0" /></g><g
           transform="translate(28.3828,23.8154)"
           id="g1183"><path
             id="path1185"
             style="fill:#34165a;fill-opacity:1;fill-rule:nonzero;stroke:none"
             d="m 0,0 c -0.01,0.716 -0.612,1.333 -1.285,1.316 -0.681,-0.018 -1.259,-0.66 -1.234,-1.367 0.025,-0.698 0.6,-1.286 1.257,-1.287 C -0.587,-1.339 0.01,-0.706 0,0 m -1.236,-2.525 c -1.346,-0.013 -2.475,1.136 -2.473,2.516 0.002,1.359 1.099,2.496 2.425,2.513 C 0.052,2.521 1.19,1.362 1.19,-0.015 1.189,-1.372 0.087,-2.512 -1.236,-2.525" /></g><g
           transform="translate(22.0981,25.5938)"
           id="g1187"><path
             id="path1189"
             style="fill:#34165a;fill-opacity:1;fill-rule:nonzero;stroke:none"
             d="M 0,0 C 0.561,0.575 1.14,0.844 1.852,0.678 2.086,0.624 2.451,0.569 2.291,0.238 2.15,-0.056 2.24,-0.625 1.614,-0.536 0.695,-0.405 0.394,-0.666 0.394,-1.558 0.394,-2.274 0.38,-2.99 0.4,-3.706 0.41,-4.062 0.272,-4.169 -0.071,-4.172 c -0.868,-0.01 -0.868,-0.023 -0.868,0.867 0,1.056 -0.012,2.113 0.009,3.168 0.005,0.249 -0.184,0.616 0.243,0.719 C -0.292,0.676 -0.037,0.504 0,0" /></g><g
           transform="translate(14.1216,23.8296)"
           id="g1191"><path
             id="path1193"
             style="fill:#34165a;fill-opacity:1;fill-rule:nonzero;stroke:none"
             d="m 0,0 c 0,-0.644 -0.013,-1.289 0.006,-1.931 0.01,-0.34 -0.093,-0.509 -0.455,-0.473 -0.159,0.016 -0.322,0.009 -0.482,10e-4 -0.264,-0.013 -0.394,0.085 -0.392,0.369 0.007,1.342 0.006,2.683 10e-4,4.024 -10e-4,0.245 0.091,0.369 0.343,0.363 0.196,-0.005 0.394,-0.012 0.59,10e-4 C -0.077,2.374 0.01,2.219 0.004,1.931 -0.009,1.288 0,0.644 0,0" /></g></g></g></g></svg>
